<?xml version="1.0" encoding="utf-8"?>
<!-- Generator: Adobe Illustrator 24.1.3, SVG Export Plug-In . SVG Version: 6.00 Build 0)  -->
<svg version="1.1" id="Layer_1" xmlns="http://www.w3.org/2000/svg" xmlns:xlink="http://www.w3.org/1999/xlink" x="0px" y="0px"
	 viewBox="0 0 377 239" style="enable-background:new 0 0 377 239;" xml:space="preserve">
<style type="text/css">
	.st0{fill:#7EBF73;}
	.st1{fill:#FFCF35;}
	.st2{fill:#3D3F3E;}
	.st3{fill:#FFFFFF;}
	.st4{fill:#EDBB1B;}
	.st5{fill:#F0B8D5;}
	.st6{fill:#913B8E;}
	.st7{opacity:0.29;fill:#BDE1EA;enable-background:new    ;}
	.st8{fill:#8062A7;}
</style>
<g>
	<path class="st0" d="M164.5,31c-0.7,2.2-9.1,30.8-9.1,30.8l-7.8,28.4L162.8,65c0,0,15-25.3,15.9-27.2c5.1-10.6,4.7-17.8,0.8-19.7
		C175.5,16.2,167.8,20.6,164.5,31z"/>
	<path class="st1" d="M173,41.2c-1,1.7-13.7,24.7-13.7,24.7l-12,23l17.9-18.8c0,0,17.6-18.9,18.8-20.3c6.4-8.1,7.4-14.4,4.4-16.8
		C185.3,30.6,177.8,32.9,173,41.2z"/>
	<path class="st0" d="M181.7,48.2c-1.4,1.5-18.9,21.1-18.9,21.1L145.9,89l21.7-14.4c0,0,21.4-14.5,22.9-15.7
		c8.1-6.5,10.5-12.4,8.1-15.4C196.1,40.6,188.3,41.1,181.7,48.2z"/>
	<path class="st0" d="M226.3,105.9c0,27-23.7,48.9-52.8,48.9c-29.2,0-52.8-21.9-52.8-48.9c0-7.9,2-13.9,3.1-16.5
		c7.4-18.4,28-32.7,49.7-32.4C198.7,57.4,226.3,77.3,226.3,105.9z"/>
	<path class="st2" d="M206.8,91l0.7-1.1l-3.7-1.6l-0.4-0.2c-0.3-0.1-0.6-0.3-0.9-0.4c-1.7-1-3.8-1.5-6-1.2c-4.6,0.5-8.3,4.2-8.8,8.8
		c-0.6,6.2,4.6,11.4,10.9,10.7c4.6-0.5,8.4-4.2,8.8-8.8c0.2-1.8-0.1-3.6-0.9-5.2c-0.1-0.3-0.1-0.6,0-0.8L206.8,91z"/>
	<path class="st3" d="M194.4,99.4c2.3,0,4.2-1.9,4.2-4.2s-1.9-4.2-4.2-4.2c-2.3,0-4.2,1.9-4.2,4.2S192.1,99.4,194.4,99.4z"/>
	<path class="st3" d="M200.7,102.3c0.8,0,1.4-0.6,1.4-1.4c0-0.8-0.6-1.4-1.4-1.4c-0.8,0-1.4,0.6-1.4,1.4
		C199.2,101.7,199.9,102.3,200.7,102.3z"/>
	<path class="st2" d="M140.9,91l-0.7-1.1l3.7-1.6l0.4-0.2c0.3-0.1,0.6-0.3,0.9-0.4c1.7-1,3.8-1.5,6-1.2c4.6,0.5,8.3,4.2,8.8,8.8
		c0.6,6.2-4.6,11.4-10.9,10.7c-4.6-0.5-8.4-4.2-8.8-8.8c-0.2-1.8,0.1-3.6,0.9-5.2c0.1-0.3,0.1-0.6,0-0.8L140.9,91z"/>
	<path class="st3" d="M153.2,99.4c2.3,0,4.2-1.9,4.2-4.2s-1.9-4.2-4.2-4.2c-2.3,0-4.2,1.9-4.2,4.2S150.9,99.4,153.2,99.4z"/>
	<path class="st3" d="M147,102.3c0.8,0,1.4-0.6,1.4-1.4c0-0.8-0.6-1.4-1.4-1.4c-0.8,0-1.4,0.6-1.4,1.4
		C145.5,101.7,146.2,102.3,147,102.3z"/>
	<path class="st4" d="M185.6,123.2c-0.7,6.2-5.9,11.1-12.1,11.1c-6.3,0-11.4-4.9-12.1-11.1H185.6z"/>
	<path class="st1" d="M189.8,119.6c0,1.2-0.7,2.3-1.8,3c-4.9,2.8-13.5,6.6-14.5,6.6c-1.1,0-9.6-3.8-14.5-6.6c-1.1-0.6-1.7-1.7-1.7-3
		c0,0,0,0,0,0c0-9.1,7.3-16.4,16.3-16.4C182.5,103.2,189.8,110.5,189.8,119.6z"/>
	<path class="st5" d="M141.8,118.1c5.5,0,10-1.4,10-3.1s-4.5-3.1-10-3.1c-5.5,0-10,1.4-10,3.1S136.3,118.1,141.8,118.1z"/>
	<path class="st5" d="M203.8,118.4c5.5,0,10-1.4,10-3.1c0-1.7-4.5-3.1-10-3.1c-5.5,0-10,1.4-10,3.1
		C193.8,117.1,198.3,118.4,203.8,118.4z"/>
	<path class="st6" d="M178.8,93.7c0,0.4-0.1,0.9-0.1,1.3v0.1c-1.2-1.1-2.9-1.8-4.9-1.8c-2,0-3.7,0.7-4.9,1.8v-0.1
		c0-0.5,0-0.9-0.1-1.3c1.4-0.9,3.1-1.4,5-1.4C175.7,92.3,177.4,92.9,178.8,93.7z"/>
	<path class="st6" d="M169,93.7c-0.7-10.4-9.4-18.6-20-18.6c-11.1,0-20.1,8.9-20.1,19.9c0,11,9,19.9,20.1,19.9s20-8.9,20.1-19.8
		v-0.1C169.1,94.6,169.1,94.2,169,93.7z M149,113.3c-10.2,0-18.4-8.2-18.4-18.3s8.2-18.3,18.4-18.3s18.4,8.2,18.4,18.3v0.1
		c0,1-0.1,2-0.3,2.9C165.7,106.8,158.1,113.3,149,113.3z"/>
	<path class="st7" d="M149,113.3c10.2,0,18.4-8.2,18.4-18.3c0-10.1-8.2-18.3-18.4-18.3s-18.4,8.2-18.4,18.3
		C130.6,105.2,138.8,113.3,149,113.3z"/>
	<path class="st6" d="M198.6,75.2c-10.6,0-19.3,8.2-20,18.6c0,0.4-0.1,0.9-0.1,1.3v0.1c0.1,10.9,9,19.8,20.1,19.8
		c11.1,0,20.1-8.9,20.1-19.9S209.7,75.2,198.6,75.2z M198.6,113.3c-9.1,0-16.7-6.6-18.1-15.2c-0.2-0.9-0.3-1.9-0.3-2.9v-0.1
		c0-10.1,8.2-18.3,18.4-18.3c10.2,0,18.4,8.2,18.4,18.3S208.8,113.3,198.6,113.3z"/>
	<path class="st7" d="M198.6,113.3c10.2,0,18.4-8.2,18.4-18.3c0-10.1-8.2-18.3-18.4-18.3s-18.4,8.2-18.4,18.3
		C180.2,105.2,188.5,113.3,198.6,113.3z"/>
</g>
<path class="st8" d="M96.6,103.8c-30.1-4-62.4,13.8-65.9,44.7c-3.6,32.1,28.3,61.8,60.5,61.9c22.7,0.1,31.5-19.7,53.7-24.4
	c41.2-8.8,65.8,24.4,106.5,35.6c33.5,9.1,68,2.2,89.5-32.5c28.9-46.5-21.4-119.4-76.1-117.8c-47.1,1.3-30.4,63.1-77.4,67
	C146,141.8,126.8,107.8,96.6,103.8z"/>
</svg>
