<?xml version="1.0" encoding="utf-8"?>
<!-- Generator: Adobe Illustrator 24.1.3, SVG Export Plug-In . SVG Version: 6.00 Build 0)  -->
<svg version="1.1" id="Layer_1" xmlns="http://www.w3.org/2000/svg" xmlns:xlink="http://www.w3.org/1999/xlink" x="0px" y="0px"
	 viewBox="0 0 326.9 213.1" style="enable-background:new 0 0 326.9 213.1;" xml:space="preserve">
<style type="text/css">
	.st0{fill:#7EBF73;}
	.st1{fill:#FFCF35;}
	.st2{fill:#3D3F3E;}
	.st3{fill:#FFFFFF;}
	.st4{fill:#EDBB1B;}
	.st5{fill:#F0B8D5;}
	.st6{fill:#913B8E;}
	.st7{opacity:0.29;fill:#BDE1EA;enable-background:new    ;}
	.st8{fill:#8062A7;}
	.st9{enable-background:new    ;}
	.st10{fill:#ECDFEF;}
</style>
<g>
	<path class="st0" d="M138.2,15.6c-0.7,2.2-9.1,30.8-9.1,30.8l-7.8,28.4l15.2-25.2c0,0,15-25.3,15.9-27.2
		c5.1-10.6,4.7-17.8,0.8-19.7C149.2,0.8,141.5,5.2,138.2,15.6z"/>
	<path class="st1" d="M146.7,25.8c-1,1.7-13.7,24.7-13.7,24.7l-12,23l17.9-18.8c0,0,17.6-18.9,18.8-20.3c6.4-8.1,7.4-14.4,4.4-16.8
		C159,15.2,151.5,17.5,146.7,25.8z"/>
	<path class="st0" d="M155.4,32.8c-1.4,1.5-18.9,21.1-18.9,21.1l-16.9,19.7l21.7-14.4c0,0,21.4-14.5,22.9-15.7
		c8.1-6.5,10.5-12.4,8.1-15.4C169.8,25.2,162,25.7,155.4,32.8z"/>
	<path class="st0" d="M200,90.5c0,27-23.7,48.9-52.8,48.9c-29.2,0-52.8-21.9-52.8-48.9c0-7.9,2-13.9,3.1-16.5
		c7.4-18.4,28-32.7,49.7-32.4C172.4,42,200,61.9,200,90.5z"/>
	<path class="st2" d="M180.5,75.6l0.7-1.1l-3.7-1.6l-0.4-0.2c-0.3-0.1-0.6-0.3-0.9-0.4c-1.7-1-3.8-1.5-6-1.2
		c-4.6,0.5-8.3,4.2-8.8,8.8c-0.6,6.2,4.6,11.4,10.9,10.7c4.6-0.5,8.4-4.2,8.8-8.8c0.2-1.8-0.1-3.6-0.9-5.2c-0.1-0.3-0.1-0.6,0-0.8
		L180.5,75.6z"/>
	<path class="st3" d="M168.1,84c2.3,0,4.2-1.9,4.2-4.2s-1.9-4.2-4.2-4.2s-4.2,1.9-4.2,4.2S165.8,84,168.1,84z"/>
	<path class="st3" d="M174.4,86.9c0.8,0,1.4-0.6,1.4-1.4s-0.6-1.4-1.4-1.4c-0.8,0-1.4,0.6-1.4,1.4C172.9,86.3,173.6,86.9,174.4,86.9
		z"/>
	<path class="st2" d="M114.6,75.6l-0.7-1.1l3.7-1.6l0.4-0.2c0.3-0.1,0.6-0.3,0.9-0.4c1.7-1,3.8-1.5,6-1.2c4.6,0.5,8.3,4.2,8.8,8.8
		c0.6,6.2-4.6,11.4-10.9,10.7c-4.6-0.5-8.4-4.2-8.8-8.8c-0.2-1.8,0.1-3.6,0.9-5.2c0.1-0.3,0.1-0.6,0-0.8L114.6,75.6z"/>
	<path class="st3" d="M126.9,84c2.3,0,4.2-1.9,4.2-4.2s-1.9-4.2-4.2-4.2s-4.2,1.9-4.2,4.2S124.6,84,126.9,84z"/>
	<path class="st3" d="M120.7,86.9c0.8,0,1.4-0.6,1.4-1.4s-0.6-1.4-1.4-1.4c-0.8,0-1.4,0.6-1.4,1.4C119.2,86.3,119.9,86.9,120.7,86.9
		z"/>
	<path class="st4" d="M159.3,107.8c-0.7,6.2-5.9,11.1-12.1,11.1c-6.3,0-11.4-4.9-12.1-11.1C135.1,107.8,159.3,107.8,159.3,107.8z"/>
	<path class="st1" d="M163.5,104.2c0,1.2-0.7,2.3-1.8,3c-4.9,2.8-13.5,6.6-14.5,6.6c-1.1,0-9.6-3.8-14.5-6.6c-1.1-0.6-1.7-1.7-1.7-3
		l0,0c0-9.1,7.3-16.4,16.3-16.4C156.2,87.8,163.5,95.1,163.5,104.2z"/>
	<path class="st5" d="M115.5,102.7c5.5,0,10-1.4,10-3.1s-4.5-3.1-10-3.1s-10,1.4-10,3.1S110,102.7,115.5,102.7z"/>
	<path class="st5" d="M177.5,103c5.5,0,10-1.4,10-3.1s-4.5-3.1-10-3.1s-10,1.4-10,3.1C167.5,101.7,172,103,177.5,103z"/>
	<path class="st6" d="M152.5,78.3c0,0.4-0.1,0.9-0.1,1.3v0.1c-1.2-1.1-2.9-1.8-4.9-1.8s-3.7,0.7-4.9,1.8v-0.1c0-0.5,0-0.9-0.1-1.3
		c1.4-0.9,3.1-1.4,5-1.4C149.4,76.9,151.1,77.5,152.5,78.3z"/>
	<path class="st6" d="M142.7,78.3c-0.7-10.4-9.4-18.6-20-18.6c-11.1,0-20.1,8.9-20.1,19.9s9,19.9,20.1,19.9s20-8.9,20.1-19.8v-0.1
		C142.8,79.2,142.8,78.8,142.7,78.3z M122.7,97.9c-10.2,0-18.4-8.2-18.4-18.3s8.2-18.3,18.4-18.3s18.4,8.2,18.4,18.3v0.1
		c0,1-0.1,2-0.3,2.9C139.4,91.4,131.8,97.9,122.7,97.9z"/>
	<path class="st7" d="M122.7,97.9c10.2,0,18.4-8.2,18.4-18.3s-8.2-18.3-18.4-18.3s-18.4,8.2-18.4,18.3
		C104.3,89.8,112.5,97.9,122.7,97.9z"/>
	<path class="st6" d="M172.3,59.8c-10.6,0-19.3,8.2-20,18.6c0,0.4-0.1,0.9-0.1,1.3v0.1c0.1,10.9,9,19.8,20.1,19.8
		s20.1-8.9,20.1-19.9S183.4,59.8,172.3,59.8z M172.3,97.9c-9.1,0-16.7-6.6-18.1-15.2c-0.2-0.9-0.3-1.9-0.3-2.9v-0.1
		c0-10.1,8.2-18.3,18.4-18.3s18.4,8.2,18.4,18.3S182.5,97.9,172.3,97.9z"/>
	<path class="st7" d="M172.3,97.9c10.2,0,18.4-8.2,18.4-18.3s-8.2-18.3-18.4-18.3s-18.4,8.2-18.4,18.3
		C153.9,89.8,162.2,97.9,172.3,97.9z"/>
</g>
<path class="st8" d="M70.3,88.4c-30.1-4-62.4,13.8-65.9,44.7c-3.6,32.1,28.3,61.8,60.5,61.9c22.7,0.1,31.5-19.7,53.7-24.4
	c41.2-8.8,65.8,24.4,106.5,35.6c33.5,9.1,68,2.2,89.5-32.5c28.9-46.5-21.4-119.4-76.1-117.8c-47.1,1.3-30.4,63.1-77.4,67
	C119.7,126.4,100.5,92.4,70.3,88.4z"/>
<g class="st9">
	<path class="st10" d="M83.1,132.6l2.2,0.4c0.4,0,1,0.3,1.9,1h0.1c0-0.9,0.1-1.3,0.2-1.3c0.7,0.2,1.1,0.4,1.2,0.4h0.7l0.5,0l0.1,0.1
		l0,0.2v4.3c0,0.2-0.1,0.4-0.2,0.6c0.2,0.2,0.3,0.3,0.3,0.5c0,0.2-0.1,0.3-0.2,0.6l0.1,0.6c0,0.3-0.1,0.4-0.2,0.4l-0.9-0.1h0
		l-0.5,0.1h-0.1c-0.1,0-0.2-0.5-0.4-1.4c0-0.3-0.1-0.6-0.4-0.8c-0.3-0.4-0.4-0.7-0.4-0.9l0.2-0.1v0c-0.3-0.3-0.5-0.6-0.6-0.9
		c-0.9-0.9-1.7-1.4-2.3-1.4h-0.2c-0.2,0-1.4,0.2-3.4,0.7c-0.2,0.1-0.5,0.6-0.9,1.3c-0.4,0.6-0.6,1.1-0.6,1.6
		c0.1,1.4,0.3,2.1,0.5,2.1c0.3,0.8,0.6,1.2,1,1.4c0.1,0.1,0.3,0.2,0.8,0.3c0.3,0.3,1,0.6,2,1.1c0,0.1,0.1,0.1,0.3,0.2l0.4-0.1
		c0.2,0,0.3,0.1,0.3,0.1v0l-0.1,0.1v0.1c0.3,0.4,0.7,0.6,1.1,0.6v0l-0.6-0.5v0c0.2,0,0.9,0.4,2.1,1.2c1.9,1.7,2.8,2.8,2.8,3.3
		c0.3,1.4,0.5,2.2,0.5,2.5c-0.2,1.7-0.4,2.5-0.6,2.5l-0.8,1.4c-1.5,0.9-2.4,1.4-2.7,1.4c-2.6-0.6-4.3-1-5.1-1.3
		c-1.7-1.6-2.6-2.6-2.6-2.9l-0.1-0.1l-0.1,0v0.2v1.9c0,0.2-0.4,0.2-1.2,0.2h-0.6l-0.5,0.2c-0.2,0-0.4-0.1-0.6-0.4v0l0.2-0.3
		c0.2-3.8,0.3-5.6,0.6-5.6h0.1l0.6,0.1c0.1,0,0.2,0,0.3-0.1l0.4,0.1l0.2-0.1h0.1c0.1,0,0.3,0.4,0.6,1c0.8,1.1,1.6,2.1,2.3,3.1
		c0.1,0,0.4,0.3,0.8,0.9l2.1,0.9h0.6v0.1h0.1l0.2-0.1h0.1c0.2,0.1,0.3,0.2,0.5,0.2h0.2c0.6,0,0.9-0.1,0.9-0.2v-0.1h-0.7l-0.4,0
		c0-0.1,0.8-0.3,2.4-0.5c0.4,0,0.7-0.6,1-1.9c0-0.4,0.1-0.7,0.3-0.9v-0.1c-0.4-1.2-0.8-2-1.3-2.3c-0.3-0.5-1.3-1-3-1.6
		c-1.2-0.4-2.1-1-2.8-1.6c-1.1-0.3-1.7-0.7-1.8-1c-0.1-0.3-0.6-0.8-1.5-1.4c-0.4-1.2-0.8-2.2-1.3-2.8c-0.2-1-0.4-2-0.4-3.1
		c0.2-0.7,1-1.8,2.4-3C80,132.9,81.3,132.6,83.1,132.6z M76.5,150.1h-0.1c-0.1,0.3-0.2,0.8-0.2,1.3l0.1,0.4h0c0.2,0,0.3-0.1,0.3-0.3
		C76.5,151,76.5,150.5,76.5,150.1z M76.3,152.6L76.3,152.6l0.1,0.1c0.1,0,0.1-0.2,0.2-0.7l-0.1-0.1
		C76.4,151.9,76.3,152.2,76.3,152.6z M77.2,151c-0.1,0.4-0.2,0.6-0.4,0.7l0.1,0.4v0.9v0.2c0,0.2,0,0.2,0.1,0.2h0.2l0.1-0.1v-0.1
		C77.4,151.8,77.3,151,77.2,151z M77.6,135.8l-0.1,0.1v0h0.2L77.6,135.8L77.6,135.8z M78.4,141.2v0.2l0.1,0.1h0.3v-0.1
		C78.6,141.2,78.5,141.2,78.4,141.2z M78.5,137.4L78.5,137.4L78.5,137.4c0.5-0.3,0.7-0.7,0.7-1l-0.1-0.1
		C78.8,136.3,78.6,136.7,78.5,137.4z M79,142.1L79,142.1l0,0.2c0.5,0.3,0.8,0.5,0.9,0.5h0.1v-0.1C79.8,142.4,79.4,142.2,79,142.1z
		 M79,151.9L79,151.9L79,151.9c0.1,0.4,0.2,0.6,0.5,0.6v-0.1C79.3,152.1,79.2,151.9,79,151.9z M79.1,136.1l0.2,0.2h0.1
		c0.3,0,0.5-0.2,0.7-0.4l-0.1-0.1h-0.4C79.4,135.8,79.2,135.9,79.1,136.1z M79.1,133.8h0.4c0.2,0,1-0.2,2.5-0.6
		c0.5-0.1,0.8-0.2,0.8-0.3l-0.1,0C80.3,133.1,79.1,133.4,79.1,133.8z M79.3,134.6L79.3,134.6c0,0.1,0,0.1,0.1,0.1
		c0.1,0,0.2-0.1,0.2-0.2v-0.1C79.5,134.4,79.3,134.5,79.3,134.6z M80.1,135.1L80.1,135.1c0.3,0,0.8-0.2,1.6-0.6l0.9-0.3v0l-0.1,0.2
		h0.3l0.2-0.1v-0.1L83,134v-0.2h-0.1c-0.9,0.3-1.6,0.5-2.2,0.8C80.3,134.7,80.1,134.9,80.1,135.1z M80.2,152.2L80.2,152.2
		L80.2,152.2c0.1,0.4,0.3,0.5,0.5,0.5v-0.1C80.5,152.4,80.3,152.3,80.2,152.2z M80.6,153.6l-0.2,0v0c0.2,0.5,0.8,0.9,1.7,1.1
		c0.7,0.3,1.8,0.5,3.1,0.8c0.3,0.2,0.5,0.3,0.7,0.3h0.3c0.6-0.2,0.8-0.4,0.8-0.6l-3-0.2C82.2,154.5,81.1,154,80.6,153.6z
		 M82.2,153.5L82.2,153.5c0,0.1,0.1,0.2,0.2,0.2C82.4,153.6,82.3,153.5,82.2,153.5z M83.2,143.2h-0.3c0,0.1,0.1,0.1,0.3,0.1h0.1v0
		L83.2,143.2z M83.6,143.7l-0.1,0.1c0.1,0.1,0.5,0.3,1.1,0.6v-0.1C84.2,144,83.9,143.8,83.6,143.7z M84.3,145.7h-0.2v0.2
		c0.3,0.1,0.6,0.2,1.1,0.2c0,0.1,0.1,0.1,0.2,0.1h0.3v0C85.7,146,85.3,145.8,84.3,145.7z M85.8,134.1h-0.6c0,0,0.3,0.2,1,0.3h0.2
		l0.1,0v-0.1C86.4,134.2,86.2,134.1,85.8,134.1z M85.5,155.4v-0.1h0.1c0.2,0,0.2,0,0.2,0.1h-0.1H85.5z M86.6,146.6h-0.1v0.1l0.1,0.1
		h0.1v-0.1L86.6,146.6z M86.5,154.6L86.5,154.6l0.1,0.1h0.2c0.8,0,1.3-0.1,1.3-0.3l-0.1-0.1h-0.2C87.5,154.3,87.1,154.4,86.5,154.6z
		 M86.9,134.8l0.2,0.2h0.2l0.1-0.1v-0.1c0-0.1-0.1-0.1-0.3-0.2C87,134.6,86.9,134.7,86.9,134.8z M88,133.4l0,0.1v0.1
		c0,0.1,0.1,0.2,0.3,0.2h0.6v0C88.6,133.5,88.3,133.4,88,133.4z M88.1,134.1l-0.1,0.1v0.1l0,0.2h0.1l0.1-0.1v-0.2L88.1,134.1
		L88.1,134.1z M88.6,136.8l-0.1,0.1v0l0.1,0.1h0.1l0.1-0.1v0l-0.1-0.1H88.6z M88.5,138.6v0.5l0.1,0.1h0c0.2,0,0.3-0.1,0.3-0.2
		c-0.1-0.3-0.2-0.5-0.2-0.7h-0.1C88.6,138.4,88.5,138.5,88.5,138.6z M88.6,135.3l0.1,0.1v0l-0.1,0.2v0.1c0,0,0.1,0.1,0.3,0.2
		c0,0.2,0.1,0.3,0.2,0.3h0.1V136l0-0.1v-0.1h0.1l0.2,0.1h0.1l0-0.2v-0.1c-0.2-0.6-0.3-0.9-0.3-0.9h-0.2
		C88.7,134.7,88.6,134.9,88.6,135.3z M88.6,137.7L88.6,137.7L88.6,137.7v0.2h0.1v-0.1L88.6,137.7z M88.7,139.7l-0.1,0.1l0.2,0.1h0.1
		l0-0.1L88.7,139.7L88.7,139.7z M88.9,152.7l-0.2,0.2l0.1,0.1H89l0.1-0.1v-0.1l-0.1-0.1H88.9z M89.1,136.7l-0.1,0.1h0.1V136.7z
		 M89.4,137.2l-0.1,0.1v0.2l0,0.2h0.1l0.1-0.6H89.4z M89.5,136.4h-0.2v0.1c0.1,0.1,0.1,0.2,0.2,0.2v-0.1L89.5,136.4z"/>
	<path class="st10" d="M102.8,138.9c0.9,0,2.1,0.4,3.4,1.2c1.1,0.8,1.7,1.4,1.7,1.7c0.9,1.9,1.3,3,1.3,3.4l0,0.3
		c-0.3,0.8-0.5,1.3-0.5,1.6l-0.2,0h-2.8c-0.3,0-0.6,0-1,0.1c-3.2-0.3-5.5-0.4-6.8-0.4h-0.7c-0.3,0.4-0.4,0.7-0.4,0.9
		c0.2,0.2,0.2,0.6,0.2,1.2c0,0.8,0.1,1.4,0.4,1.5l0,0.2v0l-0.2-0.1v0.1l0.3,0.3c0,0.3,0.2,0.7,0.6,1.1c0.7,1.3,1.5,2.1,2.4,2.4
		c0.7,0.2,1.6,0.4,2.5,0.4c0.2,0,0.5-0.1,1-0.4c0.4-0.1,1.3-0.8,2.5-2.2v-0.1c0,0-0.2-0.1-0.5-0.1l-0.1-0.2c0.5-1,1.1-1.6,1.8-1.9
		c0.2,0.2,0.6,0.5,1.2,0.9c0.5,0.8,1.2,1.7,2,2.7v0.1c-0.7,0.9-1.2,1.4-1.5,1.4h-0.1c0-0.5-0.3-0.8-0.9-0.8c-0.1,0-0.6,0.4-1.5,1.1
		c-0.5,0.4-1.4,0.8-2.6,1.1c-1.5,0.3-2.5,0.4-3.1,0.4l-1.9-0.7c-1.1,0-2.1-0.6-2.9-1.7c-0.4-0.4-0.7-0.9-0.9-1.4
		c0-0.2-0.2-1.1-0.7-2.8c-0.2-0.6-0.2-1.3-0.2-1.9v0c0-3,0.9-5.6,2.7-7.8c0.2-0.6,0.7-1,1.5-1.2c0.5-0.2,1.2-0.3,1.9-0.4
		C101,138.8,101.7,138.8,102.8,138.9z M95.2,147.4v0.1v0c0,0.1,0,0.2,0,0.5v0.1c0,0.4,0.1,0.8,0.3,1.1h0
		C95.6,148.2,95.5,147.6,95.2,147.4z M95.7,144.4c-0.2,0.2-0.3,0.6-0.5,1.3h0.1c0.1,0,0.3-0.4,0.6-1.2
		C95.9,144.4,95.8,144.4,95.7,144.4z M95.4,146.1h-0.2v0.2c0,0.1,0,0.2,0.1,0.2c0.1,0,0.2-0.1,0.2-0.3L95.4,146.1z M95.8,150.3h-0.1
		v0.1l0.1,0.1h0.1L95.8,150.3L95.8,150.3z M96.1,150.9L96.1,150.9l0,0.1c0.1,0.4,0.2,0.5,0.4,0.5v0v-0.1
		C96.4,151.3,96.3,151.1,96.1,150.9z M97,146.5L97,146.5L97,146.5l0.6,0v-0.1l-0.1-0.1h-0.1C97.2,146.2,97.1,146.3,97,146.5z
		 M97.1,142.3l-0.1,0.1v0h0.1l0.1-0.1v0H97.1z M97.1,144.6v0.1l0.1,0.1h0.1c0.2-0.1,0.3-0.2,0.4-0.4v-0.1h-0.2
		C97.3,144.3,97.2,144.4,97.1,144.6z M97.4,143.7v0.1c0,0.2,2,0.5,6.1,0.8l0.3,0.1l0.4,0c0.9,0.3,1.5,0.4,1.8,0.4
		c0,0.1,0.1,0.1,0.2,0.2c0.1-0.2,0.2-0.4,0.2-0.6v-0.6c0-0.3-0.6-0.9-1.7-1.9c-0.5-0.5-1.1-0.8-1.7-0.9l-1.1-0.2
		c-1.9,0.4-3.1,0.8-3.7,1.4C98,142.9,97.7,143.3,97.4,143.7z M97.4,143.2c0.1,0,0.2-0.1,0.2-0.3v0C97.5,142.9,97.4,143,97.4,143.2z
		 M97.6,154.7h-0.1v0.1c0,0.1,0.2,0.2,0.6,0.4l0.1,0.1C98,154.9,97.8,154.7,97.6,154.7z M97.8,141.7L97.8,141.7L97.8,141.7
		c0.4,0,0.5-0.1,0.5-0.2v0h-0.2C98,141.5,97.9,141.6,97.8,141.7z M98.1,146.2l-0.2,0v0.2h0.2v-0.1V146.2L98.1,146.2z M98.3,140.1
		L98.3,140.1l0.1,0.1h0c0.4-0.1,0.7-0.2,0.7-0.3v-0.2l-0.1-0.1h-0.1C98.5,139.7,98.3,139.9,98.3,140.1z M98.8,145.9L98.8,145.9
		c0.4,0.2,1.6,0.3,3.6,0.4v0v0l-0.7,0.1c0,0.1,0.3,0.1,0.9,0.1c0.9,0,1.4,0,1.4-0.1C103.9,146.2,102.2,146,98.8,145.9z M99.1,144.8
		v0.1c0.4,0.3,1.2,0.4,2.3,0.4h0.3l0.4,0v-0.1C101.2,144.9,100.2,144.8,99.1,144.8z M99.2,141.5c0.2-0.2,0.7-0.4,1.3-0.6v-0.1l0-0.1
		h-0.3C99.5,141,99.2,141.2,99.2,141.5z M99.7,139.6L99.7,139.6L99.7,139.6c0.4,0,1.1-0.1,2.1-0.3c0.2,0,0.3-0.1,0.3-0.2L102,139h0
		C101.3,139,100.6,139.2,99.7,139.6L99.7,139.6z M100,154.8L100,154.8L100,154.8c0,0.1,0.2,0.2,0.7,0.3l0,0V155
		C100.4,154.9,100.2,154.8,100,154.8z M101.1,140.3L101.1,140.3c0,0.1,0.5,0.2,1.4,0.4l0.1,0v-0.1c-0.2-0.2-0.5-0.4-0.9-0.4h-0.1
		C101.3,140.2,101.1,140.2,101.1,140.3z M102,155.2h-0.1v0.1h0.1V155.2z M103.1,156l-0.7-0.1h-0.1c-0.2,0-0.3,0-0.3,0.1v0.1l0.1,0.1
		h0.6c0.7,0,1.5-0.1,2.4-0.4c0-0.1-0.2-0.2-0.4-0.2h-0.2C104,155.7,103.5,155.8,103.1,156z M103.5,139.8h-1v0.1
		c0,0.1,0.5,0.2,1.4,0.2h0v-0.1C103.9,139.9,103.8,139.9,103.5,139.8z M103.2,140.5L103.2,140.5c1.3,0.8,2,1.1,2,1.1h0l0.3-0.1
		l0.2,0.1l0-0.1v0c-0.1-0.1-0.3-0.1-0.6-0.2l-0.7-0.3c-0.2-0.4-0.5-0.6-1.1-0.6h-0.1C103.2,140.4,103.2,140.5,103.2,140.5z
		 M105.2,145.6h-0.1v0.1h0.1V145.6z M105.2,146.5c0,0.1,0.2,0.1,0.6,0.1l0.3,0v-0.1c0-0.1-0.2-0.1-0.6-0.1
		C105.3,146.5,105.2,146.5,105.2,146.5z M105.2,154.2L105.2,154.2c0.2-0.1,0.3-0.2,0.4-0.3l0,0C105.3,154,105.2,154.1,105.2,154.2z
		 M105.4,155.7c0.2,0,0.4-0.2,0.5-0.5h-0.1C105.6,155.3,105.4,155.5,105.4,155.7z M105.8,142.2c0,0.2,0.1,0.3,0.3,0.3h0.1l0.1-0.1
		v-0.2l-0.1-0.2C105.9,142,105.8,142,105.8,142.2z M106.2,153.1L106.2,153.1l0.1,0c0.2,0,0.4-0.1,0.5-0.4v-0.1
		C106.5,152.7,106.4,152.8,106.2,153.1z M106.6,142.6h-0.1c0.2,0.7,0.4,1.1,0.5,1.2h0.1l0.1-0.1C107.1,143,106.9,142.7,106.6,142.6
		L106.6,142.6z M107,151.2l0.1,0.1h0.2c0.1,0,0.2,0,0.2-0.1l-0.1-0.1h0C107.1,151,107,151.1,107,151.2z M107.2,154.4h0.1
		c0.2-0.2,0.3-0.3,0.3-0.4h0C107.3,154,107.2,154.2,107.2,154.4z M107.8,144.1l-0.1,0.1v0.2l0.1,0.1c0.1,0,0.1-0.1,0.1-0.2v-0.1
		l0-0.1H107.8z M107.8,153.4l0.1,0.1c0.3-0.1,0.5-0.3,0.5-0.4V153h0C108.1,153,107.9,153.2,107.8,153.4z M108.6,153.1L108.6,153.1
		l0.1,0c0.1-0.1,0.2-0.2,0.2-0.4h-0.1C108.6,152.8,108.6,152.9,108.6,153.1z M109.7,152.7L109.7,152.7L109.7,152.7
		c0,0.3,0.1,0.5,0.3,0.5h0l0.1-0.1v0C110.1,152.9,109.9,152.7,109.7,152.7z"/>
	<path class="st10" d="M123.5,138.9c0.9,0,2.1,0.4,3.4,1.2c1.1,0.8,1.7,1.4,1.7,1.7c0.9,1.9,1.3,3,1.3,3.4l0,0.3
		c-0.3,0.8-0.5,1.3-0.5,1.6l-0.2,0h-2.8c-0.3,0-0.6,0-1,0.1c-3.2-0.3-5.5-0.4-6.8-0.4H118c-0.3,0.4-0.4,0.7-0.4,0.9
		c0.2,0.2,0.2,0.6,0.2,1.2c0,0.8,0.1,1.4,0.4,1.5l0,0.2v0l-0.2-0.1v0.1l0.3,0.3c0,0.3,0.2,0.7,0.6,1.1c0.7,1.3,1.5,2.1,2.4,2.4
		c0.7,0.2,1.6,0.4,2.5,0.4c0.2,0,0.5-0.1,1-0.4c0.4-0.1,1.3-0.8,2.5-2.2v-0.1c0,0-0.2-0.1-0.5-0.1l-0.1-0.2c0.5-1,1.1-1.6,1.8-1.9
		c0.2,0.2,0.6,0.5,1.2,0.9c0.5,0.8,1.2,1.7,2,2.7v0.1c-0.7,0.9-1.2,1.4-1.5,1.4h-0.1c0-0.5-0.3-0.8-0.9-0.8c-0.1,0-0.6,0.4-1.5,1.1
		c-0.5,0.4-1.4,0.8-2.6,1.1c-1.5,0.3-2.5,0.4-3.1,0.4l-1.9-0.7c-1.1,0-2.1-0.6-2.9-1.7c-0.4-0.4-0.7-0.9-0.9-1.4
		c0-0.2-0.2-1.1-0.7-2.8c-0.2-0.6-0.2-1.3-0.2-1.9v0c0-3,0.9-5.6,2.7-7.8c0.2-0.6,0.7-1,1.5-1.2c0.5-0.2,1.2-0.3,1.9-0.4
		C121.8,138.8,122.4,138.8,123.5,138.9z M116,147.4v0.1v0c0,0.1,0,0.2,0,0.5v0.1c0,0.4,0.1,0.8,0.3,1.1h0
		C116.3,148.2,116.2,147.6,116,147.4z M116.5,144.4c-0.2,0.2-0.3,0.6-0.5,1.3h0.1c0.1,0,0.3-0.4,0.6-1.2
		C116.6,144.4,116.5,144.4,116.5,144.4z M116.2,146.1H116v0.2c0,0.1,0,0.2,0.1,0.2c0.1,0,0.2-0.1,0.2-0.3L116.2,146.1z M116.6,150.3
		h-0.1v0.1l0.1,0.1h0.1L116.6,150.3L116.6,150.3z M116.8,150.9L116.8,150.9l0,0.1c0.1,0.4,0.2,0.5,0.4,0.5v0v-0.1
		C117.2,151.3,117.1,151.1,116.8,150.9z M117.8,146.5L117.8,146.5L117.8,146.5l0.6,0v-0.1l-0.1-0.1h-0.1
		C118,146.2,117.9,146.3,117.8,146.5z M117.9,142.3l-0.1,0.1v0h0.1l0.1-0.1v0H117.9z M117.8,144.6v0.1l0.1,0.1h0.1
		c0.2-0.1,0.3-0.2,0.4-0.4v-0.1h-0.2C118.1,144.3,117.9,144.4,117.8,144.6z M118.2,143.7v0.1c0,0.2,2,0.5,6.1,0.8l0.3,0.1l0.4,0
		c0.9,0.3,1.5,0.4,1.8,0.4c0,0.1,0.1,0.1,0.2,0.2c0.1-0.2,0.2-0.4,0.2-0.6v-0.6c0-0.3-0.6-0.9-1.7-1.9c-0.5-0.5-1.1-0.8-1.7-0.9
		l-1.1-0.2c-1.9,0.4-3.1,0.8-3.7,1.4C118.8,142.9,118.5,143.3,118.2,143.7z M118.2,143.2c0.1,0,0.2-0.1,0.2-0.3v0
		C118.3,142.9,118.2,143,118.2,143.2z M118.4,154.7h-0.1v0.1c0,0.1,0.2,0.2,0.6,0.4l0.1,0.1C118.8,154.9,118.6,154.7,118.4,154.7z
		 M118.5,141.7L118.5,141.7L118.5,141.7c0.4,0,0.5-0.1,0.5-0.2v0h-0.2C118.8,141.5,118.6,141.6,118.5,141.7z M118.9,146.2l-0.2,0
		v0.2h0.2v-0.1V146.2L118.9,146.2z M119.1,140.1L119.1,140.1l0.1,0.1h0c0.4-0.1,0.7-0.2,0.7-0.3v-0.2l-0.1-0.1h-0.1
		C119.3,139.7,119.1,139.9,119.1,140.1z M119.5,145.9L119.5,145.9c0.4,0.2,1.6,0.3,3.6,0.4v0v0l-0.7,0.1c0,0.1,0.3,0.1,0.9,0.1
		c0.9,0,1.4,0,1.4-0.1C124.7,146.2,123,146,119.5,145.9z M119.9,144.8v0.1c0.4,0.3,1.2,0.4,2.3,0.4h0.3l0.4,0v-0.1
		C122,144.9,121,144.8,119.9,144.8z M119.9,141.5c0.2-0.2,0.7-0.4,1.3-0.6v-0.1l0-0.1h-0.3C120.3,141,119.9,141.2,119.9,141.5z
		 M120.4,139.6L120.4,139.6L120.4,139.6c0.4,0,1.1-0.1,2.1-0.3c0.2,0,0.3-0.1,0.3-0.2l-0.1-0.1h0C122,139,121.3,139.2,120.4,139.6
		L120.4,139.6z M120.7,154.8L120.7,154.8L120.7,154.8c0,0.1,0.2,0.2,0.7,0.3l0,0V155C121.2,154.9,120.9,154.8,120.7,154.8z
		 M121.9,140.3L121.9,140.3c0,0.1,0.5,0.2,1.4,0.4l0.1,0v-0.1c-0.2-0.2-0.5-0.4-0.9-0.4h-0.1C122,140.2,121.9,140.2,121.9,140.3z
		 M122.7,155.2h-0.1v0.1h0.1V155.2z M123.9,156l-0.7-0.1H123c-0.2,0-0.3,0-0.3,0.1v0.1l0.1,0.1h0.6c0.7,0,1.5-0.1,2.4-0.4
		c0-0.1-0.2-0.2-0.4-0.2h-0.2C124.8,155.7,124.3,155.8,123.9,156z M124.3,139.8h-1v0.1c0,0.1,0.5,0.2,1.4,0.2h0v-0.1
		C124.7,139.9,124.5,139.9,124.3,139.8z M123.9,140.5L123.9,140.5c1.3,0.8,2,1.1,2,1.1h0l0.3-0.1l0.2,0.1l0-0.1v0
		c-0.1-0.1-0.3-0.1-0.6-0.2l-0.7-0.3c-0.2-0.4-0.5-0.6-1.1-0.6h-0.1C124,140.4,123.9,140.5,123.9,140.5z M126,145.6h-0.1v0.1h0.1
		V145.6z M125.9,146.5c0,0.1,0.2,0.1,0.6,0.1l0.3,0v-0.1c0-0.1-0.2-0.1-0.6-0.1C126,146.5,125.9,146.5,125.9,146.5z M125.9,154.2
		L125.9,154.2c0.2-0.1,0.3-0.2,0.4-0.3l0,0C126,154,125.9,154.1,125.9,154.2z M126.2,155.7c0.2,0,0.4-0.2,0.5-0.5h-0.1
		C126.4,155.3,126.2,155.5,126.2,155.7z M126.5,142.2c0,0.2,0.1,0.3,0.3,0.3h0.1l0.1-0.1v-0.2l-0.1-0.2
		C126.6,142,126.5,142,126.5,142.2z M127,153.1L127,153.1l0.1,0c0.2,0,0.4-0.1,0.5-0.4v-0.1C127.3,152.7,127.1,152.8,127,153.1z
		 M127.4,142.6h-0.1c0.2,0.7,0.4,1.1,0.5,1.2h0.1l0.1-0.1C127.8,143,127.6,142.7,127.4,142.6L127.4,142.6z M127.7,151.2l0.1,0.1h0.2
		c0.1,0,0.2,0,0.2-0.1l-0.1-0.1h0C127.9,151,127.8,151.1,127.7,151.2z M127.9,154.4h0.1c0.2-0.2,0.3-0.3,0.3-0.4h0
		C128.1,154,127.9,154.2,127.9,154.4z M128.5,144.1l-0.1,0.1v0.2l0.1,0.1c0.1,0,0.1-0.1,0.1-0.2v-0.1l0-0.1H128.5z M128.6,153.4
		l0.1,0.1c0.3-0.1,0.5-0.3,0.5-0.4V153h0C128.8,153,128.6,153.2,128.6,153.4z M129.3,153.1L129.3,153.1l0.1,0
		c0.1-0.1,0.2-0.2,0.2-0.4h-0.1C129.4,152.8,129.3,152.9,129.3,153.1z M130.5,152.7L130.5,152.7L130.5,152.7c0,0.3,0.1,0.5,0.3,0.5
		h0l0.1-0.1v0C130.8,152.9,130.7,152.7,130.5,152.7z"/>
	<path class="st10" d="M149.1,130.4l1.5,0c0.9,0.2,1.4,0.3,1.4,0.4c0,0,0.1,0.3,0.1,1c0.2,0.3,0.4,0.5,0.4,0.6
		c-0.1,1.1-0.2,3.3-0.3,6.6c0,0-0.1,0.1-0.1,0.3c-0.2,0.1-0.3,0.2-0.3,0.4v0.5c0,0.4-0.1,1-0.3,1.5l0,0.5c0,0.1,0.1,0.2,0.4,0.2v0.2
		c-0.3,2.8-0.5,4.7-0.5,5.6c0,1-0.1,1.5-0.2,1.5v0.1c0.1,0,0.2,0.1,0.2,0.4l0,0.2v0.1c0,0.4-0.1,1.5-0.4,3.1v0.8
		c1.1,0.2,1.7,0.6,1.7,1l-0.2,0.2v0.3l0.2,0.3c-0.2,0.5-0.8,0.7-1.9,0.7h-0.2l-0.2-0.3h-0.4l-0.9,0.2l-1.3,0c-0.1,0-0.2-0.6-0.3-1.7
		l0.1-1.1c-0.3,0-0.7,0.2-1.4,0.7c-1.9,1-3.5,1.6-4.9,1.7c-1.3-0.3-2.5-1-3.5-1.9c-0.3-0.3-0.7-0.9-1-1.6c-0.4-0.6-0.6-0.9-0.6-1
		v-0.1h0.1c0.2,0.1,0.4,0.5,0.9,1.1l0.2,0l0,0v-0.4c0-0.4-0.2-1-0.7-1.6h-0.2c-0.1,0-0.2,0.2-0.2,0.6h-0.1l-0.1-0.2
		c0-0.9,0.1-1.4,0.1-1.7h0.2l0,0.3h0.1c0.1,0,0.2-0.2,0.2-0.3v-0.6l-0.1-0.1c-0.1,0-0.1,0.1-0.1,0.3l-0.2,0.2c0,0-0.1-0.1-0.1-0.2
		c0-1.7,0.5-3.5,1.6-5.4c0.5-0.9,1-1.6,1.5-2.1c0.7-0.6,1.8-1,3.4-1h0.3c2.4,0,4.3,0.6,5.8,1.8l0.2,0.1h0.1c0.2-1,0.4-3.5,0.6-7.5
		c0.1-0.2,0.2-0.3,0.3-0.3c-0.7-0.5-1.2-0.7-1.5-0.7c-0.2,0-0.3-0.8-0.4-2.3c0,0,0.2-0.1,0.5-0.1v-0.1c0-0.1-0.1-0.1-0.3-0.1
		c-0.1-0.1-0.2-0.1-0.2-0.2c0-0.2,0.3-0.3,0.8-0.3v-0.1l-0.1-0.1v-0.1L149.1,130.4z M137.6,148.2c0,0.1,0,0.1,0.1,0.1
		c0.2,0,0.3-0.2,0.3-0.7v-0.2h-0.1C137.8,147.4,137.7,147.7,137.6,148.2z M137.9,145.2v0.1h0.1c0.1,0,0.3-0.3,0.4-0.8
		c0.7-0.9,1.1-1.4,1.3-1.4l0.1-0.2h-0.2c-0.1,0-0.5,0.2-1.1,0.7C138.2,144.2,138,144.7,137.9,145.2z M138.2,153.7H138v0.1
		c0,0.1,0.4,0.2,1.1,0.3v-0.1C138.6,153.9,138.3,153.7,138.2,153.7z M138.1,149.9v0.5c0,0.3,0.4,1.2,1.3,2.7c0.6,0.3,1.3,0.5,2,0.5
		c1.5,0,3-0.4,4.5-1.1c0.6-0.9,1.1-1.4,1.6-1.4c0.2-0.2,0.5-1.1,0.8-2.5c0.2-0.4,0.3-0.8,0.3-1.2V147c0-0.9-0.1-1.4-0.4-1.4
		c-0.5-0.5-0.8-0.7-0.8-0.8l0.1-0.2c0-0.1-0.3-0.2-1-0.4l-0.2-0.1l0-0.1h0.5v0c0-0.2-1.2-0.3-3.7-0.4l-0.5-0.1
		c-1.8,0.2-2.7,0.4-2.7,0.7c-0.8,1-1.4,2.2-1.6,3.6C138.2,148.6,138.1,149.3,138.1,149.9z M139,154.3l-0.1,0.1c0,0.2,0.7,0.5,2,0.7
		h0.2l0.1-0.1v0c0-0.2-0.6-0.5-1.9-0.7H139z M139.4,142.4v0.1l0.1,0h0.1c0.8-0.2,1.2-0.4,1.2-0.7c0-0.1-0.1-0.1-0.3-0.1h-0.2
		C139.9,141.8,139.6,142,139.4,142.4z M141,155.7v0.1l0,0.1h0.4c0.4,0,0.9-0.1,1.6-0.2v-0.1l-1-0.1C141.3,155.5,141,155.6,141,155.7
		z M141.7,141.4l-0.1,0.1v0.2l0.1,0.1h0.2l0.2-0.1v-0.1l-0.1-0.1H141.7z M141.7,143.1l-0.1,0.1h0.3l0.1-0.1v0H141.7z M142.4,154v0.1
		h0.4c1.5-0.1,2.3-0.3,2.4-0.6v-0.1h-0.1C143.4,153.6,142.5,153.8,142.4,154z M142.8,142.9L142.8,142.9v0.1h0.1l0.1-0.1v0H142.8z
		 M143.2,154.7L143.2,154.7l0.1,0.1h0.2c0.7,0,1.1-0.1,1.1-0.2l-0.1-0.1h-0.6C143.4,154.6,143.2,154.6,143.2,154.7z M143.4,143.3
		L143.4,143.3l0.1,0l0.7-0.1v-0.1l-0.2,0C143.6,143.1,143.4,143.2,143.4,143.3z M143.6,141.8l0.1,0.1h1.5v-0.1
		c-0.1-0.1-0.5-0.2-1.1-0.2h-0.3C143.7,141.5,143.6,141.6,143.6,141.8z M145.2,143.1l-0.1,0.1l0.1,0.1h0.2l0.1-0.1
		C145.4,143.1,145.4,143.1,145.2,143.1L145.2,143.1z M145.7,153.5v0.1h0c0.2-0.1,0.4-0.2,0.5-0.4v-0.1l-0.1-0.1h-0.1
		C146,153.1,145.9,153.3,145.7,153.5z M146.6,142.1l-0.5,0h-0.1v0.1c0.5,0.2,0.9,0.3,1,0.3h0C147.1,142.3,146.9,142.2,146.6,142.1z
		 M146.7,143.1h-0.1l0.1,0.1V143.1L146.7,143.1z M147.5,143.3h-0.4c0,0.1,0.3,0.2,1,0.4h0v-0.1C147.9,143.4,147.7,143.3,147.5,143.3
		z M147.9,144.6l-0.1,0.1v0.3l0.2,0.2h0.1c0.1,0,0.1-0.1,0.1-0.3C148.2,144.7,148.1,144.6,147.9,144.6L147.9,144.6z M148.2,153.2
		v0.2c0.1,0,0.2,0.1,0.2,0.3h0.1l0.2-0.2v-0.3c-0.1-0.1-0.1-0.2-0.1-0.3h-0.1C148.3,153,148.2,153.1,148.2,153.2z M148.4,154.4
		l-0.2,0.1v0.1h0.1L148.4,154.4L148.4,154.4L148.4,154.4z M149.1,132.7l-0.1,0.1v0.1l0.2,0.1c0.1,0,0.2,0,0.2-0.1l-0.1-0.1H149.1z
		 M149.1,131.9l0,0.1v0h0.4v0l-0.1-0.1H149.1z M149.8,142.3h-0.1c0,0.2,0,0.3,0.1,0.3l0,0v-0.1L149.8,142.3z M150,132.8l0.1,0.1
		c0.5,0,0.8-0.1,0.8-0.2l-0.1-0.1h-0.4C150.2,132.6,150,132.7,150,132.8z M150,153.4L150,153.4l-0.1,0.3v0.4l0.1,0.1h0.1l0.1-0.1
		v-0.3C150.2,153.6,150.1,153.5,150,153.4z M150.3,154.7h-0.2v0.1l0.1,0.1h0.2v-0.1L150.3,154.7z M150.8,155.7
		c0,0.1,0.1,0.1,0.3,0.1h0.7l0.2-0.1v-0.1c0-0.1-0.1-0.1-0.4-0.2C151.1,155.6,150.8,155.6,150.8,155.7z M151,132.2l-0.1,0.1v0h0.5
		v-0.1l-0.2,0H151z M151.7,141.7v-0.2h0.2v0.2H151.7z"/>
	<path class="st10" d="M158.2,134.5l0.4,0.1c1.1-0.1,3.8-0.1,7.9-0.1l1.6,0.5c1,0.1,1.7,0.3,2.1,0.6c1.7,1.5,2.5,2.7,2.5,3.8
		c-0.1,0.6-0.3,1.5-0.7,2.7c-0.8,0.8-1.5,1.5-2.2,2c0,0.2,0.2,0.4,0.6,0.5c0.2,0.2,0.6,0.3,1.1,0.5c0.3,0.3,0.7,0.8,1.3,1.6
		c0.8,0.8,1.3,1.8,1.4,2.9l0,0.4c0,0.2-0.1,0.3-0.2,0.3v0c0,0.1,0.1,0.4,0.4,0.9v0.3c0,0.2-0.2,0.6-0.5,1.3c0,0.3-0.2,0.5-0.7,0.6
		c-0.3,0-0.6,0.2-0.9,0.6v0.1c0,0,0.1,0.1,0.3,0.1v0c0,0.1-0.1,0.2-0.2,0.2c0-0.1,0-0.2-0.1-0.2c0,0-0.1,0.1-0.1,0.3
		c-0.4,0-0.9,0.2-1.4,0.5v0.1h0.1c0.1,0,0.5-0.1,1-0.3v0c-0.3,0.3-1,0.6-2,0.8c-1.4,0.6-4.3,1-8.6,1v-0.1l0-0.2c-1,0-2,0.2-2.8,0.6
		c-0.4,0-0.5-0.6-0.5-1.8c0-0.2,0.7-0.5,2-0.8c1-0.1,1.5-0.2,1.5-0.3v0c-0.1,0-0.3-0.9-0.5-2.8c0-0.7-0.1-1.2-0.2-1.5
		c0-0.2,0.1-0.6,0.3-1c0-1.6-0.2-2.4-0.4-2.4c-0.1,0-0.2-1.8-0.3-5.5v-3.4c-0.5-0.2-0.8-0.3-1-0.3h-0.2c-0.2,0-0.3,0.1-0.3,0.2v0.1
		l0,0.3c0,0-0.2,0.4-0.5,1.1v0.1l-0.5,0c-0.1-0.1-0.3-0.2-0.6-0.2c-0.2,0-0.3-0.7-0.4-2c-0.1-0.4-0.2-0.8-0.4-1.3
		c0.3-0.5,0.7-0.7,1.1-0.7C157.2,134.6,157.5,134.6,158.2,134.5z M159.1,155.9l-0.1,0c0,0.1,0.1,0.2,0.3,0.2l0.1-0.2l-0.1,0H159.1z
		 M159.8,135.5l0.9,0.3h0.1c0.1,0,0.2-0.1,0.3-0.2c0-0.1-0.3-0.2-0.8-0.2C160,135.4,159.8,135.4,159.8,135.5z M160.4,140.4l-0.1,0.1
		v0.3l0.1,0.1h0l0.1-0.1v-0.1C160.5,140.5,160.5,140.4,160.4,140.4z M160.6,155.4h-0.2v0.2h0.2h0.2h0.2v-0.2h-0.2H160.6z
		 M161.5,154.2h-0.2v0c0,0.1,0.1,0.1,0.2,0.1L161.5,154.2L161.5,154.2z M161.3,135.6L161.3,135.6l1,0c0.8,0,1.3-0.1,1.3-0.3v0
		c0,0-0.1-0.1-0.2-0.1C162.1,135.3,161.4,135.4,161.3,135.6z M161.9,136.6L161.9,136.6l0.1,0.2h0.1c1.1-0.1,1.8-0.2,1.8-0.4
		l-0.1-0.1C162.6,136.4,161.9,136.5,161.9,136.6z M162.2,137.5c0.2,4.8,0.3,7.2,0.5,7.2l0.1,0.1h0l3-0.7c1.3-0.2,2-0.4,2-0.5
		c1.6-1.3,2.4-2.1,2.4-2.6v-0.2c-0.2-1.3-0.4-2-0.4-2.1c0-0.6-0.4-1.1-1.2-1.6c-0.3-0.1-0.8-0.1-1.6-0.1
		C163.8,137,162.2,137.3,162.2,137.5z M162.5,146.9l-0.1,0.2l0,0.7c0.1,3.8,0.3,6,0.5,6.5c0.1,0.4,0.4,0.6,0.8,0.6l3,0.1
		c1.2-0.1,2.7-0.6,4.4-1.5c0.8-0.8,1.3-1.4,1.3-1.7c0.1,0,0.1-0.1,0.2-0.3v-0.1c0-1-0.3-2.1-0.9-3.2c-0.6-0.7-1.1-1-1.5-1h-0.3
		c-0.1,0-0.2-0.1-0.2-0.1c0-0.1,0.1-0.1,0.2-0.1v-0.1c-0.2-0.2-0.4-0.3-0.7-0.3h0v0l0.2,0.2v0.1h-0.1c-1-0.3-1.9-0.5-2.5-0.5h-0.2
		C165,146.3,163.7,146.5,162.5,146.9z M162.6,146.4L162.6,146.4l0.1,0.1c0.6-0.1,0.8-0.2,0.8-0.3h-0.1
		C163.2,146.2,162.9,146.3,162.6,146.4z M163.7,155.7L163.7,155.7l0.1,0.1L163.7,155.7z M164.3,146h-0.1v0.1L164.3,146L164.3,146z
		 M164.5,135.4h-0.2v0.1h0.2V135.4z M164.5,144.9h0.1v0c1.4-0.1,2.1-0.2,2.1-0.4v0h-0.2C165.3,144.6,164.6,144.7,164.5,144.9z
		 M164.7,146.1c0,0,0,0.1,0.1,0.1c0.6,0,1.2-0.1,1.9-0.3l1.2,0h0.4l0.2,0v-0.1c0-0.1-0.3-0.2-1-0.2h-0.6
		C165.7,145.6,165,145.8,164.7,146.1z M168.1,144.9L168.1,144.9L168.1,144.9c0.5,0.1,1.1,0.2,1.8,0.4c0.1,0,0.1,0,0.1-0.1
		c-0.1-0.3-0.4-0.5-0.9-0.5h-0.4C168.3,144.7,168.1,144.7,168.1,144.9z M169.4,143.4l-0.1,0.1h0.1L169.4,143.4L169.4,143.4
		L169.4,143.4z M169.4,146L169.4,146l-0.1,0.1h0.1V146z M169.9,137.2h-0.3v0.1c0.4,0.4,0.6,0.9,0.6,1.5c0.2,0.6,0.3,1,0.4,1.1h0.1
		v-0.3C170.5,138,170.2,137.2,169.9,137.2z M169.9,136.2l-0.1,0.1v0l0.1,0.2h0.2l0.1-0.1v0l-0.1-0.2H169.9z M170.1,154.8v0.1h0.1
		c0.2,0,0.3-0.1,0.4-0.3v-0.1C170.3,154.6,170.1,154.7,170.1,154.8z M170.5,145.4L170.5,145.4c0.3,0.3,0.5,0.5,0.7,0.5v0
		C171.2,145.6,171,145.5,170.5,145.4z M171,154.4L171,154.4l0.1,0.1c0.3,0,0.5-0.2,0.7-0.5v0h0C171.2,154.1,171,154.3,171,154.4z
		 M171.2,138.7l-0.1,0.1l0,0.1h0.1l0.2-0.2l-0.1-0.1H171.2z M171.4,139.5l-0.1-0.1l0,0v0.2l0.1,0.1l0.1,0V139.5z M171.4,146.5
		l-0.1,0.1c0.1,0.3,0.4,0.7,0.8,1h0.1v-0.1C172.2,147.2,171.9,146.9,171.4,146.5L171.4,146.5z M171.8,137.9h-0.1v0.1l0.2,0.1h0.1
		V138L171.8,137.9z"/>
	<path class="st10" d="M187.2,139.8l0.9,0.3h0.3c1.3,0.6,2.5,1.4,3.6,2.2c1.1,1,1.7,1.7,1.7,2.2h-0.1c-0.2-0.3-0.4-0.5-0.5-0.5h0
		c-0.1,0-0.1,0-0.1,0.1c0.1,0.2,0.3,0.7,0.6,1.3h0.1c0,0,0.1-0.1,0.2-0.3h0c0.1,0,0.1,0.3,0.2,1l0.3,0.7l-0.1,0.4l0.1,1.2
		c-0.2,0.6-0.3,1.3-0.4,2.2c-0.1,0.4-1.1,2-3.1,4.8c-0.9,0.8-1.8,1.3-2.6,1.3c-0.8,0.1-1.7,0.1-2.6,0.1H185c-0.4,0-1.4-0.3-3-1
		c-2-1.8-3-3.2-3-4.2c-0.3-0.6-0.5-1.2-0.7-1.7c0-0.3,0.3-1.3,0.9-2.9c0-1,0.2-1.7,0.7-2.1c1-2.3,2.4-3.7,4-4.4
		C185.3,140.1,186.4,139.8,187.2,139.8z M178.8,149.7l-0.1,0.1c0,0.2,0.1,0.3,0.1,0.3l0.1,0v-0.2L178.8,149.7L178.8,149.7z
		 M179.6,151.3l-0.1,0.1v0.2c0,0.8,0.3,1.2,0.6,1.3l0,0v0C180,151.8,179.8,151.3,179.6,151.3z M179.8,146.1c0.1,0,0.2-0.1,0.3-0.2
		v-0.1C179.9,145.8,179.8,145.9,179.8,146.1z M180.5,145L180.5,145c0.1,0,0.2-0.1,0.2-0.3h-0.1C180.5,144.7,180.5,144.8,180.5,145z
		 M180.7,149l-0.1,0.1v0.1h0.1l0.1-0.1L180.7,149L180.7,149z M180.8,153.5l-0.1,0.1v0.1l0.3,0.3h0.1
		C181.1,153.8,181,153.6,180.8,153.5z M181.2,150.4v0.2c0.3,0.6,0.7,1.3,1,1.9c0,0.2,0.4,0.5,1.3,0.9c0.4,0.5,1.2,0.8,2.2,1.1
		l0.6,0.1c1-0.2,1.7-0.4,2.2-0.6l1.2-1c1.3-1.3,1.9-2.5,1.8-3.4v-0.3c-0.1-0.4-0.2-0.9-0.2-1.7c0-0.6,0-1.1,0.1-1.5
		c0-0.2-0.4-0.5-1.3-1.2c-0.6-0.9-1.3-1.4-1.9-1.6h-0.4c-2.6,0.1-3.9,0.3-3.9,0.6c-0.6,0.6-1,1.2-1.2,1.7c-0.7,0.8-1.1,1.3-1.1,1.5
		C181.5,148,181.3,149.1,181.2,150.4z M181.5,154.7h-0.2v0.1c0.3,0.3,0.8,0.4,1.6,0.4h0.4C183.1,155.1,182.6,154.9,181.5,154.7z
		 M181.8,144.7v0.2h0.1c0.3-0.3,0.4-0.5,0.4-0.6v0h-0.2C182,144.4,181.9,144.5,181.8,144.7z M182.2,142.3l-0.1,0.2v0.1
		c0.1,0,0.8-0.5,2-1.4l0.3-0.1l0.2,0c1.5-0.2,2.2-0.3,2.2-0.4v0l-0.5-0.1C184.8,140.5,183.5,141.1,182.2,142.3z M182.5,143
		c0.2,0,0.4-0.1,0.6-0.4v-0.1C182.7,142.6,182.5,142.8,182.5,143z M182.6,143.9h-0.1v0.1h0.1L182.6,143.9L182.6,143.9z M183.1,155.6
		L183.1,155.6l0.4,0l0.1-0.1l-0.1-0.1h-0.1C183.3,155.5,183.1,155.5,183.1,155.6z M183.8,155.1v0.1c0,0.1,0.3,0.2,0.9,0.2l0,0v-0.1
		C184.5,155.2,184.2,155.1,183.8,155.1z M184.8,141.8v0.2c1.7-0.2,2.6-0.3,2.6-0.4l-0.3-0.1h0C186,141.5,185.3,141.6,184.8,141.8z
		 M184.9,143L184.9,143l0.1,0.1h0.5l2.4-0.5v-0.1l-0.6-0.1C185.6,142.5,184.9,142.7,184.9,143z M187.1,155.9L187.1,155.9
		c0,0.1,0.2,0.2,0.5,0.2c0.4,0,0.6-0.1,0.6-0.2v-0.1c0-0.1-0.1-0.2-0.2-0.3h-0.3C187.4,155.7,187.2,155.7,187.1,155.9z M187.6,140.5
		c0.1,0.3,0.4,0.5,0.7,0.5l0.3,0l0.1,0v-0.2c0-0.2-0.2-0.4-0.7-0.4C187.8,140.4,187.6,140.5,187.6,140.5z M187.7,142L187.7,142
		l0.3-0.2l-0.1,0C187.7,141.9,187.7,141.9,187.7,142z M188.3,141.7L188.3,141.7c0.4,0.4,0.7,0.5,0.9,0.5l0-0.1v0
		C188.9,141.8,188.6,141.7,188.3,141.7z M188.9,156.2L188.9,156.2c0.4-0.1,0.6-0.2,0.6-0.3l-0.1-0.1
		C189.1,155.9,188.9,156,188.9,156.2z M189.4,143.2c0.1,0.2,0.3,0.3,0.5,0.3l0-0.1v-0.1c0-0.2-0.1-0.3-0.3-0.3
		C189.5,143.1,189.4,143.1,189.4,143.2z M190,141.3l-0.1,0.1c0.2,0.3,0.5,0.5,0.7,0.5C190.6,141.6,190.4,141.4,190,141.3L190,141.3z
		 M190.5,142.8L190.5,142.8c0.1,0.3,0.4,0.6,0.9,0.9h0.1l0.1-0.1v0C191.5,143.4,191.1,143.1,190.5,142.8z M191.2,143.8h-0.1
		c0.1,0.3,0.5,0.5,1,0.7h0.1l0.1-0.1v0C191.9,144,191.6,143.8,191.2,143.8z M192.6,152L192.6,152c0.2,0,0.3-0.1,0.5-0.5v-0.1H193
		C192.9,151.4,192.7,151.6,192.6,152z M193.2,151.4h0.2l0.1,0.1c0-0.4,0-0.5-0.2-0.5h-0.1l0-0.2L193.2,151.4z M193.4,149.6
		c0,0.7,0.1,1,0.2,1.1h0.1c0-0.2,0.1-0.5,0.3-0.8v-0.1l-0.4-0.5h-0.1C193.5,149.2,193.5,149.3,193.4,149.6z M194,147.2l-0.1,0.1v0.1
		l0.1,0.1l0.1-0.1v-0.1L194,147.2L194,147.2z"/>
	<path class="st10" d="M207.6,139.8l0.9,0.3h0.3c1.3,0.6,2.5,1.4,3.6,2.2c1.1,1,1.7,1.7,1.7,2.2H214c-0.2-0.3-0.4-0.5-0.5-0.5h0
		c-0.1,0-0.1,0-0.1,0.1c0.1,0.2,0.3,0.7,0.6,1.3h0.1c0,0,0.1-0.1,0.2-0.3h0c0.1,0,0.1,0.3,0.2,1l0.3,0.7l-0.1,0.4l0.1,1.2
		c-0.2,0.6-0.3,1.3-0.4,2.2c-0.1,0.4-1.1,2-3.1,4.8c-0.9,0.8-1.8,1.3-2.6,1.3c-0.8,0.1-1.7,0.1-2.6,0.1h-0.6c-0.4,0-1.4-0.3-3-1
		c-2-1.8-3-3.2-3-4.2c-0.3-0.6-0.5-1.2-0.7-1.7c0-0.3,0.3-1.3,0.9-2.9c0-1,0.2-1.7,0.7-2.1c1-2.3,2.4-3.7,4-4.4
		C205.6,140.1,206.7,139.8,207.6,139.8z M199.1,149.7l-0.1,0.1c0,0.2,0.1,0.3,0.1,0.3l0.1,0v-0.2L199.1,149.7L199.1,149.7z
		 M199.9,151.3l-0.1,0.1v0.2c0,0.8,0.3,1.2,0.6,1.3l0,0v0C200.3,151.8,200.1,151.3,199.9,151.3z M200.1,146.1c0.1,0,0.2-0.1,0.3-0.2
		v-0.1C200.2,145.8,200.1,145.9,200.1,146.1z M200.8,145L200.8,145c0.1,0,0.2-0.1,0.2-0.3h-0.1C200.8,144.7,200.8,144.8,200.8,145z
		 M201,149l-0.1,0.1v0.1h0.1l0.1-0.1L201,149L201,149z M201.2,153.5l-0.1,0.1v0.1l0.3,0.3h0.1C201.4,153.8,201.3,153.6,201.2,153.5z
		 M201.5,150.4v0.2c0.3,0.6,0.7,1.3,1,1.9c0,0.2,0.4,0.5,1.3,0.9c0.4,0.5,1.2,0.8,2.2,1.1l0.6,0.1c1-0.2,1.7-0.4,2.2-0.6l1.2-1
		c1.3-1.3,1.9-2.5,1.8-3.4v-0.3c-0.1-0.4-0.2-0.9-0.2-1.7c0-0.6,0-1.1,0.1-1.5c0-0.2-0.4-0.5-1.3-1.2c-0.6-0.9-1.3-1.4-1.9-1.6h-0.4
		c-2.6,0.1-3.9,0.3-3.9,0.6c-0.6,0.6-1,1.2-1.2,1.7c-0.7,0.8-1.1,1.3-1.1,1.5C201.8,148,201.6,149.1,201.5,150.4z M201.9,154.7h-0.2
		v0.1c0.3,0.3,0.8,0.4,1.6,0.4h0.4C203.5,155.1,202.9,154.9,201.9,154.7z M202.1,144.7v0.2h0.1c0.3-0.3,0.4-0.5,0.4-0.6v0h-0.2
		C202.4,144.4,202.2,144.5,202.1,144.7z M202.6,142.3l-0.1,0.2v0.1c0.1,0,0.8-0.5,2-1.4l0.3-0.1l0.2,0c1.5-0.2,2.2-0.3,2.2-0.4v0
		l-0.5-0.1C205.2,140.5,203.8,141.1,202.6,142.3z M202.8,143c0.2,0,0.4-0.1,0.6-0.4v-0.1C203,142.6,202.8,142.8,202.8,143z
		 M203,143.9h-0.1v0.1h0.1L203,143.9L203,143.9z M203.4,155.6L203.4,155.6l0.4,0l0.1-0.1l-0.1-0.1h-0.1
		C203.6,155.5,203.5,155.5,203.4,155.6z M204.1,155.1v0.1c0,0.1,0.3,0.2,0.9,0.2l0,0v-0.1C204.8,155.2,204.5,155.1,204.1,155.1z
		 M205.1,141.8v0.2c1.7-0.2,2.6-0.3,2.6-0.4l-0.3-0.1h0C206.3,141.5,205.6,141.6,205.1,141.8z M205.2,143L205.2,143l0.1,0.1h0.5
		l2.4-0.5v-0.1l-0.6-0.1C205.9,142.5,205.2,142.7,205.2,143z M207.4,155.9L207.4,155.9c0,0.1,0.2,0.2,0.5,0.2c0.4,0,0.6-0.1,0.6-0.2
		v-0.1c0-0.1-0.1-0.2-0.2-0.3h-0.3C207.7,155.7,207.5,155.7,207.4,155.9z M208,140.5c0.1,0.3,0.4,0.5,0.7,0.5l0.3,0l0.1,0v-0.2
		c0-0.2-0.2-0.4-0.7-0.4C208.1,140.4,208,140.5,208,140.5z M208,142L208,142l0.3-0.2l-0.1,0C208.1,141.9,208,141.9,208,142z
		 M208.6,141.7L208.6,141.7c0.4,0.4,0.7,0.5,0.9,0.5l0-0.1v0C209.2,141.8,208.9,141.7,208.6,141.7z M209.2,156.2L209.2,156.2
		c0.4-0.1,0.6-0.2,0.6-0.3l-0.1-0.1C209.5,155.9,209.3,156,209.2,156.2z M209.7,143.2c0.1,0.2,0.3,0.3,0.5,0.3l0-0.1v-0.1
		c0-0.2-0.1-0.3-0.3-0.3C209.8,143.1,209.7,143.1,209.7,143.2z M210.3,141.3l-0.1,0.1c0.2,0.3,0.5,0.5,0.7,0.5
		C210.9,141.6,210.7,141.4,210.3,141.3L210.3,141.3z M210.8,142.8L210.8,142.8c0.1,0.3,0.4,0.6,0.9,0.9h0.1l0.1-0.1v0
		C211.8,143.4,211.4,143.1,210.8,142.8z M211.5,143.8h-0.1c0.1,0.3,0.5,0.5,1,0.7h0.1l0.1-0.1v0C212.2,144,211.9,143.8,211.5,143.8z
		 M212.9,152L212.9,152c0.2,0,0.3-0.1,0.5-0.5v-0.1h-0.1C213.2,151.4,213.1,151.6,212.9,152z M213.5,151.4h0.2l0.1,0.1
		c0-0.4,0-0.5-0.2-0.5h-0.1l0-0.2L213.5,151.4z M213.8,149.6c0,0.7,0.1,1,0.2,1.1h0.1c0-0.2,0.1-0.5,0.3-0.8v-0.1l-0.4-0.5h-0.1
		C213.8,149.2,213.8,149.3,213.8,149.6z M214.3,147.2l-0.1,0.1v0.1l0.1,0.1l0.1-0.1v-0.1L214.3,147.2L214.3,147.2z"/>
	<path class="st10" d="M218.8,130.4l0.2,0h0.3c2,0.2,3.1,0.5,3.5,0.8c0.2,0,0.3,0.4,0.4,1.3l-0.2,0.3v0.1c0.2,0.3,0.4,1.7,0.5,4.2
		c0,4.4,0.1,7.3,0.4,8.6h0.1c1.2-1,3.1-2.3,5.6-4.1c0.2,0,0.4-1,0.5-3c0-0.5,0.2-0.7,0.7-0.7l1.3-0.1c2,0,3.2,0.2,3.6,0.6v0.1
		l-0.1,0.1c-0.4-0.2-0.7-0.2-0.9-0.2l-0.1,0.1v0c0,0.1,0.3,0.2,1,0.3c0.2,0,0.3,0.5,0.3,1.6c0,0.4-0.2,0.6-0.5,0.6
		c-0.1,0-0.3,0.2-0.5,0.5l-0.1,0l-0.7,0h-0.1c0,0.2-0.3,0.5-0.8,0.7c-0.1,0-0.1,0.1-0.1,0.2l0.1,0.2L230,145l0,0.1
		c0,0.1,1.1,2.4,3.3,6.8c0.3,0.6,0.5,1.2,0.6,1.5h-0.2l-0.2-0.2h-0.1c0,0.3,0.4,0.4,1.3,0.4c1.5,0,2.2,0.1,2.2,0.4l-0.3,0.3
		c0.3,0.5,0.4,1.2,0.4,2.2c0,0.3-0.2,0.5-0.5,0.5l-0.3,0c-0.5-0.1-1.8-0.1-3.9-0.1h-0.2c-0.3,0-0.5-0.3-0.6-1
		c-0.1-1.2-0.4-2.2-0.7-3.2c-0.5-1.2-1.3-2.7-2.2-4.7c-0.4-1.1-0.7-1.7-0.9-1.7c-0.4,0-1,0.4-1.8,1c-0.3,0.2-0.5,0.4-0.6,0.4
		c-0.1,0-0.2-0.1-0.2-0.1v0l0.1-0.2v0H225c-0.1,0-0.3,0.3-0.4,0.9l0,0.2c-0.2,0.1-0.3,0.3-0.3,0.6l0.1,3.6c0,0.3,0.5,0.5,1.4,0.6
		c0.2,0.1,0.5,0.3,1,0.5l0.1,0.3l0,0.5v0.4l0.1,0.5v0.1c-0.1,0.2-0.3,0.3-0.5,0.4l0,0h-0.2v0.1c0,0.2,0.2,0.3,0.5,0.4v0.1
		c0,0.1-0.1,0.1-0.4,0.2l-1.6-0.4c-2.2-0.1-3.6-0.2-4.2-0.4l-0.5,0.1c-0.3-0.1-0.4-0.5-0.4-1.1v-0.2l0,0c0-0.4,0.2-0.7,0.5-0.9h0.1
		v0.5l0.1,0.1h0.4l-0.1-0.2v-0.1l0.3,0h0.3l-0.4-0.4l0.5-0.1v-0.1c0-0.1-0.1-0.1-0.3-0.1h-0.1l-0.7,0.1v-0.1c0-0.2,0.5-0.3,1.5-0.5
		c0.2-0.1,0.6-0.1,1.1-0.2l0.1-0.1v0c0,0-0.2-0.1-0.5-0.1c-0.2,0-0.3-1-0.3-2.9c-0.1-2.3-0.3-3.9-0.6-4.8c-0.1-5.6-0.3-8.9-0.5-10
		c0-0.1-0.4-0.1-1.2-0.2l-1,0.2c-0.2-0.2-0.4-0.4-0.4-0.6l-0.1-2.1l0-0.1c0-0.3,0.1-0.5,0.1-0.5l0.4,0.1v-0.1c0-0.1-0.1-0.3-0.3-0.5
		v-0.2c0.2,0,0.3,0,0.3-0.1l-0.1-0.2V130.4z M219.8,132.9L219.8,132.9c0,0.2,0.2,0.2,0.5,0.3v0.1c-0.4,0-0.6,0.1-0.6,0.2v0.1
		l0.1,0.1h0.3c0.3,0,0.6-0.2,0.7-0.6l0.1-0.1c0-0.1-0.3-0.2-0.8-0.2H220C219.9,132.8,219.8,132.8,219.8,132.9z M220.6,154.8
		L220.6,154.8l0,0.1v0l1.6,0h0.2c0.7,0,1.1-0.1,1.1-0.2v-0.1c0,0-0.2-0.1-0.7-0.1C221.5,154.7,220.8,154.7,220.6,154.8z
		 M221.7,155.3l-0.1,0.1l3.6,0.5v-0.1c0-0.3-0.7-0.5-2-0.5H221.7z M221.9,132.3L221.9,132.3c0.1,0.3,0.2,0.4,0.4,0.4
		c0.2-0.2,0.2-0.4,0.2-0.6l-0.1,0C222.2,132.1,222,132.2,221.9,132.3z M222.4,135.8l-0.1,0.1v0.7c0,0.5,0.1,0.8,0.2,0.8h0l0.1-0.1
		v-0.5C222.7,136.2,222.6,135.8,222.4,135.8z M222.4,140.7L222.4,140.7l-0.1,0.2l0.1,0.1l0.1-0.1L222.4,140.7z M223.1,154.4
		L223.1,154.4l-0.1,0.1h0.1L223.1,154.4z M223.3,146.3l-0.1,0.2v0h0.1l0.1-0.1L223.3,146.3L223.3,146.3z M223.2,149.3v0.5l0.1,0.1
		c0.2,0,0.3-0.1,0.3-0.3V149l-0.1-0.1h-0.1C223.2,148.9,223.2,149,223.2,149.3z M223.2,148v0.3l0.1,0.1h0.1c0.1,0,0.2-0.2,0.2-0.4
		v-0.1c0-0.2,0-0.5-0.1-0.7h0C223.3,147.2,223.2,147.4,223.2,148z M223.2,152.6l0.2,0.2h0c0.1,0,0.2-0.1,0.2-0.3
		c0-0.2,0-0.2-0.1-0.2C223.3,152.4,223.2,152.5,223.2,152.6z M223.6,150.6h-0.1l0,0.2v0.3h0c0.1,0,0.1-0.1,0.1-0.3V150.6z
		 M224.2,146.2v0.1h0.1c0.3,0,0.5-0.1,0.7-0.4v-0.1C224.7,145.8,224.5,146,224.2,146.2z M224.3,154.4l-0.1,0.1h0.2L224.3,154.4z
		 M224.6,155.1l-0.1,0.1v0.1l0.5,0h0.2v0C225.2,155.1,225,155.1,224.6,155.1z M225.3,154.4c0.2,0.3,0.4,0.4,0.7,0.4h0l0.1-0.1
		c-0.1-0.3-0.2-0.4-0.3-0.5h-0.1C225.5,154.2,225.4,154.3,225.3,154.4z M225.6,147L225.6,147L225.6,147c0.5-0.1,0.9-0.4,1.2-0.7
		v-0.1C226,146.6,225.6,146.9,225.6,147z M225.7,155.8l-0.1,0v0.1l0.1,0.1h0.3l0.1-0.1C225.9,155.8,225.9,155.8,225.7,155.8z
		 M226.6,154h-0.1v0.1l0.1,0.1h0L226.6,154L226.6,154z M228.2,146.2c0.2,0.4,0.3,0.6,0.5,0.6h0v0c0-0.5-0.2-0.7-0.4-0.7
		C228.3,146,228.2,146.1,228.2,146.2z M229.5,148h-0.1v0c0.2,0.8,0.6,1.8,1.2,2.8h0.2v-0.1C230.8,150.2,230.4,149.3,229.5,148z
		 M230,143.8v0.1h0.1c0.8-0.2,1.9-0.9,3.1-1.9l0.1-0.1h-0.1C232.1,142.2,231,142.9,230,143.8z M230,142.3L230,142.3L230,142.3
		c0.1,0,0.5-0.2,1.1-0.6c0.2,0,0.3-0.1,0.3-0.2v-0.1h-0.2C231,141.4,230.6,141.7,230,142.3z M230.4,140.8l0.1,0.1h0
		c0.2,0,0.3,0,0.3-0.1v-0.1h-0.1C230.5,140.7,230.4,140.7,230.4,140.8z M230.5,140c0,0.3,0.1,0.4,0.1,0.4h0.2c0.1,0,0.1,0,0.1-0.1
		l-0.2-0.4l0.2-0.6v-0.1h-0.1C230.6,139.4,230.5,139.6,230.5,140z M231,151.2L231,151.2L231,151.2c0.1,0.6,0.3,1,0.5,1.1h0.1
		C231.6,152.1,231.4,151.7,231,151.2L231,151.2z M231.3,138.1l-0.2,0v0.1l0,0.1h0.2l0.1-0.1L231.3,138.1L231.3,138.1z M231.3,149.2
		h-0.1v0.1l0.1,0.1h0L231.3,149.2L231.3,149.2z M232.3,153.4L232.3,153.4l0.1,0.2h0.3l0.1-0.1c-0.1-0.1-0.2-0.2-0.3-0.2
		C232.3,153.3,232.3,153.3,232.3,153.4z M233.5,140.3c0,0.1,0.4,0.1,1.1,0.2c0.2,0,0.4-0.1,0.4-0.2v-0.1h-0.2h-0.7
		C233.7,140.2,233.5,140.2,233.5,140.3z M234,156.5L234,156.5l0.1,0l0.7,0.1l0.8-0.1h0.1l0.1-0.1v0l-0.2,0h-1.3
		C234.1,156.4,234,156.4,234,156.5z M234.3,154.7l-0.1,0.1l0.2,0.1h0.1l0.1-0.1l-0.1-0.1H234.3z M235.2,154.9h-0.3v0l0.2,0.1h0.2
		V154.9z M236.4,154.3h-0.1v0.2l0.1,0.1h0.1v-0.2L236.4,154.3z M236.4,155.4v0.6h0c0.1,0,0.1-0.2,0.1-0.7V155
		C236.4,155.1,236.4,155.2,236.4,155.4z"/>
</g>
</svg>
