<svg width="414" height="896" viewBox="0 0 414 896" fill="none" xmlns="http://www.w3.org/2000/svg">
<g clip-path="url(#clip0)">
<rect width="414" height="896" fill="white"/>
<g clip-path="url(#clip1)">
<path d="M-3.05176e-05 896L414 896L414 3.05176e-05L4.78132e-05 -5.67545e-06L-3.05176e-05 896Z" fill="#EAEAEA"/>
<path d="M-11.45 58.89L-11.6 318.8C17.22 323.28 47.73 318.05 72.29 300.99C79.8978 295.703 86.7536 289.409 92.67 282.28C129 238.67 130.54 156.71 113.11 97.75C95 36.58 53.7 -9.35004 7.90005 -17.5101C1.58201 -18.6578 -4.85677 -18.9938 -11.26 -18.5101C-11.3533 7.30996 -11.4166 33.11 -11.45 58.89Z" fill="#F3F2F3"/>
<path d="M259.89 -6.07002C213.89 -6.07003 167.98 -6.25002 122.03 -6.86001C125.66 39.38 140.43 83.9 163.86 115.92C188.35 149.37 220.86 169.1 244.06 204.41C292.87 278.68 292.78 387.77 222.95 472.33C161.59 546.63 74.79 544.4 -11.69 470.18L-11.69 543.12C-11.73 608.06 -11.6967 673.01 -11.59 737.97C31.64 758.28 78.67 762.77 122.66 744.65C151.74 732.65 178.6 711.65 204.81 689.88C269.17 636.33 332.61 575.24 377.21 489.38C421.81 403.52 445 288.28 421.47 186.48C417.574 170.03 412.708 153.826 406.9 137.95C395.15 105.31 380.9 74.71 366.68 44.19C358.83 27.35 350.84 10.32 342.25 -5.93C314.797 -5.97669 287.343 -6.02333 259.89 -6.07002Z" fill="#F3F2F3"/>
<path d="M381.9 902.42C381.9 900.64 381.9 898.85 381.9 897.11C381.12 844.58 403.92 794.58 435.62 769.69C435.54 735.737 435.483 701.79 435.45 667.85L435.36 583.28C432.523 583.349 429.696 583.626 426.9 584.11C371.36 593.4 321.09 643.68 290.24 711.04C264.4 767.43 251.48 834.69 249.33 902.45C273.13 902.45 296.93 902.45 320.73 902.45L381.9 902.42Z" fill="#F3F2F3"/>
<path d="M433.6 -6.01996C394.79 -5.80994 355.97 -5.89997 317.16 -6.01997C308.88 60.04 341.16 144.98 350.62 202.1C370.09 320.14 347 447.28 289.51 535.39C250.85 594.64 200.93 638.58 148 665.74C97 691.9 41.37 697.74 -11.65 681.22C-11.5833 755.4 -11.6267 829.583 -11.78 903.77C4.76994 902.93 21.39 903.37 37.92 903.21C58.74 903.01 79.5499 902.77 100.37 902.73L195.76 902.53C190.15 876.3 193.05 846.84 199.2 821.23C226 709.64 297.85 630.86 351.36 546.72C381.64 499.1 411.29 446.72 435.17 390.19C435.117 336.45 435.073 282.71 435.04 228.97L434.92 9.91003C434.92 4.57672 434.92 -0.736633 434.92 -6.02997L433.6 -6.01996Z" fill="#E8E8E8"/>
<path d="M110.214 320.2H111.25V329.104H116.738V330H110.214V320.2ZM121.149 330.07C120.44 330.07 119.8 329.911 119.231 329.594C118.662 329.267 118.214 328.819 117.887 328.25C117.56 327.681 117.397 327.037 117.397 326.318C117.397 325.599 117.56 324.955 117.887 324.386C118.214 323.817 118.662 323.373 119.231 323.056C119.8 322.739 120.44 322.58 121.149 322.58C121.858 322.58 122.498 322.739 123.067 323.056C123.636 323.373 124.08 323.817 124.397 324.386C124.724 324.955 124.887 325.599 124.887 326.318C124.887 327.037 124.724 327.681 124.397 328.25C124.08 328.819 123.636 329.267 123.067 329.594C122.498 329.911 121.858 330.07 121.149 330.07ZM121.149 329.188C121.672 329.188 122.138 329.071 122.549 328.838C122.969 328.595 123.296 328.255 123.529 327.816C123.762 327.377 123.879 326.878 123.879 326.318C123.879 325.758 123.762 325.259 123.529 324.82C123.296 324.381 122.969 324.045 122.549 323.812C122.138 323.569 121.672 323.448 121.149 323.448C120.626 323.448 120.155 323.569 119.735 323.812C119.324 324.045 118.998 324.381 118.755 324.82C118.522 325.259 118.405 325.758 118.405 326.318C118.405 326.878 118.522 327.377 118.755 327.816C118.998 328.255 119.324 328.595 119.735 328.838C120.155 329.071 120.626 329.188 121.149 329.188ZM127.868 324.078C128.102 323.583 128.447 323.21 128.904 322.958C129.371 322.706 129.945 322.58 130.626 322.58V323.546L130.388 323.532C129.614 323.532 129.007 323.77 128.568 324.246C128.13 324.722 127.91 325.389 127.91 326.248V330H126.916V322.636H127.868V324.078ZM138.77 326.626H132.61C132.666 327.391 132.96 328.012 133.492 328.488C134.024 328.955 134.696 329.188 135.508 329.188C135.965 329.188 136.385 329.109 136.768 328.95C137.15 328.782 137.482 328.539 137.762 328.222L138.322 328.866C137.995 329.258 137.584 329.557 137.09 329.762C136.604 329.967 136.068 330.07 135.48 330.07C134.724 330.07 134.052 329.911 133.464 329.594C132.885 329.267 132.432 328.819 132.106 328.25C131.779 327.681 131.616 327.037 131.616 326.318C131.616 325.599 131.77 324.955 132.078 324.386C132.395 323.817 132.824 323.373 133.366 323.056C133.916 322.739 134.532 322.58 135.214 322.58C135.895 322.58 136.506 322.739 137.048 323.056C137.589 323.373 138.014 323.817 138.322 324.386C138.63 324.946 138.784 325.59 138.784 326.318L138.77 326.626ZM135.214 323.434C134.504 323.434 133.907 323.663 133.422 324.12C132.946 324.568 132.675 325.156 132.61 325.884H137.832C137.766 325.156 137.491 324.568 137.006 324.12C136.53 323.663 135.932 323.434 135.214 323.434ZM149.991 322.58C150.915 322.58 151.638 322.846 152.161 323.378C152.693 323.91 152.959 324.694 152.959 325.73V330H151.965V325.828C151.965 325.063 151.778 324.479 151.405 324.078C151.041 323.677 150.523 323.476 149.851 323.476C149.086 323.476 148.484 323.714 148.045 324.19C147.606 324.657 147.387 325.305 147.387 326.136V330H146.393V325.828C146.393 325.063 146.206 324.479 145.833 324.078C145.469 323.677 144.946 323.476 144.265 323.476C143.509 323.476 142.907 323.714 142.459 324.19C142.02 324.657 141.801 325.305 141.801 326.136V330H140.807V322.636H141.759V323.98C142.02 323.532 142.384 323.187 142.851 322.944C143.318 322.701 143.854 322.58 144.461 322.58C145.077 322.58 145.609 322.711 146.057 322.972C146.514 323.233 146.855 323.621 147.079 324.134C147.35 323.649 147.737 323.271 148.241 323C148.754 322.72 149.338 322.58 149.991 322.58ZM159.319 322.636H160.313V330H159.319V322.636ZM159.823 321.026C159.617 321.026 159.445 320.956 159.305 320.816C159.165 320.676 159.095 320.508 159.095 320.312C159.095 320.125 159.165 319.962 159.305 319.822C159.445 319.682 159.617 319.612 159.823 319.612C160.028 319.612 160.201 319.682 160.341 319.822C160.481 319.953 160.551 320.111 160.551 320.298C160.551 320.503 160.481 320.676 160.341 320.816C160.201 320.956 160.028 321.026 159.823 321.026ZM166.872 322.58C167.563 322.58 168.188 322.739 168.748 323.056C169.308 323.364 169.747 323.803 170.064 324.372C170.382 324.941 170.54 325.59 170.54 326.318C170.54 327.055 170.382 327.709 170.064 328.278C169.747 328.847 169.308 329.291 168.748 329.608C168.198 329.916 167.572 330.07 166.872 330.07C166.275 330.07 165.734 329.949 165.248 329.706C164.772 329.454 164.38 329.09 164.072 328.614V332.716H163.078V322.636H164.03V324.092C164.329 323.607 164.721 323.233 165.206 322.972C165.701 322.711 166.256 322.58 166.872 322.58ZM166.802 329.188C167.316 329.188 167.782 329.071 168.202 328.838C168.622 328.595 168.949 328.255 169.182 327.816C169.425 327.377 169.546 326.878 169.546 326.318C169.546 325.758 169.425 325.263 169.182 324.834C168.949 324.395 168.622 324.055 168.202 323.812C167.782 323.569 167.316 323.448 166.802 323.448C166.28 323.448 165.808 323.569 165.388 323.812C164.978 324.055 164.651 324.395 164.408 324.834C164.175 325.263 164.058 325.758 164.058 326.318C164.058 326.878 164.175 327.377 164.408 327.816C164.651 328.255 164.978 328.595 165.388 328.838C165.808 329.071 166.28 329.188 166.802 329.188ZM174.541 330.07C173.943 330.07 173.369 329.986 172.819 329.818C172.277 329.641 171.853 329.421 171.545 329.16L171.993 328.376C172.301 328.619 172.688 328.819 173.155 328.978C173.621 329.127 174.107 329.202 174.611 329.202C175.283 329.202 175.777 329.099 176.095 328.894C176.421 328.679 176.585 328.381 176.585 327.998C176.585 327.727 176.496 327.517 176.319 327.368C176.141 327.209 175.917 327.093 175.647 327.018C175.376 326.934 175.017 326.855 174.569 326.78C173.971 326.668 173.491 326.556 173.127 326.444C172.763 326.323 172.45 326.122 172.189 325.842C171.937 325.562 171.811 325.175 171.811 324.68C171.811 324.064 172.067 323.56 172.581 323.168C173.094 322.776 173.808 322.58 174.723 322.58C175.199 322.58 175.675 322.645 176.151 322.776C176.627 322.897 177.019 323.061 177.327 323.266L176.893 324.064C176.286 323.644 175.563 323.434 174.723 323.434C174.088 323.434 173.607 323.546 173.281 323.77C172.963 323.994 172.805 324.288 172.805 324.652C172.805 324.932 172.893 325.156 173.071 325.324C173.257 325.492 173.486 325.618 173.757 325.702C174.027 325.777 174.401 325.856 174.877 325.94C175.465 326.052 175.936 326.164 176.291 326.276C176.645 326.388 176.949 326.579 177.201 326.85C177.453 327.121 177.579 327.494 177.579 327.97C177.579 328.614 177.308 329.127 176.767 329.51C176.235 329.883 175.493 330.07 174.541 330.07ZM186.052 322.636V330H185.1V328.656C184.839 329.104 184.48 329.454 184.022 329.706C183.565 329.949 183.042 330.07 182.454 330.07C181.493 330.07 180.732 329.804 180.172 329.272C179.622 328.731 179.346 327.942 179.346 326.906V322.636H180.34V326.808C180.34 327.583 180.532 328.171 180.914 328.572C181.297 328.973 181.843 329.174 182.552 329.174C183.327 329.174 183.938 328.941 184.386 328.474C184.834 327.998 185.058 327.34 185.058 326.5V322.636H186.052ZM198.02 322.58C198.944 322.58 199.668 322.846 200.19 323.378C200.722 323.91 200.988 324.694 200.988 325.73V330H199.994V325.828C199.994 325.063 199.808 324.479 199.434 324.078C199.07 323.677 198.552 323.476 197.88 323.476C197.115 323.476 196.513 323.714 196.074 324.19C195.636 324.657 195.416 325.305 195.416 326.136V330H194.422V325.828C194.422 325.063 194.236 324.479 193.862 324.078C193.498 323.677 192.976 323.476 192.294 323.476C191.538 323.476 190.936 323.714 190.488 324.19C190.05 324.657 189.83 325.305 189.83 326.136V330H188.836V322.636H189.788V323.98C190.05 323.532 190.414 323.187 190.88 322.944C191.347 322.701 191.884 322.58 192.49 322.58C193.106 322.58 193.638 322.711 194.086 322.972C194.544 323.233 194.884 323.621 195.108 324.134C195.379 323.649 195.766 323.271 196.27 323C196.784 322.72 197.367 322.58 198.02 322.58ZM214.068 319.612V330H213.116V328.544C212.817 329.039 212.421 329.417 211.926 329.678C211.441 329.939 210.89 330.07 210.274 330.07C209.583 330.07 208.958 329.911 208.398 329.594C207.838 329.277 207.399 328.833 207.082 328.264C206.765 327.695 206.606 327.046 206.606 326.318C206.606 325.59 206.765 324.941 207.082 324.372C207.399 323.803 207.838 323.364 208.398 323.056C208.958 322.739 209.583 322.58 210.274 322.58C210.871 322.58 211.408 322.706 211.884 322.958C212.369 323.201 212.766 323.56 213.074 324.036V319.612H214.068ZM210.358 329.188C210.871 329.188 211.333 329.071 211.744 328.838C212.164 328.595 212.491 328.255 212.724 327.816C212.967 327.377 213.088 326.878 213.088 326.318C213.088 325.758 212.967 325.259 212.724 324.82C212.491 324.381 212.164 324.045 211.744 323.812C211.333 323.569 210.871 323.448 210.358 323.448C209.835 323.448 209.364 323.569 208.944 323.812C208.533 324.045 208.207 324.381 207.964 324.82C207.731 325.259 207.614 325.758 207.614 326.318C207.614 326.878 207.731 327.377 207.964 327.816C208.207 328.255 208.533 328.595 208.944 328.838C209.364 329.071 209.835 329.188 210.358 329.188ZM219.846 330.07C219.137 330.07 218.498 329.911 217.928 329.594C217.359 329.267 216.911 328.819 216.584 328.25C216.258 327.681 216.094 327.037 216.094 326.318C216.094 325.599 216.258 324.955 216.584 324.386C216.911 323.817 217.359 323.373 217.928 323.056C218.498 322.739 219.137 322.58 219.846 322.58C220.556 322.58 221.195 322.739 221.764 323.056C222.334 323.373 222.777 323.817 223.094 324.386C223.421 324.955 223.584 325.599 223.584 326.318C223.584 327.037 223.421 327.681 223.094 328.25C222.777 328.819 222.334 329.267 221.764 329.594C221.195 329.911 220.556 330.07 219.846 330.07ZM219.846 329.188C220.369 329.188 220.836 329.071 221.246 328.838C221.666 328.595 221.993 328.255 222.226 327.816C222.46 327.377 222.576 326.878 222.576 326.318C222.576 325.758 222.46 325.259 222.226 324.82C221.993 324.381 221.666 324.045 221.246 323.812C220.836 323.569 220.369 323.448 219.846 323.448C219.324 323.448 218.852 323.569 218.432 323.812C218.022 324.045 217.695 324.381 217.452 324.82C217.219 325.259 217.102 325.758 217.102 326.318C217.102 326.878 217.219 327.377 217.452 327.816C217.695 328.255 218.022 328.595 218.432 328.838C218.852 329.071 219.324 329.188 219.846 329.188ZM225.614 319.612H226.608V330H225.614V319.612ZM232.383 330.07C231.674 330.07 231.035 329.911 230.465 329.594C229.896 329.267 229.448 328.819 229.121 328.25C228.795 327.681 228.631 327.037 228.631 326.318C228.631 325.599 228.795 324.955 229.121 324.386C229.448 323.817 229.896 323.373 230.465 323.056C231.035 322.739 231.674 322.58 232.383 322.58C233.093 322.58 233.732 322.739 234.301 323.056C234.871 323.373 235.314 323.817 235.631 324.386C235.958 324.955 236.121 325.599 236.121 326.318C236.121 327.037 235.958 327.681 235.631 328.25C235.314 328.819 234.871 329.267 234.301 329.594C233.732 329.911 233.093 330.07 232.383 330.07ZM232.383 329.188C232.906 329.188 233.373 329.071 233.783 328.838C234.203 328.595 234.53 328.255 234.763 327.816C234.997 327.377 235.113 326.878 235.113 326.318C235.113 325.758 234.997 325.259 234.763 324.82C234.53 324.381 234.203 324.045 233.783 323.812C233.373 323.569 232.906 323.448 232.383 323.448C231.861 323.448 231.389 323.569 230.969 323.812C230.559 324.045 230.232 324.381 229.989 324.82C229.756 325.259 229.639 325.758 229.639 326.318C229.639 326.878 229.756 327.377 229.989 327.816C230.232 328.255 230.559 328.595 230.969 328.838C231.389 329.071 231.861 329.188 232.383 329.188ZM239.103 324.078C239.336 323.583 239.681 323.21 240.139 322.958C240.605 322.706 241.179 322.58 241.861 322.58V323.546L241.623 323.532C240.848 323.532 240.241 323.77 239.803 324.246C239.364 324.722 239.145 325.389 239.145 326.248V330H238.151V322.636H239.103V324.078ZM249.408 330.07C248.811 330.07 248.237 329.986 247.686 329.818C247.145 329.641 246.72 329.421 246.412 329.16L246.86 328.376C247.168 328.619 247.555 328.819 248.022 328.978C248.489 329.127 248.974 329.202 249.478 329.202C250.15 329.202 250.645 329.099 250.962 328.894C251.289 328.679 251.452 328.381 251.452 327.998C251.452 327.727 251.363 327.517 251.186 327.368C251.009 327.209 250.785 327.093 250.514 327.018C250.243 326.934 249.884 326.855 249.436 326.78C248.839 326.668 248.358 326.556 247.994 326.444C247.63 326.323 247.317 326.122 247.056 325.842C246.804 325.562 246.678 325.175 246.678 324.68C246.678 324.064 246.935 323.56 247.448 323.168C247.961 322.776 248.675 322.58 249.59 322.58C250.066 322.58 250.542 322.645 251.018 322.776C251.494 322.897 251.886 323.061 252.194 323.266L251.76 324.064C251.153 323.644 250.43 323.434 249.59 323.434C248.955 323.434 248.475 323.546 248.148 323.77C247.831 323.994 247.672 324.288 247.672 324.652C247.672 324.932 247.761 325.156 247.938 325.324C248.125 325.492 248.353 325.618 248.624 325.702C248.895 325.777 249.268 325.856 249.744 325.94C250.332 326.052 250.803 326.164 251.158 326.276C251.513 326.388 251.816 326.579 252.068 326.85C252.32 327.121 252.446 327.494 252.446 327.97C252.446 328.614 252.175 329.127 251.634 329.51C251.102 329.883 250.36 330.07 249.408 330.07ZM254.283 322.636H255.277V330H254.283V322.636ZM254.787 321.026C254.582 321.026 254.409 320.956 254.269 320.816C254.129 320.676 254.059 320.508 254.059 320.312C254.059 320.125 254.129 319.962 254.269 319.822C254.409 319.682 254.582 319.612 254.787 319.612C254.993 319.612 255.165 319.682 255.305 319.822C255.445 319.953 255.515 320.111 255.515 320.298C255.515 320.503 255.445 320.676 255.305 320.816C255.165 320.956 254.993 321.026 254.787 321.026ZM261.921 329.552C261.735 329.72 261.501 329.851 261.221 329.944C260.951 330.028 260.666 330.07 260.367 330.07C259.677 330.07 259.145 329.883 258.771 329.51C258.398 329.137 258.211 328.609 258.211 327.928V323.476H256.895V322.636H258.211V321.026H259.205V322.636H261.445V323.476H259.205V327.872C259.205 328.311 259.313 328.647 259.527 328.88C259.751 329.104 260.069 329.216 260.479 329.216C260.685 329.216 260.881 329.183 261.067 329.118C261.263 329.053 261.431 328.959 261.571 328.838L261.921 329.552ZM269.971 322.58C270.932 322.58 271.669 322.823 272.183 323.308C272.696 323.784 272.953 324.493 272.953 325.436V330H272.001V328.852C271.777 329.235 271.445 329.533 271.007 329.748C270.577 329.963 270.064 330.07 269.467 330.07C268.645 330.07 267.992 329.874 267.507 329.482C267.021 329.09 266.779 328.572 266.779 327.928C266.779 327.303 267.003 326.799 267.451 326.416C267.908 326.033 268.631 325.842 269.621 325.842H271.959V325.394C271.959 324.759 271.781 324.279 271.427 323.952C271.072 323.616 270.554 323.448 269.873 323.448C269.406 323.448 268.958 323.527 268.529 323.686C268.099 323.835 267.731 324.045 267.423 324.316L266.975 323.574C267.348 323.257 267.796 323.014 268.319 322.846C268.841 322.669 269.392 322.58 269.971 322.58ZM269.621 329.286C270.181 329.286 270.661 329.16 271.063 328.908C271.464 328.647 271.763 328.273 271.959 327.788V326.584H269.649C268.389 326.584 267.759 327.023 267.759 327.9C267.759 328.329 267.922 328.67 268.249 328.922C268.575 329.165 269.033 329.286 269.621 329.286ZM284.837 322.58C285.761 322.58 286.484 322.846 287.007 323.378C287.539 323.91 287.805 324.694 287.805 325.73V330H286.811V325.828C286.811 325.063 286.624 324.479 286.251 324.078C285.887 323.677 285.369 323.476 284.697 323.476C283.931 323.476 283.329 323.714 282.891 324.19C282.452 324.657 282.233 325.305 282.233 326.136V330H281.239V325.828C281.239 325.063 281.052 324.479 280.679 324.078C280.315 323.677 279.792 323.476 279.111 323.476C278.355 323.476 277.753 323.714 277.305 324.19C276.866 324.657 276.647 325.305 276.647 326.136V330H275.653V322.636H276.605V323.98C276.866 323.532 277.23 323.187 277.697 322.944C278.163 322.701 278.7 322.58 279.307 322.58C279.923 322.58 280.455 322.711 280.903 322.972C281.36 323.233 281.701 323.621 281.925 324.134C282.195 323.649 282.583 323.271 283.087 323C283.6 322.72 284.183 322.58 284.837 322.58ZM296.94 326.626H290.78C290.836 327.391 291.13 328.012 291.662 328.488C292.194 328.955 292.866 329.188 293.678 329.188C294.135 329.188 294.555 329.109 294.938 328.95C295.32 328.782 295.652 328.539 295.932 328.222L296.492 328.866C296.165 329.258 295.754 329.557 295.26 329.762C294.774 329.967 294.238 330.07 293.65 330.07C292.894 330.07 292.222 329.911 291.634 329.594C291.055 329.267 290.602 328.819 290.276 328.25C289.949 327.681 289.786 327.037 289.786 326.318C289.786 325.599 289.94 324.955 290.248 324.386C290.565 323.817 290.994 323.373 291.536 323.056C292.086 322.739 292.702 322.58 293.384 322.58C294.065 322.58 294.676 322.739 295.218 323.056C295.759 323.373 296.184 323.817 296.492 324.386C296.8 324.946 296.954 325.59 296.954 326.318L296.94 326.626ZM293.384 323.434C292.674 323.434 292.077 323.663 291.592 324.12C291.116 324.568 290.845 325.156 290.78 325.884H296.002C295.936 325.156 295.661 324.568 295.176 324.12C294.7 323.663 294.102 323.434 293.384 323.434ZM302.855 329.552C302.668 329.72 302.435 329.851 302.155 329.944C301.884 330.028 301.599 330.07 301.301 330.07C300.61 330.07 300.078 329.883 299.705 329.51C299.331 329.137 299.145 328.609 299.145 327.928V323.476H297.829V322.636H299.145V321.026H300.139V322.636H302.379V323.476H300.139V327.872C300.139 328.311 300.246 328.647 300.461 328.88C300.685 329.104 301.002 329.216 301.413 329.216C301.618 329.216 301.814 329.183 302.001 329.118C302.197 329.053 302.365 328.959 302.505 328.838L302.855 329.552ZM304.913 328.544C305.128 328.544 305.305 328.619 305.445 328.768C305.585 328.908 305.655 329.085 305.655 329.3C305.655 329.412 305.636 329.533 305.599 329.664C305.571 329.795 305.524 329.944 305.459 330.112L304.871 332.044H304.199L304.675 330.014C304.526 329.967 304.404 329.883 304.311 329.762C304.218 329.631 304.171 329.477 304.171 329.3C304.171 329.085 304.241 328.908 304.381 328.768C304.521 328.619 304.698 328.544 304.913 328.544ZM90.7437 354.07C90.0157 354.07 89.3623 353.911 88.7837 353.594C88.2143 353.277 87.7663 352.833 87.4397 352.264C87.113 351.685 86.9497 351.037 86.9497 350.318C86.9497 349.599 87.113 348.955 87.4397 348.386C87.7663 347.817 88.2143 347.373 88.7837 347.056C89.3623 346.739 90.0157 346.58 90.7437 346.58C91.3783 346.58 91.943 346.706 92.4377 346.958C92.9417 347.201 93.3383 347.56 93.6277 348.036L92.8857 348.54C92.643 348.176 92.335 347.905 91.9617 347.728C91.5883 347.541 91.1823 347.448 90.7437 347.448C90.2117 347.448 89.731 347.569 89.3017 347.812C88.8817 348.045 88.5503 348.381 88.3077 348.82C88.0743 349.259 87.9577 349.758 87.9577 350.318C87.9577 350.887 88.0743 351.391 88.3077 351.83C88.5503 352.259 88.8817 352.595 89.3017 352.838C89.731 353.071 90.2117 353.188 90.7437 353.188C91.1823 353.188 91.5883 353.099 91.9617 352.922C92.335 352.745 92.643 352.474 92.8857 352.11L93.6277 352.614C93.3383 353.09 92.9417 353.454 92.4377 353.706C91.9337 353.949 91.369 354.07 90.7437 354.07ZM98.4673 354.07C97.758 354.07 97.1186 353.911 96.5493 353.594C95.98 353.267 95.532 352.819 95.2053 352.25C94.8786 351.681 94.7153 351.037 94.7153 350.318C94.7153 349.599 94.8786 348.955 95.2053 348.386C95.532 347.817 95.98 347.373 96.5493 347.056C97.1186 346.739 97.758 346.58 98.4673 346.58C99.1766 346.58 99.816 346.739 100.385 347.056C100.955 347.373 101.398 347.817 101.715 348.386C102.042 348.955 102.205 349.599 102.205 350.318C102.205 351.037 102.042 351.681 101.715 352.25C101.398 352.819 100.955 353.267 100.385 353.594C99.816 353.911 99.1766 354.07 98.4673 354.07ZM98.4673 353.188C98.99 353.188 99.4566 353.071 99.8673 352.838C100.287 352.595 100.614 352.255 100.847 351.816C101.081 351.377 101.197 350.878 101.197 350.318C101.197 349.758 101.081 349.259 100.847 348.82C100.614 348.381 100.287 348.045 99.8673 347.812C99.4566 347.569 98.99 347.448 98.4673 347.448C97.9446 347.448 97.4733 347.569 97.0533 347.812C96.6426 348.045 96.316 348.381 96.0733 348.82C95.84 349.259 95.7233 349.758 95.7233 350.318C95.7233 350.878 95.84 351.377 96.0733 351.816C96.316 352.255 96.6426 352.595 97.0533 352.838C97.4733 353.071 97.9446 353.188 98.4673 353.188ZM107.987 346.58C108.911 346.58 109.643 346.851 110.185 347.392C110.735 347.924 111.011 348.703 111.011 349.73V354H110.017V349.828C110.017 349.063 109.825 348.479 109.443 348.078C109.06 347.677 108.514 347.476 107.805 347.476C107.011 347.476 106.381 347.714 105.915 348.19C105.457 348.657 105.229 349.305 105.229 350.136V354H104.235V346.636H105.187V347.994C105.457 347.546 105.831 347.201 106.307 346.958C106.792 346.706 107.352 346.58 107.987 346.58ZM115.683 354.07C115.086 354.07 114.512 353.986 113.961 353.818C113.42 353.641 112.995 353.421 112.687 353.16L113.135 352.376C113.443 352.619 113.831 352.819 114.297 352.978C114.764 353.127 115.249 353.202 115.753 353.202C116.425 353.202 116.92 353.099 117.237 352.894C117.564 352.679 117.727 352.381 117.727 351.998C117.727 351.727 117.639 351.517 117.461 351.368C117.284 351.209 117.06 351.093 116.789 351.018C116.519 350.934 116.159 350.855 115.711 350.78C115.114 350.668 114.633 350.556 114.269 350.444C113.905 350.323 113.593 350.122 113.331 349.842C113.079 349.562 112.953 349.175 112.953 348.68C112.953 348.064 113.21 347.56 113.723 347.168C114.237 346.776 114.951 346.58 115.865 346.58C116.341 346.58 116.817 346.645 117.293 346.776C117.769 346.897 118.161 347.061 118.469 347.266L118.035 348.064C117.429 347.644 116.705 347.434 115.865 347.434C115.231 347.434 114.75 347.546 114.423 347.77C114.106 347.994 113.947 348.288 113.947 348.652C113.947 348.932 114.036 349.156 114.213 349.324C114.4 349.492 114.629 349.618 114.899 349.702C115.17 349.777 115.543 349.856 116.019 349.94C116.607 350.052 117.079 350.164 117.433 350.276C117.788 350.388 118.091 350.579 118.343 350.85C118.595 351.121 118.721 351.494 118.721 351.97C118.721 352.614 118.451 353.127 117.909 353.51C117.377 353.883 116.635 354.07 115.683 354.07ZM126.971 350.626H120.811C120.867 351.391 121.161 352.012 121.693 352.488C122.225 352.955 122.897 353.188 123.709 353.188C124.166 353.188 124.586 353.109 124.969 352.95C125.352 352.782 125.683 352.539 125.963 352.222L126.523 352.866C126.196 353.258 125.786 353.557 125.291 353.762C124.806 353.967 124.269 354.07 123.681 354.07C122.925 354.07 122.253 353.911 121.665 353.594C121.086 353.267 120.634 352.819 120.307 352.25C119.98 351.681 119.817 351.037 119.817 350.318C119.817 349.599 119.971 348.955 120.279 348.386C120.596 347.817 121.026 347.373 121.567 347.056C122.118 346.739 122.734 346.58 123.415 346.58C124.096 346.58 124.708 346.739 125.249 347.056C125.79 347.373 126.215 347.817 126.523 348.386C126.831 348.946 126.985 349.59 126.985 350.318L126.971 350.626ZM123.415 347.434C122.706 347.434 122.108 347.663 121.623 348.12C121.147 348.568 120.876 349.156 120.811 349.884H126.033C125.968 349.156 125.692 348.568 125.207 348.12C124.731 347.663 124.134 347.434 123.415 347.434ZM132.06 354.07C131.332 354.07 130.679 353.911 130.1 353.594C129.531 353.277 129.083 352.833 128.756 352.264C128.429 351.685 128.266 351.037 128.266 350.318C128.266 349.599 128.429 348.955 128.756 348.386C129.083 347.817 129.531 347.373 130.1 347.056C130.679 346.739 131.332 346.58 132.06 346.58C132.695 346.58 133.259 346.706 133.754 346.958C134.258 347.201 134.655 347.56 134.944 348.036L134.202 348.54C133.959 348.176 133.651 347.905 133.278 347.728C132.905 347.541 132.499 347.448 132.06 347.448C131.528 347.448 131.047 347.569 130.618 347.812C130.198 348.045 129.867 348.381 129.624 348.82C129.391 349.259 129.274 349.758 129.274 350.318C129.274 350.887 129.391 351.391 129.624 351.83C129.867 352.259 130.198 352.595 130.618 352.838C131.047 353.071 131.528 353.188 132.06 353.188C132.499 353.188 132.905 353.099 133.278 352.922C133.651 352.745 133.959 352.474 134.202 352.11L134.944 352.614C134.655 353.09 134.258 353.454 133.754 353.706C133.25 353.949 132.685 354.07 132.06 354.07ZM140.857 353.552C140.67 353.72 140.437 353.851 140.157 353.944C139.886 354.028 139.601 354.07 139.303 354.07C138.612 354.07 138.08 353.883 137.707 353.51C137.333 353.137 137.147 352.609 137.147 351.928V347.476H135.831V346.636H137.147V345.026H138.141V346.636H140.381V347.476H138.141V351.872C138.141 352.311 138.248 352.647 138.463 352.88C138.687 353.104 139.004 353.216 139.415 353.216C139.62 353.216 139.816 353.183 140.003 353.118C140.199 353.053 140.367 352.959 140.507 352.838L140.857 353.552ZM148.819 350.626H142.659C142.715 351.391 143.009 352.012 143.541 352.488C144.073 352.955 144.745 353.188 145.557 353.188C146.014 353.188 146.434 353.109 146.817 352.95C147.199 352.782 147.531 352.539 147.811 352.222L148.371 352.866C148.044 353.258 147.633 353.557 147.139 353.762C146.653 353.967 146.117 354.07 145.529 354.07C144.773 354.07 144.101 353.911 143.513 353.594C142.934 353.267 142.481 352.819 142.155 352.25C141.828 351.681 141.665 351.037 141.665 350.318C141.665 349.599 141.819 348.955 142.127 348.386C142.444 347.817 142.873 347.373 143.415 347.056C143.965 346.739 144.581 346.58 145.263 346.58C145.944 346.58 146.555 346.739 147.097 347.056C147.638 347.373 148.063 347.817 148.371 348.386C148.679 348.946 148.833 349.59 148.833 350.318L148.819 350.626ZM145.263 347.434C144.553 347.434 143.956 347.663 143.471 348.12C142.995 348.568 142.724 349.156 142.659 349.884H147.881C147.815 349.156 147.54 348.568 147.055 348.12C146.579 347.663 145.981 347.434 145.263 347.434ZM154.734 353.552C154.547 353.72 154.314 353.851 154.034 353.944C153.763 354.028 153.478 354.07 153.18 354.07C152.489 354.07 151.957 353.883 151.584 353.51C151.21 353.137 151.024 352.609 151.024 351.928V347.476H149.708V346.636H151.024V345.026H152.018V346.636H154.258V347.476H152.018V351.872C152.018 352.311 152.125 352.647 152.34 352.88C152.564 353.104 152.881 353.216 153.292 353.216C153.497 353.216 153.693 353.183 153.88 353.118C154.076 353.053 154.244 352.959 154.384 352.838L154.734 353.552ZM163.179 346.636V354H162.227V352.656C161.966 353.104 161.607 353.454 161.149 353.706C160.692 353.949 160.169 354.07 159.581 354.07C158.62 354.07 157.859 353.804 157.299 353.272C156.749 352.731 156.473 351.942 156.473 350.906V346.636H157.467V350.808C157.467 351.583 157.659 352.171 158.041 352.572C158.424 352.973 158.97 353.174 159.679 353.174C160.454 353.174 161.065 352.941 161.513 352.474C161.961 351.998 162.185 351.34 162.185 350.5V346.636H163.179ZM166.915 348.078C167.148 347.583 167.494 347.21 167.951 346.958C168.418 346.706 168.992 346.58 169.673 346.58V347.546L169.435 347.532C168.66 347.532 168.054 347.77 167.615 348.246C167.176 348.722 166.957 349.389 166.957 350.248V354H165.963V346.636H166.915V348.078ZM177.822 346.58C178.784 346.58 179.521 346.823 180.034 347.308C180.548 347.784 180.804 348.493 180.804 349.436V354H179.852V352.852C179.628 353.235 179.297 353.533 178.858 353.748C178.429 353.963 177.916 354.07 177.318 354.07C176.497 354.07 175.844 353.874 175.358 353.482C174.873 353.09 174.63 352.572 174.63 351.928C174.63 351.303 174.854 350.799 175.302 350.416C175.76 350.033 176.483 349.842 177.472 349.842H179.81V349.394C179.81 348.759 179.633 348.279 179.278 347.952C178.924 347.616 178.406 347.448 177.724 347.448C177.258 347.448 176.81 347.527 176.38 347.686C175.951 347.835 175.582 348.045 175.274 348.316L174.826 347.574C175.2 347.257 175.648 347.014 176.17 346.846C176.693 346.669 177.244 346.58 177.822 346.58ZM177.472 353.286C178.032 353.286 178.513 353.16 178.914 352.908C179.316 352.647 179.614 352.273 179.81 351.788V350.584H177.5C176.24 350.584 175.61 351.023 175.61 351.9C175.61 352.329 175.774 352.67 176.1 352.922C176.427 353.165 176.884 353.286 177.472 353.286ZM190.252 343.612V354H189.3V352.544C189.001 353.039 188.604 353.417 188.11 353.678C187.624 353.939 187.074 354.07 186.458 354.07C185.767 354.07 185.142 353.911 184.582 353.594C184.022 353.277 183.583 352.833 183.266 352.264C182.948 351.695 182.79 351.046 182.79 350.318C182.79 349.59 182.948 348.941 183.266 348.372C183.583 347.803 184.022 347.364 184.582 347.056C185.142 346.739 185.767 346.58 186.458 346.58C187.055 346.58 187.592 346.706 188.068 346.958C188.553 347.201 188.95 347.56 189.258 348.036V343.612H190.252ZM186.542 353.188C187.055 353.188 187.517 353.071 187.928 352.838C188.348 352.595 188.674 352.255 188.908 351.816C189.15 351.377 189.272 350.878 189.272 350.318C189.272 349.758 189.15 349.259 188.908 348.82C188.674 348.381 188.348 348.045 187.928 347.812C187.517 347.569 187.055 347.448 186.542 347.448C186.019 347.448 185.548 347.569 185.128 347.812C184.717 348.045 184.39 348.381 184.148 348.82C183.914 349.259 183.798 349.758 183.798 350.318C183.798 350.878 183.914 351.377 184.148 351.816C184.39 352.255 184.717 352.595 185.128 352.838C185.548 353.071 186.019 353.188 186.542 353.188ZM193.02 346.636H194.014V354H193.02V346.636ZM193.524 345.026C193.318 345.026 193.146 344.956 193.006 344.816C192.866 344.676 192.796 344.508 192.796 344.312C192.796 344.125 192.866 343.962 193.006 343.822C193.146 343.682 193.318 343.612 193.524 343.612C193.729 343.612 193.902 343.682 194.042 343.822C194.182 343.953 194.252 344.111 194.252 344.298C194.252 344.503 194.182 344.676 194.042 344.816C193.902 344.956 193.729 345.026 193.524 345.026ZM200.574 346.58C201.264 346.58 201.89 346.739 202.45 347.056C203.01 347.364 203.448 347.803 203.766 348.372C204.083 348.941 204.242 349.59 204.242 350.318C204.242 351.055 204.083 351.709 203.766 352.278C203.448 352.847 203.01 353.291 202.45 353.608C201.899 353.916 201.274 354.07 200.574 354.07C199.976 354.07 199.435 353.949 198.95 353.706C198.474 353.454 198.082 353.09 197.774 352.614V356.716H196.78V346.636H197.732V348.092C198.03 347.607 198.422 347.233 198.908 346.972C199.402 346.711 199.958 346.58 200.574 346.58ZM200.504 353.188C201.017 353.188 201.484 353.071 201.904 352.838C202.324 352.595 202.65 352.255 202.884 351.816C203.126 351.377 203.248 350.878 203.248 350.318C203.248 349.758 203.126 349.263 202.884 348.834C202.65 348.395 202.324 348.055 201.904 347.812C201.484 347.569 201.017 347.448 200.504 347.448C199.981 347.448 199.51 347.569 199.09 347.812C198.679 348.055 198.352 348.395 198.11 348.834C197.876 349.263 197.76 349.758 197.76 350.318C197.76 350.878 197.876 351.377 198.11 351.816C198.352 352.255 198.679 352.595 199.09 352.838C199.51 353.071 199.981 353.188 200.504 353.188ZM206.268 346.636H207.262V354H206.268V346.636ZM206.772 345.026C206.567 345.026 206.394 344.956 206.254 344.816C206.114 344.676 206.044 344.508 206.044 344.312C206.044 344.125 206.114 343.962 206.254 343.822C206.394 343.682 206.567 343.612 206.772 343.612C206.977 343.612 207.15 343.682 207.29 343.822C207.43 343.953 207.5 344.111 207.5 344.298C207.5 344.503 207.43 344.676 207.29 344.816C207.15 344.956 206.977 345.026 206.772 345.026ZM212.002 354.07C211.404 354.07 210.83 353.986 210.28 353.818C209.738 353.641 209.314 353.421 209.006 353.16L209.454 352.376C209.762 352.619 210.149 352.819 210.616 352.978C211.082 353.127 211.568 353.202 212.072 353.202C212.744 353.202 213.238 353.099 213.556 352.894C213.882 352.679 214.046 352.381 214.046 351.998C214.046 351.727 213.957 351.517 213.78 351.368C213.602 351.209 213.378 351.093 213.108 351.018C212.837 350.934 212.478 350.855 212.03 350.78C211.432 350.668 210.952 350.556 210.588 350.444C210.224 350.323 209.911 350.122 209.65 349.842C209.398 349.562 209.272 349.175 209.272 348.68C209.272 348.064 209.528 347.56 210.042 347.168C210.555 346.776 211.269 346.58 212.184 346.58C212.66 346.58 213.136 346.645 213.612 346.776C214.088 346.897 214.48 347.061 214.788 347.266L214.354 348.064C213.747 347.644 213.024 347.434 212.184 347.434C211.549 347.434 211.068 347.546 210.742 347.77C210.424 347.994 210.266 348.288 210.266 348.652C210.266 348.932 210.354 349.156 210.532 349.324C210.718 349.492 210.947 349.618 211.218 349.702C211.488 349.777 211.862 349.856 212.338 349.94C212.926 350.052 213.397 350.164 213.752 350.276C214.106 350.388 214.41 350.579 214.662 350.85C214.914 351.121 215.04 351.494 215.04 351.97C215.04 352.614 214.769 353.127 214.228 353.51C213.696 353.883 212.954 354.07 212.002 354.07ZM219.929 354.07C219.201 354.07 218.548 353.911 217.969 353.594C217.4 353.277 216.952 352.833 216.625 352.264C216.299 351.685 216.135 351.037 216.135 350.318C216.135 349.599 216.299 348.955 216.625 348.386C216.952 347.817 217.4 347.373 217.969 347.056C218.548 346.739 219.201 346.58 219.929 346.58C220.564 346.58 221.129 346.706 221.623 346.958C222.127 347.201 222.524 347.56 222.813 348.036L222.071 348.54C221.829 348.176 221.521 347.905 221.147 347.728C220.774 347.541 220.368 347.448 219.929 347.448C219.397 347.448 218.917 347.569 218.487 347.812C218.067 348.045 217.736 348.381 217.493 348.82C217.26 349.259 217.143 349.758 217.143 350.318C217.143 350.887 217.26 351.391 217.493 351.83C217.736 352.259 218.067 352.595 218.487 352.838C218.917 353.071 219.397 353.188 219.929 353.188C220.368 353.188 220.774 353.099 221.147 352.922C221.521 352.745 221.829 352.474 222.071 352.11L222.813 352.614C222.524 353.09 222.127 353.454 221.623 353.706C221.119 353.949 220.555 354.07 219.929 354.07ZM224.766 346.636H225.76V354H224.766V346.636ZM225.27 345.026C225.065 345.026 224.892 344.956 224.752 344.816C224.612 344.676 224.542 344.508 224.542 344.312C224.542 344.125 224.612 343.962 224.752 343.822C224.892 343.682 225.065 343.612 225.27 343.612C225.475 343.612 225.648 343.682 225.788 343.822C225.928 343.953 225.998 344.111 225.998 344.298C225.998 344.503 225.928 344.676 225.788 344.816C225.648 344.956 225.475 345.026 225.27 345.026ZM232.278 346.58C233.202 346.58 233.934 346.851 234.476 347.392C235.026 347.924 235.302 348.703 235.302 349.73V354H234.308V349.828C234.308 349.063 234.116 348.479 233.734 348.078C233.351 347.677 232.805 347.476 232.096 347.476C231.302 347.476 230.672 347.714 230.206 348.19C229.748 348.657 229.52 349.305 229.52 350.136V354H228.526V346.636H229.478V347.994C229.748 347.546 230.122 347.201 230.598 346.958C231.083 346.706 231.643 346.58 232.278 346.58ZM244.846 346.636V353.104C244.846 354.355 244.538 355.279 243.922 355.876C243.315 356.483 242.396 356.786 241.164 356.786C240.482 356.786 239.834 356.683 239.218 356.478C238.611 356.282 238.116 356.007 237.734 355.652L238.238 354.896C238.592 355.213 239.022 355.461 239.526 355.638C240.039 355.815 240.576 355.904 241.136 355.904C242.069 355.904 242.755 355.685 243.194 355.246C243.632 354.817 243.852 354.145 243.852 353.23V352.292C243.544 352.759 243.138 353.113 242.634 353.356C242.139 353.599 241.588 353.72 240.982 353.72C240.291 353.72 239.661 353.571 239.092 353.272C238.532 352.964 238.088 352.539 237.762 351.998C237.444 351.447 237.286 350.827 237.286 350.136C237.286 349.445 237.444 348.829 237.762 348.288C238.088 347.747 238.532 347.327 239.092 347.028C239.652 346.729 240.282 346.58 240.982 346.58C241.607 346.58 242.172 346.706 242.676 346.958C243.18 347.21 243.586 347.574 243.894 348.05V346.636H244.846ZM241.08 352.838C241.612 352.838 242.092 352.726 242.522 352.502C242.951 352.269 243.282 351.947 243.516 351.536C243.758 351.125 243.88 350.659 243.88 350.136C243.88 349.613 243.758 349.151 243.516 348.75C243.282 348.339 242.951 348.022 242.522 347.798C242.102 347.565 241.621 347.448 241.08 347.448C240.548 347.448 240.067 347.56 239.638 347.784C239.218 348.008 238.886 348.325 238.644 348.736C238.41 349.147 238.294 349.613 238.294 350.136C238.294 350.659 238.41 351.125 238.644 351.536C238.886 351.947 239.218 352.269 239.638 352.502C240.067 352.726 240.548 352.838 241.08 352.838ZM257.701 350.626H251.541C251.597 351.391 251.891 352.012 252.423 352.488C252.955 352.955 253.627 353.188 254.439 353.188C254.897 353.188 255.317 353.109 255.699 352.95C256.082 352.782 256.413 352.539 256.693 352.222L257.253 352.866C256.927 353.258 256.516 353.557 256.021 353.762C255.536 353.967 254.999 354.07 254.411 354.07C253.655 354.07 252.983 353.911 252.395 353.594C251.817 353.267 251.364 352.819 251.037 352.25C250.711 351.681 250.547 351.037 250.547 350.318C250.547 349.599 250.701 348.955 251.009 348.386C251.327 347.817 251.756 347.373 252.297 347.056C252.848 346.739 253.464 346.58 254.145 346.58C254.827 346.58 255.438 346.739 255.979 347.056C256.521 347.373 256.945 347.817 257.253 348.386C257.561 348.946 257.715 349.59 257.715 350.318L257.701 350.626ZM254.145 347.434C253.436 347.434 252.839 347.663 252.353 348.12C251.877 348.568 251.607 349.156 251.541 349.884H256.763C256.698 349.156 256.423 348.568 255.937 348.12C255.461 347.663 254.864 347.434 254.145 347.434ZM259.739 343.612H260.733V354H259.739V343.612ZM263.498 346.636H264.492V354H263.498V346.636ZM264.002 345.026C263.797 345.026 263.624 344.956 263.484 344.816C263.344 344.676 263.274 344.508 263.274 344.312C263.274 344.125 263.344 343.962 263.484 343.822C263.624 343.682 263.797 343.612 264.002 343.612C264.208 343.612 264.38 343.682 264.52 343.822C264.66 343.953 264.73 344.111 264.73 344.298C264.73 344.503 264.66 344.676 264.52 344.816C264.38 344.956 264.208 345.026 264.002 345.026ZM271.136 353.552C270.949 353.72 270.716 353.851 270.436 353.944C270.165 354.028 269.881 354.07 269.582 354.07C268.891 354.07 268.359 353.883 267.986 353.51C267.613 353.137 267.426 352.609 267.426 351.928V347.476H266.11V346.636H267.426V345.026H268.42V346.636H270.66V347.476H268.42V351.872C268.42 352.311 268.527 352.647 268.742 352.88C268.966 353.104 269.283 353.216 269.694 353.216C269.899 353.216 270.095 353.183 270.282 353.118C270.478 353.053 270.646 352.959 270.786 352.838L271.136 353.552ZM273.18 354.07C272.975 354.07 272.798 353.995 272.648 353.846C272.508 353.697 272.438 353.515 272.438 353.3C272.438 353.085 272.508 352.908 272.648 352.768C272.798 352.619 272.975 352.544 273.18 352.544C273.386 352.544 273.563 352.619 273.712 352.768C273.862 352.908 273.936 353.085 273.936 353.3C273.936 353.515 273.862 353.697 273.712 353.846C273.563 353.995 273.386 354.07 273.18 354.07ZM279.923 344.2H283.913C284.949 344.2 285.864 344.41 286.657 344.83C287.45 345.241 288.066 345.819 288.505 346.566C288.944 347.303 289.163 348.148 289.163 349.1C289.163 350.052 288.944 350.901 288.505 351.648C288.066 352.385 287.45 352.964 286.657 353.384C285.864 353.795 284.949 354 283.913 354H279.923V344.2ZM283.857 353.104C284.716 353.104 285.467 352.936 286.111 352.6C286.755 352.255 287.254 351.783 287.609 351.186C287.964 350.579 288.141 349.884 288.141 349.1C288.141 348.316 287.964 347.625 287.609 347.028C287.254 346.421 286.755 345.95 286.111 345.614C285.467 345.269 284.716 345.096 283.857 345.096H280.959V353.104H283.857ZM297.916 346.636V354H296.964V352.656C296.702 353.104 296.343 353.454 295.886 353.706C295.428 353.949 294.906 354.07 294.318 354.07C293.356 354.07 292.596 353.804 292.036 353.272C291.485 352.731 291.21 351.942 291.21 350.906V346.636H292.204V350.808C292.204 351.583 292.395 352.171 292.778 352.572C293.16 352.973 293.706 353.174 294.416 353.174C295.19 353.174 295.802 352.941 296.25 352.474C296.698 351.998 296.922 351.34 296.922 350.5V346.636H297.916ZM300.699 346.636H301.693V354H300.699V346.636ZM301.203 345.026C300.998 345.026 300.825 344.956 300.685 344.816C300.545 344.676 300.475 344.508 300.475 344.312C300.475 344.125 300.545 343.962 300.685 343.822C300.825 343.682 300.998 343.612 301.203 343.612C301.409 343.612 301.581 343.682 301.721 343.822C301.861 343.953 301.931 344.111 301.931 344.298C301.931 344.503 301.861 344.676 301.721 344.816C301.581 344.956 301.409 345.026 301.203 345.026ZM306.433 354.07C305.836 354.07 305.262 353.986 304.711 353.818C304.17 353.641 303.745 353.421 303.437 353.16L303.885 352.376C304.193 352.619 304.581 352.819 305.047 352.978C305.514 353.127 305.999 353.202 306.503 353.202C307.175 353.202 307.67 353.099 307.987 352.894C308.314 352.679 308.477 352.381 308.477 351.998C308.477 351.727 308.389 351.517 308.211 351.368C308.034 351.209 307.81 351.093 307.539 351.018C307.269 350.934 306.909 350.855 306.461 350.78C305.864 350.668 305.383 350.556 305.019 350.444C304.655 350.323 304.343 350.122 304.081 349.842C303.829 349.562 303.703 349.175 303.703 348.68C303.703 348.064 303.96 347.56 304.473 347.168C304.987 346.776 305.701 346.58 306.615 346.58C307.091 346.58 307.567 346.645 308.043 346.776C308.519 346.897 308.911 347.061 309.219 347.266L308.785 348.064C308.179 347.644 307.455 347.434 306.615 347.434C305.981 347.434 305.5 347.546 305.173 347.77C304.856 347.994 304.697 348.288 304.697 348.652C304.697 348.932 304.786 349.156 304.963 349.324C305.15 349.492 305.379 349.618 305.649 349.702C305.92 349.777 306.293 349.856 306.769 349.94C307.357 350.052 307.829 350.164 308.183 350.276C308.538 350.388 308.841 350.579 309.093 350.85C309.345 351.121 309.471 351.494 309.471 351.97C309.471 352.614 309.201 353.127 308.659 353.51C308.127 353.883 307.385 354.07 306.433 354.07ZM321.609 346.636V354H320.657V352.656C320.396 353.104 320.036 353.454 319.579 353.706C319.122 353.949 318.599 354.07 318.011 354.07C317.05 354.07 316.289 353.804 315.729 353.272C315.178 352.731 314.903 351.942 314.903 350.906V346.636H315.897V350.808C315.897 351.583 316.088 352.171 316.471 352.572C316.854 352.973 317.4 353.174 318.109 353.174C318.884 353.174 319.495 352.941 319.943 352.474C320.391 351.998 320.615 351.34 320.615 350.5V346.636H321.609ZM328.271 353.552C328.084 353.72 327.851 353.851 327.571 353.944C327.3 354.028 327.016 354.07 326.717 354.07C326.026 354.07 325.494 353.883 325.121 353.51C324.748 353.137 324.561 352.609 324.561 351.928V347.476H323.245V346.636H324.561V345.026H325.555V346.636H327.795V347.476H325.555V351.872C325.555 352.311 325.662 352.647 325.877 352.88C326.101 353.104 326.418 353.216 326.829 353.216C327.034 353.216 327.23 353.183 327.417 353.118C327.613 353.053 327.781 352.959 327.921 352.838L328.271 353.552ZM96.8952 368.382C96.4659 368.382 96.1392 368.499 95.9152 368.732C95.7006 368.965 95.5932 369.311 95.5932 369.768V370.636H97.8612V371.476H95.6212V378H94.6272V371.476H93.3112V370.636H94.6272V369.726C94.6272 369.054 94.8186 368.522 95.2012 368.13C95.5932 367.738 96.1439 367.542 96.8532 367.542C97.1332 367.542 97.4039 367.584 97.6652 367.668C97.9266 367.743 98.1459 367.855 98.3232 368.004L97.9872 368.746C97.6979 368.503 97.3339 368.382 96.8952 368.382ZM101.276 372.078C101.51 371.583 101.855 371.21 102.312 370.958C102.779 370.706 103.353 370.58 104.034 370.58V371.546L103.796 371.532C103.022 371.532 102.415 371.77 101.976 372.246C101.538 372.722 101.318 373.389 101.318 374.248V378H100.324V370.636H101.276V372.078ZM105.834 370.636H106.828V378H105.834V370.636ZM106.338 369.026C106.133 369.026 105.96 368.956 105.82 368.816C105.68 368.676 105.61 368.508 105.61 368.312C105.61 368.125 105.68 367.962 105.82 367.822C105.96 367.682 106.133 367.612 106.338 367.612C106.544 367.612 106.716 367.682 106.856 367.822C106.996 367.953 107.066 368.111 107.066 368.298C107.066 368.503 106.996 368.676 106.856 368.816C106.716 368.956 106.544 369.026 106.338 369.026ZM113.346 370.58C114.27 370.58 115.003 370.851 115.544 371.392C116.095 371.924 116.37 372.703 116.37 373.73V378H115.376V373.828C115.376 373.063 115.185 372.479 114.802 372.078C114.419 371.677 113.873 371.476 113.164 371.476C112.371 371.476 111.741 371.714 111.274 372.19C110.817 372.657 110.588 373.305 110.588 374.136V378H109.594V370.636H110.546V371.994C110.817 371.546 111.19 371.201 111.666 370.958C112.151 370.706 112.711 370.58 113.346 370.58ZM125.914 370.636V377.104C125.914 378.355 125.606 379.279 124.99 379.876C124.383 380.483 123.464 380.786 122.232 380.786C121.551 380.786 120.902 380.683 120.286 380.478C119.679 380.282 119.185 380.007 118.802 379.652L119.306 378.896C119.661 379.213 120.09 379.461 120.594 379.638C121.107 379.815 121.644 379.904 122.204 379.904C123.137 379.904 123.823 379.685 124.262 379.246C124.701 378.817 124.92 378.145 124.92 377.23V376.292C124.612 376.759 124.206 377.113 123.702 377.356C123.207 377.599 122.657 377.72 122.05 377.72C121.359 377.72 120.729 377.571 120.16 377.272C119.6 376.964 119.157 376.539 118.83 375.998C118.513 375.447 118.354 374.827 118.354 374.136C118.354 373.445 118.513 372.829 118.83 372.288C119.157 371.747 119.6 371.327 120.16 371.028C120.72 370.729 121.35 370.58 122.05 370.58C122.675 370.58 123.24 370.706 123.744 370.958C124.248 371.21 124.654 371.574 124.962 372.05V370.636H125.914ZM122.148 376.838C122.68 376.838 123.161 376.726 123.59 376.502C124.019 376.269 124.351 375.947 124.584 375.536C124.827 375.125 124.948 374.659 124.948 374.136C124.948 373.613 124.827 373.151 124.584 372.75C124.351 372.339 124.019 372.022 123.59 371.798C123.17 371.565 122.689 371.448 122.148 371.448C121.616 371.448 121.135 371.56 120.706 371.784C120.286 372.008 119.955 372.325 119.712 372.736C119.479 373.147 119.362 373.613 119.362 374.136C119.362 374.659 119.479 375.125 119.712 375.536C119.955 375.947 120.286 376.269 120.706 376.502C121.135 376.726 121.616 376.838 122.148 376.838ZM128.694 370.636H129.688V378H128.694V370.636ZM129.198 369.026C128.992 369.026 128.82 368.956 128.68 368.816C128.54 368.676 128.47 368.508 128.47 368.312C128.47 368.125 128.54 367.962 128.68 367.822C128.82 367.682 128.992 367.612 129.198 367.612C129.403 367.612 129.576 367.682 129.716 367.822C129.856 367.953 129.926 368.111 129.926 368.298C129.926 368.503 129.856 368.676 129.716 368.816C129.576 368.956 129.403 369.026 129.198 369.026ZM132.453 367.612H133.447V378H132.453V367.612ZM136.213 367.612H137.207V378H136.213V367.612ZM142.549 370.58C143.51 370.58 144.248 370.823 144.761 371.308C145.274 371.784 145.531 372.493 145.531 373.436V378H144.579V376.852C144.355 377.235 144.024 377.533 143.585 377.748C143.156 377.963 142.642 378.07 142.045 378.07C141.224 378.07 140.57 377.874 140.085 377.482C139.6 377.09 139.357 376.572 139.357 375.928C139.357 375.303 139.581 374.799 140.029 374.416C140.486 374.033 141.21 373.842 142.199 373.842H144.537V373.394C144.537 372.759 144.36 372.279 144.005 371.952C143.65 371.616 143.132 371.448 142.451 371.448C141.984 371.448 141.536 371.527 141.107 371.686C140.678 371.835 140.309 372.045 140.001 372.316L139.553 371.574C139.926 371.257 140.374 371.014 140.897 370.846C141.42 370.669 141.97 370.58 142.549 370.58ZM142.199 377.286C142.759 377.286 143.24 377.16 143.641 376.908C144.042 376.647 144.341 376.273 144.537 375.788V374.584H142.227C140.967 374.584 140.337 375.023 140.337 375.9C140.337 376.329 140.5 376.67 140.827 376.922C141.154 377.165 141.611 377.286 142.199 377.286ZM154.905 378.07C154.195 378.07 153.556 377.911 152.987 377.594C152.417 377.267 151.969 376.819 151.643 376.25C151.316 375.681 151.153 375.037 151.153 374.318C151.153 373.599 151.316 372.955 151.643 372.386C151.969 371.817 152.417 371.373 152.987 371.056C153.556 370.739 154.195 370.58 154.905 370.58C155.614 370.58 156.253 370.739 156.823 371.056C157.392 371.373 157.835 371.817 158.153 372.386C158.479 372.955 158.643 373.599 158.643 374.318C158.643 375.037 158.479 375.681 158.153 376.25C157.835 376.819 157.392 377.267 156.823 377.594C156.253 377.911 155.614 378.07 154.905 378.07ZM154.905 377.188C155.427 377.188 155.894 377.071 156.305 376.838C156.725 376.595 157.051 376.255 157.285 375.816C157.518 375.377 157.635 374.878 157.635 374.318C157.635 373.758 157.518 373.259 157.285 372.82C157.051 372.381 156.725 372.045 156.305 371.812C155.894 371.569 155.427 371.448 154.905 371.448C154.382 371.448 153.911 371.569 153.491 371.812C153.08 372.045 152.753 372.381 152.511 372.82C152.277 373.259 152.161 373.758 152.161 374.318C152.161 374.878 152.277 375.377 152.511 375.816C152.753 376.255 153.08 376.595 153.491 376.838C153.911 377.071 154.382 377.188 154.905 377.188ZM161.624 372.078C161.857 371.583 162.203 371.21 162.66 370.958C163.127 370.706 163.701 370.58 164.382 370.58V371.546L164.144 371.532C163.369 371.532 162.763 371.77 162.324 372.246C161.885 372.722 161.666 373.389 161.666 374.248V378H160.672V370.636H161.624V372.078ZM169.166 378.07C168.438 378.07 167.784 377.911 167.206 377.594C166.636 377.277 166.188 376.833 165.862 376.264C165.535 375.685 165.372 375.037 165.372 374.318C165.372 373.599 165.535 372.955 165.862 372.386C166.188 371.817 166.636 371.373 167.206 371.056C167.784 370.739 168.438 370.58 169.166 370.58C169.8 370.58 170.365 370.706 170.86 370.958C171.364 371.201 171.76 371.56 172.05 372.036L171.308 372.54C171.065 372.176 170.757 371.905 170.384 371.728C170.01 371.541 169.604 371.448 169.166 371.448C168.634 371.448 168.153 371.569 167.724 371.812C167.304 372.045 166.972 372.381 166.73 372.82C166.496 373.259 166.38 373.758 166.38 374.318C166.38 374.887 166.496 375.391 166.73 375.83C166.972 376.259 167.304 376.595 167.724 376.838C168.153 377.071 168.634 377.188 169.166 377.188C169.604 377.188 170.01 377.099 170.384 376.922C170.757 376.745 171.065 376.474 171.308 376.11L172.05 376.614C171.76 377.09 171.364 377.454 170.86 377.706C170.356 377.949 169.791 378.07 169.166 378.07ZM174.002 370.636H174.996V378H174.002V370.636ZM174.506 369.026C174.301 369.026 174.128 368.956 173.988 368.816C173.848 368.676 173.778 368.508 173.778 368.312C173.778 368.125 173.848 367.962 173.988 367.822C174.128 367.682 174.301 367.612 174.506 367.612C174.712 367.612 174.884 367.682 175.024 367.822C175.164 367.953 175.234 368.111 175.234 368.298C175.234 368.503 175.164 368.676 175.024 368.816C174.884 368.956 174.712 369.026 174.506 369.026ZM187.614 370.636L184.338 378H183.316L180.054 370.636H181.09L183.848 376.908L186.634 370.636H187.614ZM189.014 370.636H190.008V378H189.014V370.636ZM189.518 369.026C189.313 369.026 189.14 368.956 189 368.816C188.86 368.676 188.79 368.508 188.79 368.312C188.79 368.125 188.86 367.962 189 367.822C189.14 367.682 189.313 367.612 189.518 367.612C189.723 367.612 189.896 367.682 190.036 367.822C190.176 367.953 190.246 368.111 190.246 368.298C190.246 368.503 190.176 368.676 190.036 368.816C189.896 368.956 189.723 369.026 189.518 369.026ZM198.962 370.636L195.686 378H194.664L191.402 370.636H192.438L195.196 376.908L197.982 370.636H198.962ZM206.569 374.626H200.409C200.465 375.391 200.759 376.012 201.291 376.488C201.823 376.955 202.495 377.188 203.307 377.188C203.764 377.188 204.184 377.109 204.567 376.95C204.949 376.782 205.281 376.539 205.561 376.222L206.121 376.866C205.794 377.258 205.383 377.557 204.889 377.762C204.403 377.967 203.867 378.07 203.279 378.07C202.523 378.07 201.851 377.911 201.263 377.594C200.684 377.267 200.231 376.819 199.905 376.25C199.578 375.681 199.415 375.037 199.415 374.318C199.415 373.599 199.569 372.955 199.877 372.386C200.194 371.817 200.623 371.373 201.165 371.056C201.715 370.739 202.331 370.58 203.013 370.58C203.694 370.58 204.305 370.739 204.847 371.056C205.388 371.373 205.813 371.817 206.121 372.386C206.429 372.946 206.583 373.59 206.583 374.318L206.569 374.626ZM203.013 371.434C202.303 371.434 201.706 371.663 201.221 372.12C200.745 372.568 200.474 373.156 200.409 373.884H205.631C205.565 373.156 205.29 372.568 204.805 372.12C204.329 371.663 203.731 371.434 203.013 371.434ZM209.558 372.078C209.791 371.583 210.136 371.21 210.594 370.958C211.06 370.706 211.634 370.58 212.316 370.58V371.546L212.078 371.532C211.303 371.532 210.696 371.77 210.258 372.246C209.819 372.722 209.6 373.389 209.6 374.248V378H208.606V370.636H209.558V372.078ZM215.067 372.078C215.301 371.583 215.646 371.21 216.103 370.958C216.57 370.706 217.144 370.58 217.825 370.58V371.546L217.587 371.532C216.813 371.532 216.206 371.77 215.767 372.246C215.329 372.722 215.109 373.389 215.109 374.248V378H214.115V370.636H215.067V372.078ZM222.188 370.58C223.149 370.58 223.886 370.823 224.4 371.308C224.913 371.784 225.17 372.493 225.17 373.436V378H224.218V376.852C223.994 377.235 223.662 377.533 223.224 377.748C222.794 377.963 222.281 378.07 221.684 378.07C220.862 378.07 220.209 377.874 219.724 377.482C219.238 377.09 218.996 376.572 218.996 375.928C218.996 375.303 219.22 374.799 219.668 374.416C220.125 374.033 220.848 373.842 221.838 373.842H224.176V373.394C224.176 372.759 223.998 372.279 223.644 371.952C223.289 371.616 222.771 371.448 222.09 371.448C221.623 371.448 221.175 371.527 220.746 371.686C220.316 371.835 219.948 372.045 219.64 372.316L219.192 371.574C219.565 371.257 220.013 371.014 220.536 370.846C221.058 370.669 221.609 370.58 222.188 370.58ZM221.838 377.286C222.398 377.286 222.878 377.16 223.28 376.908C223.681 376.647 223.98 376.273 224.176 375.788V374.584H221.866C220.606 374.584 219.976 375.023 219.976 375.9C219.976 376.329 220.139 376.67 220.466 376.922C220.792 377.165 221.25 377.286 221.838 377.286ZM235.285 370.58C236.209 370.58 236.942 370.851 237.483 371.392C238.034 371.924 238.309 372.703 238.309 373.73V378H237.315V373.828C237.315 373.063 237.124 372.479 236.741 372.078C236.359 371.677 235.813 371.476 235.103 371.476C234.31 371.476 233.68 371.714 233.213 372.19C232.756 372.657 232.527 373.305 232.527 374.136V378H231.533V370.636H232.485V371.994C232.756 371.546 233.129 371.201 233.605 370.958C234.091 370.706 234.651 370.58 235.285 370.58ZM247.644 370.636V378H246.692V376.656C246.431 377.104 246.071 377.454 245.614 377.706C245.157 377.949 244.634 378.07 244.046 378.07C243.085 378.07 242.324 377.804 241.764 377.272C241.213 376.731 240.938 375.942 240.938 374.906V370.636H241.932V374.808C241.932 375.583 242.123 376.171 242.506 376.572C242.889 376.973 243.435 377.174 244.144 377.174C244.919 377.174 245.53 376.941 245.978 376.474C246.426 375.998 246.65 375.34 246.65 374.5V370.636H247.644ZM250.428 367.612H251.422V378H250.428V367.612ZM254.188 367.612H255.182V378H254.188V367.612ZM260.524 370.58C261.485 370.58 262.222 370.823 262.736 371.308C263.249 371.784 263.506 372.493 263.506 373.436V378H262.554V376.852C262.33 377.235 261.998 377.533 261.56 377.748C261.13 377.963 260.617 378.07 260.02 378.07C259.198 378.07 258.545 377.874 258.06 377.482C257.574 377.09 257.332 376.572 257.332 375.928C257.332 375.303 257.556 374.799 258.004 374.416C258.461 374.033 259.184 373.842 260.174 373.842H262.512V373.394C262.512 372.759 262.334 372.279 261.98 371.952C261.625 371.616 261.107 371.448 260.426 371.448C259.959 371.448 259.511 371.527 259.082 371.686C258.652 371.835 258.284 372.045 257.976 372.316L257.528 371.574C257.901 371.257 258.349 371.014 258.872 370.846C259.394 370.669 259.945 370.58 260.524 370.58ZM260.174 377.286C260.734 377.286 261.214 377.16 261.616 376.908C262.017 376.647 262.316 376.273 262.512 375.788V374.584H260.202C258.942 374.584 258.312 375.023 258.312 375.9C258.312 376.329 258.475 376.67 258.802 376.922C259.128 377.165 259.586 377.286 260.174 377.286ZM275.389 370.58C276.313 370.58 277.037 370.846 277.559 371.378C278.091 371.91 278.357 372.694 278.357 373.73V378H277.363V373.828C277.363 373.063 277.177 372.479 276.803 372.078C276.439 371.677 275.921 371.476 275.249 371.476C274.484 371.476 273.882 371.714 273.443 372.19C273.005 372.657 272.785 373.305 272.785 374.136V378H271.791V373.828C271.791 373.063 271.605 372.479 271.231 372.078C270.867 371.677 270.345 371.476 269.663 371.476C268.907 371.476 268.305 371.714 267.857 372.19C267.419 372.657 267.199 373.305 267.199 374.136V378H266.205V370.636H267.157V371.98C267.419 371.532 267.783 371.187 268.249 370.944C268.716 370.701 269.253 370.58 269.859 370.58C270.475 370.58 271.007 370.711 271.455 370.972C271.913 371.233 272.253 371.621 272.477 372.134C272.748 371.649 273.135 371.271 273.639 371C274.153 370.72 274.736 370.58 275.389 370.58ZM284.717 367.612H285.711V378H284.717V367.612ZM294.889 374.626H288.729C288.785 375.391 289.079 376.012 289.611 376.488C290.143 376.955 290.815 377.188 291.627 377.188C292.084 377.188 292.504 377.109 292.887 376.95C293.269 376.782 293.601 376.539 293.881 376.222L294.441 376.866C294.114 377.258 293.703 377.557 293.209 377.762C292.723 377.967 292.187 378.07 291.599 378.07C290.843 378.07 290.171 377.911 289.583 377.594C289.004 377.267 288.551 376.819 288.225 376.25C287.898 375.681 287.735 375.037 287.735 374.318C287.735 373.599 287.889 372.955 288.197 372.386C288.514 371.817 288.943 371.373 289.485 371.056C290.035 370.739 290.651 370.58 291.333 370.58C292.014 370.58 292.625 370.739 293.167 371.056C293.708 371.373 294.133 371.817 294.441 372.386C294.749 372.946 294.903 373.59 294.903 374.318L294.889 374.626ZM291.333 371.434C290.623 371.434 290.026 371.663 289.541 372.12C289.065 372.568 288.794 373.156 288.729 373.884H293.951C293.885 373.156 293.61 372.568 293.125 372.12C292.649 371.663 292.051 371.434 291.333 371.434ZM299.936 378.07C299.227 378.07 298.587 377.911 298.018 377.594C297.449 377.267 297.001 376.819 296.674 376.25C296.347 375.681 296.184 375.037 296.184 374.318C296.184 373.599 296.347 372.955 296.674 372.386C297.001 371.817 297.449 371.373 298.018 371.056C298.587 370.739 299.227 370.58 299.936 370.58C300.645 370.58 301.285 370.739 301.854 371.056C302.423 371.373 302.867 371.817 303.184 372.386C303.511 372.955 303.674 373.599 303.674 374.318C303.674 375.037 303.511 375.681 303.184 376.25C302.867 376.819 302.423 377.267 301.854 377.594C301.285 377.911 300.645 378.07 299.936 378.07ZM299.936 377.188C300.459 377.188 300.925 377.071 301.336 376.838C301.756 376.595 302.083 376.255 302.316 375.816C302.549 375.377 302.666 374.878 302.666 374.318C302.666 373.758 302.549 373.259 302.316 372.82C302.083 372.381 301.756 372.045 301.336 371.812C300.925 371.569 300.459 371.448 299.936 371.448C299.413 371.448 298.942 371.569 298.522 371.812C298.111 372.045 297.785 372.381 297.542 372.82C297.309 373.259 297.192 373.758 297.192 374.318C297.192 374.878 297.309 375.377 297.542 375.816C297.785 376.255 298.111 376.595 298.522 376.838C298.942 377.071 299.413 377.188 299.936 377.188ZM311.943 370.58C312.905 370.58 313.642 370.823 314.155 371.308C314.669 371.784 314.925 372.493 314.925 373.436V378H313.973V376.852C313.749 377.235 313.418 377.533 312.979 377.748C312.55 377.963 312.037 378.07 311.439 378.07C310.618 378.07 309.965 377.874 309.479 377.482C308.994 377.09 308.751 376.572 308.751 375.928C308.751 375.303 308.975 374.799 309.423 374.416C309.881 374.033 310.604 373.842 311.593 373.842H313.931V373.394C313.931 372.759 313.754 372.279 313.399 371.952C313.045 371.616 312.527 371.448 311.845 371.448C311.379 371.448 310.931 371.527 310.501 371.686C310.072 371.835 309.703 372.045 309.395 372.316L308.947 371.574C309.321 371.257 309.769 371.014 310.291 370.846C310.814 370.669 311.365 370.58 311.943 370.58ZM311.593 377.286C312.153 377.286 312.634 377.16 313.035 376.908C313.437 376.647 313.735 376.273 313.931 375.788V374.584H311.621C310.361 374.584 309.731 375.023 309.731 375.9C309.731 376.329 309.895 376.67 310.221 376.922C310.548 377.165 311.005 377.286 311.593 377.286ZM321.503 377.552C321.317 377.72 321.083 377.851 320.803 377.944C320.533 378.028 320.248 378.07 319.949 378.07C319.259 378.07 318.727 377.883 318.353 377.51C317.98 377.137 317.793 376.609 317.793 375.928V371.476H316.477V370.636H317.793V369.026H318.787V370.636H321.027V371.476H318.787V375.872C318.787 376.311 318.895 376.647 319.109 376.88C319.333 377.104 319.651 377.216 320.061 377.216C320.267 377.216 320.463 377.183 320.649 377.118C320.845 377.053 321.013 376.959 321.153 376.838L321.503 377.552ZM163.386 398.626H157.226C157.282 399.391 157.576 400.012 158.108 400.488C158.64 400.955 159.312 401.188 160.124 401.188C160.581 401.188 161.001 401.109 161.384 400.95C161.767 400.782 162.098 400.539 162.378 400.222L162.938 400.866C162.611 401.258 162.201 401.557 161.706 401.762C161.221 401.967 160.684 402.07 160.096 402.07C159.34 402.07 158.668 401.911 158.08 401.594C157.501 401.267 157.049 400.819 156.722 400.25C156.395 399.681 156.232 399.037 156.232 398.318C156.232 397.599 156.386 396.955 156.694 396.386C157.011 395.817 157.441 395.373 157.982 395.056C158.533 394.739 159.149 394.58 159.83 394.58C160.511 394.58 161.123 394.739 161.664 395.056C162.205 395.373 162.63 395.817 162.938 396.386C163.246 396.946 163.4 397.59 163.4 398.318L163.386 398.626ZM159.83 395.434C159.121 395.434 158.523 395.663 158.038 396.12C157.562 396.568 157.291 397.156 157.226 397.884H162.448C162.383 397.156 162.107 396.568 161.622 396.12C161.146 395.663 160.549 395.434 159.83 395.434ZM165.423 391.612H166.417V402H165.423V391.612ZM175.595 398.626H169.435C169.491 399.391 169.785 400.012 170.317 400.488C170.849 400.955 171.521 401.188 172.333 401.188C172.79 401.188 173.21 401.109 173.593 400.95C173.976 400.782 174.307 400.539 174.587 400.222L175.147 400.866C174.82 401.258 174.41 401.557 173.915 401.762C173.43 401.967 172.893 402.07 172.305 402.07C171.549 402.07 170.877 401.911 170.289 401.594C169.71 401.267 169.258 400.819 168.931 400.25C168.604 399.681 168.441 399.037 168.441 398.318C168.441 397.599 168.595 396.955 168.903 396.386C169.22 395.817 169.65 395.373 170.191 395.056C170.742 394.739 171.358 394.58 172.039 394.58C172.72 394.58 173.332 394.739 173.873 395.056C174.414 395.373 174.839 395.817 175.147 396.386C175.455 396.946 175.609 397.59 175.609 398.318L175.595 398.626ZM172.039 395.434C171.33 395.434 170.732 395.663 170.247 396.12C169.771 396.568 169.5 397.156 169.435 397.884H174.657C174.592 397.156 174.316 396.568 173.831 396.12C173.355 395.663 172.758 395.434 172.039 395.434ZM177.632 394.636H178.626V402H177.632V394.636ZM178.136 393.026C177.931 393.026 177.758 392.956 177.618 392.816C177.478 392.676 177.408 392.508 177.408 392.312C177.408 392.125 177.478 391.962 177.618 391.822C177.758 391.682 177.931 391.612 178.136 391.612C178.341 391.612 178.514 391.682 178.654 391.822C178.794 391.953 178.864 392.111 178.864 392.298C178.864 392.503 178.794 392.676 178.654 392.816C178.514 392.956 178.341 393.026 178.136 393.026ZM183.828 392.382C183.399 392.382 183.072 392.499 182.848 392.732C182.633 392.965 182.526 393.311 182.526 393.768V394.636H184.794V395.476H182.554V402H181.56V395.476H180.244V394.636H181.56V393.726C181.56 393.054 181.751 392.522 182.134 392.13C182.526 391.738 183.077 391.542 183.786 391.542C184.066 391.542 184.337 391.584 184.598 391.668C184.859 391.743 185.079 391.855 185.256 392.004L184.92 392.746C184.631 392.503 184.267 392.382 183.828 392.382ZM192.425 398.626H186.265C186.321 399.391 186.615 400.012 187.147 400.488C187.679 400.955 188.351 401.188 189.163 401.188C189.62 401.188 190.04 401.109 190.423 400.95C190.806 400.782 191.137 400.539 191.417 400.222L191.977 400.866C191.65 401.258 191.24 401.557 190.745 401.762C190.26 401.967 189.723 402.07 189.135 402.07C188.379 402.07 187.707 401.911 187.119 401.594C186.54 401.267 186.088 400.819 185.761 400.25C185.434 399.681 185.271 399.037 185.271 398.318C185.271 397.599 185.425 396.955 185.733 396.386C186.05 395.817 186.48 395.373 187.021 395.056C187.572 394.739 188.188 394.58 188.869 394.58C189.55 394.58 190.162 394.739 190.703 395.056C191.244 395.373 191.669 395.817 191.977 396.386C192.285 396.946 192.439 397.59 192.439 398.318L192.425 398.626ZM188.869 395.434C188.16 395.434 187.562 395.663 187.077 396.12C186.601 396.568 186.33 397.156 186.265 397.884H191.487C191.422 397.156 191.146 396.568 190.661 396.12C190.185 395.663 189.588 395.434 188.869 395.434ZM198.214 394.58C199.138 394.58 199.871 394.851 200.412 395.392C200.963 395.924 201.238 396.703 201.238 397.73V402H200.244V397.828C200.244 397.063 200.053 396.479 199.67 396.078C199.288 395.677 198.742 395.476 198.032 395.476C197.239 395.476 196.609 395.714 196.142 396.19C195.685 396.657 195.456 397.305 195.456 398.136V402H194.462V394.636H195.414V395.994C195.685 395.546 196.058 395.201 196.534 394.958C197.02 394.706 197.58 394.58 198.214 394.58ZM210.684 391.612V402H209.732V400.544C209.433 401.039 209.037 401.417 208.542 401.678C208.057 401.939 207.506 402.07 206.89 402.07C206.199 402.07 205.574 401.911 205.014 401.594C204.454 401.277 204.015 400.833 203.698 400.264C203.381 399.695 203.222 399.046 203.222 398.318C203.222 397.59 203.381 396.941 203.698 396.372C204.015 395.803 204.454 395.364 205.014 395.056C205.574 394.739 206.199 394.58 206.89 394.58C207.487 394.58 208.024 394.706 208.5 394.958C208.985 395.201 209.382 395.56 209.69 396.036V391.612H210.684ZM206.974 401.188C207.487 401.188 207.949 401.071 208.36 400.838C208.78 400.595 209.107 400.255 209.34 399.816C209.583 399.377 209.704 398.878 209.704 398.318C209.704 397.758 209.583 397.259 209.34 396.82C209.107 396.381 208.78 396.045 208.36 395.812C207.949 395.569 207.487 395.448 206.974 395.448C206.451 395.448 205.98 395.569 205.56 395.812C205.149 396.045 204.823 396.381 204.58 396.82C204.347 397.259 204.23 397.758 204.23 398.318C204.23 398.878 204.347 399.377 204.58 399.816C204.823 400.255 205.149 400.595 205.56 400.838C205.98 401.071 206.451 401.188 206.974 401.188ZM220.994 401.552C220.808 401.72 220.574 401.851 220.294 401.944C220.024 402.028 219.739 402.07 219.44 402.07C218.75 402.07 218.218 401.883 217.844 401.51C217.471 401.137 217.284 400.609 217.284 399.928V395.476H215.968V394.636H217.284V393.026H218.278V394.636H220.518V395.476H218.278V399.872C218.278 400.311 218.386 400.647 218.6 400.88C218.824 401.104 219.142 401.216 219.552 401.216C219.758 401.216 219.954 401.183 220.14 401.118C220.336 401.053 220.504 400.959 220.644 400.838L220.994 401.552ZM229.44 394.636V402H228.488V400.656C228.227 401.104 227.867 401.454 227.41 401.706C226.953 401.949 226.43 402.07 225.842 402.07C224.881 402.07 224.12 401.804 223.56 401.272C223.009 400.731 222.734 399.942 222.734 398.906V394.636H223.728V398.808C223.728 399.583 223.919 400.171 224.302 400.572C224.685 400.973 225.231 401.174 225.94 401.174C226.715 401.174 227.326 400.941 227.774 400.474C228.222 399.998 228.446 399.34 228.446 398.5V394.636H229.44ZM233.176 396.078C233.409 395.583 233.755 395.21 234.212 394.958C234.679 394.706 235.253 394.58 235.934 394.58V395.546L235.696 395.532C234.921 395.532 234.315 395.77 233.876 396.246C233.437 396.722 233.218 397.389 233.218 398.248V402H232.224V394.636H233.176V396.078ZM241.528 394.58C242.218 394.58 242.844 394.739 243.404 395.056C243.964 395.364 244.402 395.803 244.72 396.372C245.037 396.941 245.196 397.59 245.196 398.318C245.196 399.055 245.037 399.709 244.72 400.278C244.402 400.847 243.964 401.291 243.404 401.608C242.853 401.916 242.228 402.07 241.528 402.07C240.93 402.07 240.389 401.949 239.904 401.706C239.428 401.454 239.036 401.09 238.728 400.614V404.716H237.734V394.636H238.686V396.092C238.984 395.607 239.376 395.233 239.862 394.972C240.356 394.711 240.912 394.58 241.528 394.58ZM241.458 401.188C241.971 401.188 242.438 401.071 242.858 400.838C243.278 400.595 243.604 400.255 243.838 399.816C244.08 399.377 244.202 398.878 244.202 398.318C244.202 397.758 244.08 397.263 243.838 396.834C243.604 396.395 243.278 396.055 242.858 395.812C242.438 395.569 241.971 395.448 241.458 395.448C240.935 395.448 240.464 395.569 240.044 395.812C239.633 396.055 239.306 396.395 239.064 396.834C238.83 397.263 238.714 397.758 238.714 398.318C238.714 398.878 238.83 399.377 239.064 399.816C239.306 400.255 239.633 400.595 240.044 400.838C240.464 401.071 240.935 401.188 241.458 401.188ZM247.222 394.636H248.216V402H247.222V394.636ZM247.726 393.026C247.521 393.026 247.348 392.956 247.208 392.816C247.068 392.676 246.998 392.508 246.998 392.312C246.998 392.125 247.068 391.962 247.208 391.822C247.348 391.682 247.521 391.612 247.726 391.612C247.931 391.612 248.104 391.682 248.244 391.822C248.384 391.953 248.454 392.111 248.454 392.298C248.454 392.503 248.384 392.676 248.244 392.816C248.104 392.956 247.931 393.026 247.726 393.026ZM252.956 402.07C252.358 402.07 251.784 401.986 251.234 401.818C250.692 401.641 250.268 401.421 249.96 401.16L250.408 400.376C250.716 400.619 251.103 400.819 251.57 400.978C252.036 401.127 252.522 401.202 253.026 401.202C253.698 401.202 254.192 401.099 254.51 400.894C254.836 400.679 255 400.381 255 399.998C255 399.727 254.911 399.517 254.734 399.368C254.556 399.209 254.332 399.093 254.062 399.018C253.791 398.934 253.432 398.855 252.984 398.78C252.386 398.668 251.906 398.556 251.542 398.444C251.178 398.323 250.865 398.122 250.604 397.842C250.352 397.562 250.226 397.175 250.226 396.68C250.226 396.064 250.482 395.56 250.996 395.168C251.509 394.776 252.223 394.58 253.138 394.58C253.614 394.58 254.09 394.645 254.566 394.776C255.042 394.897 255.434 395.061 255.742 395.266L255.308 396.064C254.701 395.644 253.978 395.434 253.138 395.434C252.503 395.434 252.022 395.546 251.696 395.77C251.378 395.994 251.22 396.288 251.22 396.652C251.22 396.932 251.308 397.156 251.486 397.324C251.672 397.492 251.901 397.618 252.172 397.702C252.442 397.777 252.816 397.856 253.292 397.94C253.88 398.052 254.351 398.164 254.706 398.276C255.06 398.388 255.364 398.579 255.616 398.85C255.868 399.121 255.994 399.494 255.994 399.97C255.994 400.614 255.723 401.127 255.182 401.51C254.65 401.883 253.908 402.07 252.956 402.07ZM257.929 402.07C257.724 402.07 257.547 401.995 257.397 401.846C257.257 401.697 257.187 401.515 257.187 401.3C257.187 401.085 257.257 400.908 257.397 400.768C257.547 400.619 257.724 400.544 257.929 400.544C258.135 400.544 258.312 400.619 258.461 400.768C258.611 400.908 258.685 401.085 258.685 401.3C258.685 401.515 258.611 401.697 258.461 401.846C258.312 401.995 258.135 402.07 257.929 402.07Z" fill="black"/>
</g>
<g filter="url(#filter0_d)">
<path d="M181.01 89.7405C180.302 91.9063 171.867 120.559 171.867 120.559L164.111 149.006L179.359 123.72C179.359 123.72 194.341 98.4621 195.285 96.5597C200.416 85.9943 200.004 78.7361 196.052 76.863C192.099 74.9607 184.343 79.3214 181.01 89.7405Z" fill="#73D676"/>
<path d="M189.534 99.9254C188.531 101.652 175.849 124.656 175.849 124.656L163.816 147.631L181.689 128.783C181.689 128.783 199.325 109.905 200.475 108.442C206.875 100.335 207.878 94.0135 204.87 91.6721C201.862 89.3307 194.37 91.6136 189.534 99.9254Z" fill="#FFCF32"/>
<path d="M198.263 106.891C196.877 108.354 179.359 127.963 179.359 127.963L162.459 147.689L184.136 133.29C184.136 133.29 205.578 118.803 207.052 117.632C215.133 111.135 217.522 105.223 215.104 102.267C212.656 99.3108 204.87 99.8669 198.263 106.891Z" fill="#73D676"/>
<path d="M242.827 164.664C242.827 191.648 219.174 213.54 190.005 213.54C160.837 213.54 137.184 191.648 137.184 164.664C137.184 156.791 139.219 150.791 140.281 148.157C147.713 129.719 168.24 115.466 190.005 115.788C215.222 116.139 242.827 136.041 242.827 164.664Z" fill="#73D676"/>
<path d="M223.332 149.679L224.07 148.567L220.383 147.016L219.97 146.84C219.675 146.723 219.38 146.548 219.085 146.401C217.345 145.406 215.281 144.938 213.098 145.172C208.497 145.67 204.781 149.357 204.339 153.923C203.72 160.128 208.94 165.279 215.192 164.664C219.823 164.196 223.568 160.479 224.011 155.884C224.188 154.04 223.863 152.284 223.126 150.733C223.008 150.47 223.008 150.177 223.155 149.943L223.332 149.679Z" fill="#3D3F3E"/>
<path d="M210.975 158.167C213.304 158.167 215.192 156.293 215.192 153.982C215.192 151.67 213.304 149.796 210.975 149.796C208.646 149.796 206.757 151.67 206.757 153.982C206.757 156.293 208.646 158.167 210.975 158.167Z" fill="white"/>
<path d="M217.227 161.035C218.025 161.035 218.672 160.393 218.672 159.601C218.672 158.809 218.025 158.167 217.227 158.167C216.429 158.167 215.782 158.809 215.782 159.601C215.782 160.393 216.429 161.035 217.227 161.035Z" fill="white"/>
<path d="M157.416 149.679L156.679 148.567L160.365 147.016L160.778 146.84C161.073 146.723 161.368 146.548 161.663 146.401C163.403 145.406 165.468 144.938 167.65 145.172C172.251 145.67 175.967 149.357 176.409 153.923C177.029 160.128 171.808 165.279 165.556 164.664C160.926 164.196 157.18 160.479 156.738 155.884C156.561 154.04 156.885 152.284 157.622 150.733C157.74 150.47 157.74 150.177 157.593 149.943L157.416 149.679Z" fill="#3D3F3E"/>
<path d="M169.773 158.167C172.103 158.167 173.991 156.293 173.991 153.982C173.991 151.67 172.103 149.796 169.773 149.796C167.444 149.796 165.556 151.67 165.556 153.982C165.556 156.293 167.444 158.167 169.773 158.167Z" fill="white"/>
<path d="M163.521 161.035C164.319 161.035 164.966 160.393 164.966 159.601C164.966 158.809 164.319 158.167 163.521 158.167C162.723 158.167 162.076 158.809 162.076 159.601C162.076 160.393 162.723 161.035 163.521 161.035Z" fill="white"/>
<path d="M202.186 181.902C201.449 188.136 196.317 192.995 190.064 192.995C183.812 192.995 178.651 188.136 177.943 181.902H202.186Z" fill="#EDBB19"/>
<path d="M206.315 178.302C206.315 179.532 205.607 180.644 204.545 181.258C199.65 184.068 191.067 187.873 190.035 187.873C188.944 187.873 180.42 184.097 175.525 181.258C174.463 180.644 173.785 179.532 173.785 178.302C173.785 178.302 173.785 178.303 173.785 178.273C173.785 169.2 181.069 161.884 190.035 161.884C199.03 161.884 206.315 169.23 206.315 178.302Z" fill="#FFCF32"/>
<path d="M158.36 176.868C163.865 176.868 168.328 175.479 168.328 173.766C168.328 172.053 163.865 170.664 158.36 170.664C152.854 170.664 148.391 172.053 148.391 173.766C148.391 175.479 152.854 176.868 158.36 176.868Z" fill="#F0B8D5"/>
<path d="M220.324 177.161C225.83 177.161 230.293 175.772 230.293 174.059C230.293 172.345 225.83 170.956 220.324 170.956C214.819 170.956 210.355 172.345 210.355 174.059C210.355 175.772 214.819 177.161 220.324 177.161Z" fill="#F0B8D5"/>
<path d="M195.314 152.46C195.285 152.899 195.255 153.367 195.255 153.806V153.923C194.075 152.84 192.306 152.138 190.359 152.138C188.383 152.138 186.643 152.84 185.464 153.923V153.806C185.464 153.338 185.464 152.899 185.405 152.46C186.761 151.582 188.472 151.055 190.359 151.055C192.217 151.055 193.958 151.582 195.314 152.46Z" fill="#913B8E"/>
<path d="M185.582 152.46C184.874 142.099 176.203 133.904 165.556 133.904C154.467 133.904 145.501 142.831 145.501 153.806C145.501 164.81 154.496 173.737 165.556 173.737C176.616 173.737 185.552 164.869 185.641 153.923V153.806C185.641 153.367 185.611 152.899 185.582 152.46ZM165.556 172.069C155.381 172.069 147.153 163.903 147.153 153.806C147.153 143.709 155.381 135.543 165.556 135.543C175.731 135.543 183.959 143.709 183.959 153.806V153.952C183.959 154.947 183.871 155.913 183.694 156.85C182.249 165.513 174.669 172.069 165.556 172.069Z" fill="#913B8E"/>
<path opacity="0.29" d="M165.556 172.069C175.72 172.069 183.96 163.892 183.96 153.806C183.96 143.72 175.72 135.543 165.556 135.543C155.392 135.543 147.153 143.72 147.153 153.806C147.153 163.892 155.392 172.069 165.556 172.069Z" fill="#BCE1EA"/>
<path d="M215.163 133.904C204.545 133.904 195.845 142.099 195.167 152.46C195.137 152.899 195.108 153.367 195.108 153.806V153.923C195.167 164.869 204.133 173.737 215.163 173.737C226.252 173.737 235.247 164.81 235.247 153.806C235.247 142.802 226.252 133.904 215.163 133.904ZM215.163 172.069C206.05 172.069 198.47 165.484 197.025 156.85C196.848 155.913 196.759 154.918 196.759 153.923V153.777C196.759 143.68 204.988 135.514 215.163 135.514C225.338 135.514 233.566 143.68 233.566 153.777C233.566 163.874 225.338 172.069 215.163 172.069Z" fill="#913B8E"/>
<path opacity="0.29" d="M215.192 172.069C225.356 172.069 233.596 163.892 233.596 153.806C233.596 143.72 225.356 135.543 215.192 135.543C205.028 135.543 196.789 143.72 196.789 153.806C196.789 163.892 205.028 172.069 215.192 172.069Z" fill="#BCE1EA"/>
</g>
<path d="M113.192 162.53C83.0653 158.491 50.7675 176.284 47.2801 207.225C43.6669 239.281 75.6245 269.039 107.827 269.165C130.52 269.253 139.371 249.5 161.571 244.785C202.791 236.031 227.391 269.232 268.043 280.338C301.506 289.481 336.066 282.521 357.572 247.857C386.446 201.316 336.199 128.48 281.52 130.024C234.376 131.355 251.158 193.101 204.16 197.043C162.569 200.531 143.318 166.569 113.192 162.53Z" fill="#A55FEE"/>
<path d="M102.549 206.288H108.165V233H102.549V206.288ZM113.377 213.632H118.993V233H113.377V213.632ZM116.185 210.932C115.153 210.932 114.313 210.632 113.665 210.032C113.017 209.432 112.693 208.688 112.693 207.8C112.693 206.912 113.017 206.168 113.665 205.568C114.313 204.968 115.153 204.668 116.185 204.668C117.217 204.668 118.057 204.956 118.705 205.532C119.353 206.108 119.677 206.828 119.677 207.692C119.677 208.628 119.353 209.408 118.705 210.032C118.057 210.632 117.217 210.932 116.185 210.932ZM143.429 213.632L135.257 233H129.461L121.325 213.632H127.121L132.485 226.808L138.029 213.632H143.429ZM151.085 216.188C151.757 215.252 152.657 214.544 153.785 214.064C154.937 213.584 156.257 213.344 157.745 213.344V218.528C157.121 218.48 156.701 218.456 156.485 218.456C154.877 218.456 153.617 218.912 152.705 219.824C151.793 220.712 151.337 222.056 151.337 223.856V233H145.721V213.632H151.085V216.188ZM179.88 223.388C179.88 223.46 179.844 223.964 179.772 224.9H165.12C165.384 226.1 166.008 227.048 166.992 227.744C167.976 228.44 169.2 228.788 170.664 228.788C171.672 228.788 172.56 228.644 173.328 228.356C174.12 228.044 174.852 227.564 175.524 226.916L178.512 230.156C176.688 232.244 174.024 233.288 170.52 233.288C168.336 233.288 166.404 232.868 164.724 232.028C163.044 231.164 161.748 229.976 160.836 228.464C159.924 226.952 159.468 225.236 159.468 223.316C159.468 221.42 159.912 219.716 160.8 218.204C161.712 216.668 162.948 215.48 164.508 214.64C166.092 213.776 167.856 213.344 169.8 213.344C171.696 213.344 173.412 213.752 174.948 214.568C176.484 215.384 177.684 216.56 178.548 218.096C179.436 219.608 179.88 221.372 179.88 223.388ZM169.836 217.592C168.564 217.592 167.496 217.952 166.632 218.672C165.768 219.392 165.24 220.376 165.048 221.624H174.588C174.396 220.4 173.868 219.428 173.004 218.708C172.14 217.964 171.084 217.592 169.836 217.592ZM206.947 233L206.911 217.88L199.495 230.336H196.867L189.487 218.204V233H184.015V207.8H188.839L198.271 223.46L207.559 207.8H212.347L212.419 233H206.947ZM237.91 228.32V233H218.398V207.8H237.442V212.48H224.194V217.952H235.894V222.488H224.194V228.32H237.91ZM265.663 207.8V233H260.875L248.311 217.7V233H242.551V207.8H247.375L259.902 223.1V207.8H265.663ZM276.845 212.552H268.781V207.8H290.741V212.552H282.677V233H276.845V212.552ZM313.391 228.32V233H293.879V207.8H312.923V212.48H299.675V217.952H311.375V222.488H299.675V228.32H313.391Z" fill="#EDE0F9"/>
<g filter="url(#filter1_d)">
<path d="M47 468C47 456.954 55.9543 448 67 448H346C357.046 448 366 456.954 366 468V484C366 495.046 357.046 504 346 504H67C55.9543 504 47 495.046 47 484V468Z" fill="#A55FEE"/>
<path d="M170.074 481.328V485H156.586V468.2H169.762V471.872H161.29V474.704H168.754V478.256H161.29V481.328H170.074ZM188.695 468.2V485H184.783L177.367 476.048V485H172.711V468.2H176.623L184.039 477.152V468.2H188.695ZM195.623 471.968H190.463V468.2H205.511V471.968H200.375V485H195.623V471.968ZM214.626 480.536H212.034V485H207.282V468.2H214.962C216.482 468.2 217.802 468.456 218.922 468.968C220.042 469.464 220.906 470.184 221.514 471.128C222.122 472.056 222.426 473.152 222.426 474.416C222.426 475.632 222.138 476.696 221.562 477.608C221.002 478.504 220.194 479.208 219.138 479.72L222.762 485H217.674L214.626 480.536ZM217.626 474.416C217.626 473.632 217.378 473.024 216.882 472.592C216.386 472.16 215.65 471.944 214.674 471.944H212.034V476.864H214.674C215.65 476.864 216.386 476.656 216.882 476.24C217.378 475.808 217.626 475.2 217.626 474.416ZM236.303 481.736H229.199L227.879 485H223.031L230.447 468.2H235.127L242.567 485H237.623L236.303 481.736ZM234.911 478.232L232.751 472.856L230.591 478.232H234.911ZM251.258 480.536H248.666V485H243.914V468.2H251.594C253.114 468.2 254.434 468.456 255.554 468.968C256.674 469.464 257.538 470.184 258.146 471.128C258.754 472.056 259.058 473.152 259.058 474.416C259.058 475.632 258.77 476.696 258.194 477.608C257.634 478.504 256.826 479.208 255.77 479.72L259.394 485H254.306L251.258 480.536ZM254.258 474.416C254.258 473.632 254.01 473.024 253.514 472.592C253.018 472.16 252.282 471.944 251.306 471.944H248.666V476.864H251.306C252.282 476.864 253.018 476.656 253.514 476.24C254.01 475.808 254.258 475.2 254.258 474.416Z" fill="white"/>
</g>
<g filter="url(#filter2_d)">
<rect x="47" y="531" width="319" height="57" rx="20" fill="#3AAFFF"/>
</g>
<path d="M163.832 568.336C162.056 568.336 160.456 567.96 159.032 567.208C157.624 566.456 156.512 565.416 155.696 564.088C154.896 562.76 154.496 561.264 154.496 559.6C154.496 557.936 154.896 556.44 155.696 555.112C156.512 553.784 157.624 552.744 159.032 551.992C160.456 551.24 162.056 550.864 163.832 550.864C165.608 550.864 167.2 551.24 168.608 551.992C170.032 552.744 171.144 553.784 171.944 555.112C172.76 556.44 173.168 557.936 173.168 559.6C173.168 561.264 172.76 562.76 171.944 564.088C171.144 565.416 170.032 566.456 168.608 567.208C167.2 567.96 165.608 568.336 163.832 568.336ZM163.832 564.4C164.68 564.4 165.448 564.2 166.136 563.8C166.824 563.4 167.368 562.84 167.768 562.12C168.168 561.384 168.368 560.544 168.368 559.6C168.368 558.656 168.168 557.824 167.768 557.104C167.368 556.368 166.824 555.8 166.136 555.4C165.448 555 164.68 554.8 163.832 554.8C162.984 554.8 162.216 555 161.528 555.4C160.84 555.8 160.296 556.368 159.896 557.104C159.496 557.824 159.296 558.656 159.296 559.6C159.296 560.544 159.496 561.384 159.896 562.12C160.296 562.84 160.84 563.4 161.528 563.8C162.216 564.2 162.984 564.4 163.832 564.4ZM183.337 551.2C184.857 551.2 186.177 551.456 187.297 551.968C188.417 552.464 189.281 553.184 189.889 554.128C190.497 555.056 190.801 556.152 190.801 557.416C190.801 558.68 190.497 559.776 189.889 560.704C189.281 561.632 188.417 562.352 187.297 562.864C186.177 563.36 184.857 563.608 183.337 563.608H180.409V568H175.657V551.2H183.337ZM183.049 559.864C184.025 559.864 184.761 559.656 185.257 559.24C185.753 558.808 186.001 558.2 186.001 557.416C186.001 556.632 185.753 556.024 185.257 555.592C184.761 555.16 184.025 554.944 183.049 554.944H180.409V559.864H183.049ZM201.728 568.336C199.968 568.336 198.384 567.968 196.976 567.232C195.584 566.48 194.488 565.44 193.688 564.112C192.888 562.784 192.488 561.28 192.488 559.6C192.488 557.92 192.888 556.416 193.688 555.088C194.488 553.76 195.584 552.728 196.976 551.992C198.384 551.24 199.968 550.864 201.728 550.864C203.264 550.864 204.648 551.136 205.88 551.68C207.112 552.224 208.136 553.008 208.952 554.032L205.928 556.768C204.84 555.456 203.52 554.8 201.968 554.8C201.056 554.8 200.24 555 199.52 555.4C198.816 555.8 198.264 556.368 197.864 557.104C197.48 557.824 197.288 558.656 197.288 559.6C197.288 560.544 197.48 561.384 197.864 562.12C198.264 562.84 198.816 563.4 199.52 563.8C200.24 564.2 201.056 564.4 201.968 564.4C203.52 564.4 204.84 563.744 205.928 562.432L208.952 565.168C208.136 566.192 207.112 566.976 205.88 567.52C204.648 568.064 203.264 568.336 201.728 568.336ZM200.264 573.664C199.864 573.664 199.448 573.616 199.016 573.52C198.6 573.424 198.256 573.304 197.984 573.16L198.608 571.36C199.088 571.584 199.584 571.696 200.096 571.696C200.896 571.696 201.296 571.472 201.296 571.024C201.296 570.624 200.936 570.424 200.216 570.424H199.328L199.952 567.784H202.328L201.992 569.224C202.696 569.304 203.216 569.52 203.552 569.872C203.888 570.24 204.056 570.672 204.056 571.168C204.056 571.936 203.712 572.544 203.024 572.992C202.336 573.44 201.416 573.664 200.264 573.664ZM219.191 568.336C217.415 568.336 215.815 567.96 214.391 567.208C212.983 566.456 211.871 565.416 211.055 564.088C210.255 562.76 209.855 561.264 209.855 559.6C209.855 557.936 210.255 556.44 211.055 555.112C211.871 553.784 212.983 552.744 214.391 551.992C215.815 551.24 217.415 550.864 219.191 550.864C220.967 550.864 222.559 551.24 223.967 551.992C225.391 552.744 226.503 553.784 227.303 555.112C228.119 556.44 228.527 557.936 228.527 559.6C228.527 561.264 228.119 562.76 227.303 564.088C226.503 565.416 225.391 566.456 223.967 567.208C222.559 567.96 220.967 568.336 219.191 568.336ZM219.191 564.4C220.039 564.4 220.807 564.2 221.495 563.8C222.183 563.4 222.727 562.84 223.127 562.12C223.527 561.384 223.727 560.544 223.727 559.6C223.727 558.656 223.527 557.824 223.127 557.104C222.727 556.368 222.183 555.8 221.495 555.4C220.807 555 220.039 554.8 219.191 554.8C218.343 554.8 217.575 555 216.887 555.4C216.199 555.8 215.655 556.368 215.255 557.104C214.855 557.824 214.655 558.656 214.655 559.6C214.655 560.544 214.855 561.384 215.255 562.12C215.655 562.84 216.199 563.4 216.887 563.8C217.575 564.2 218.343 564.4 219.191 564.4ZM221.063 550C220.631 550 220.239 549.92 219.887 549.76C219.551 549.584 219.175 549.352 218.759 549.064C218.455 548.856 218.223 548.712 218.063 548.632C217.919 548.552 217.767 548.512 217.607 548.512C217.287 548.512 217.031 548.624 216.839 548.848C216.647 549.072 216.535 549.384 216.503 549.784H214.271C214.303 548.616 214.591 547.688 215.135 547C215.679 546.312 216.407 545.968 217.319 545.968C217.751 545.968 218.135 546.048 218.471 546.208C218.807 546.368 219.191 546.592 219.623 546.88C219.927 547.088 220.151 547.232 220.295 547.312C220.455 547.392 220.615 547.432 220.775 547.432C221.095 547.432 221.351 547.328 221.543 547.12C221.735 546.896 221.847 546.6 221.879 546.232H224.111C224.079 547.368 223.791 548.28 223.247 548.968C222.703 549.656 221.975 550 221.063 550ZM244.504 564.328V568H231.016V551.2H244.192V554.872H235.72V557.704H243.184V561.256H235.72V564.328H244.504ZM253.045 568.336C251.685 568.336 250.365 568.168 249.085 567.832C247.805 567.496 246.765 567.048 245.965 566.488L247.525 562.984C248.277 563.48 249.149 563.88 250.141 564.184C251.133 564.488 252.109 564.64 253.069 564.64C254.893 564.64 255.805 564.184 255.805 563.272C255.805 562.792 255.541 562.44 255.013 562.216C254.501 561.976 253.669 561.728 252.517 561.472C251.253 561.2 250.197 560.912 249.349 560.608C248.501 560.288 247.773 559.784 247.165 559.096C246.557 558.408 246.253 557.48 246.253 556.312C246.253 555.288 246.533 554.368 247.093 553.552C247.653 552.72 248.485 552.064 249.589 551.584C250.709 551.104 252.077 550.864 253.693 550.864C254.797 550.864 255.885 550.992 256.957 551.248C258.029 551.488 258.973 551.848 259.789 552.328L258.325 555.856C256.725 554.992 255.173 554.56 253.669 554.56C252.725 554.56 252.037 554.704 251.605 554.992C251.173 555.264 250.957 555.624 250.957 556.072C250.957 556.52 251.213 556.856 251.725 557.08C252.237 557.304 253.061 557.536 254.197 557.776C255.477 558.048 256.533 558.344 257.365 558.664C258.213 558.968 258.941 559.464 259.549 560.152C260.173 560.824 260.485 561.744 260.485 562.912C260.485 563.92 260.205 564.832 259.645 565.648C259.085 566.464 258.245 567.12 257.125 567.616C256.005 568.096 254.645 568.336 253.045 568.336Z" fill="#2D5B64"/>
<g filter="url(#filter3_d)">
<rect x="47" y="614" width="319" height="57" rx="20" fill="#FFCF32"/>
</g>
<path d="M175.469 634.2H180.221V647.232H188.237V651H175.469V634.2ZM198.332 651.336C196.556 651.336 194.956 650.96 193.532 650.208C192.124 649.456 191.012 648.416 190.196 647.088C189.396 645.76 188.996 644.264 188.996 642.6C188.996 640.936 189.396 639.44 190.196 638.112C191.012 636.784 192.124 635.744 193.532 634.992C194.956 634.24 196.556 633.864 198.332 633.864C200.108 633.864 201.7 634.24 203.108 634.992C204.532 635.744 205.644 636.784 206.444 638.112C207.26 639.44 207.668 640.936 207.668 642.6C207.668 644.264 207.26 645.76 206.444 647.088C205.644 648.416 204.532 649.456 203.108 650.208C201.7 650.96 200.108 651.336 198.332 651.336ZM198.332 647.4C199.18 647.4 199.948 647.2 200.636 646.8C201.324 646.4 201.868 645.84 202.268 645.12C202.668 644.384 202.868 643.544 202.868 642.6C202.868 641.656 202.668 640.824 202.268 640.104C201.868 639.368 201.324 638.8 200.636 638.4C199.948 638 199.18 637.8 198.332 637.8C197.484 637.8 196.716 638 196.028 638.4C195.34 638.8 194.796 639.368 194.396 640.104C193.996 640.824 193.796 641.656 193.796 642.6C193.796 643.544 193.996 644.384 194.396 645.12C194.796 645.84 195.34 646.4 196.028 646.8C196.716 647.2 197.484 647.4 198.332 647.4ZM213.477 651.336C212.245 651.336 211.125 651.128 210.117 650.712C209.109 650.28 208.285 649.664 207.645 648.864L210.237 645.792C211.133 646.96 212.101 647.544 213.141 647.544C213.829 647.544 214.349 647.336 214.701 646.92C215.069 646.504 215.253 645.896 215.253 645.096V637.872H209.445V634.2H219.957V644.808C219.957 646.984 219.405 648.616 218.301 649.704C217.213 650.792 215.605 651.336 213.477 651.336ZM234.069 647.736H226.965L225.645 651H220.797L228.213 634.2H232.893L240.333 651H235.389L234.069 647.736ZM232.677 644.232L230.517 638.856L228.357 644.232H232.677Z" fill="#2D5B64"/>
<g filter="url(#filter4_d)">
<rect x="47" y="697" width="319" height="57" rx="20" fill="#73D676"/>
</g>
<path d="M121.814 734.336C120.054 734.336 118.47 733.968 117.062 733.232C115.67 732.48 114.574 731.44 113.774 730.112C112.974 728.784 112.574 727.28 112.574 725.6C112.574 723.92 112.974 722.416 113.774 721.088C114.574 719.76 115.67 718.728 117.062 717.992C118.47 717.24 120.054 716.864 121.814 716.864C123.35 716.864 124.734 717.136 125.966 717.68C127.198 718.224 128.222 719.008 129.038 720.032L126.014 722.768C124.926 721.456 123.606 720.8 122.054 720.8C121.142 720.8 120.326 721 119.606 721.4C118.902 721.8 118.35 722.368 117.95 723.104C117.566 723.824 117.374 724.656 117.374 725.6C117.374 726.544 117.566 727.384 117.95 728.12C118.35 728.84 118.902 729.4 119.606 729.8C120.326 730.2 121.142 730.4 122.054 730.4C123.606 730.4 124.926 729.744 126.014 728.432L129.038 731.168C128.222 732.192 127.198 732.976 125.966 733.52C124.734 734.064 123.35 734.336 121.814 734.336ZM144.645 730.328V734H131.157V717.2H144.333V720.872H135.861V723.704H143.325V727.256H135.861V730.328H144.645ZM154.626 729.536H152.034V734H147.282V717.2H154.962C156.482 717.2 157.802 717.456 158.922 717.968C160.042 718.464 160.906 719.184 161.514 720.128C162.122 721.056 162.426 722.152 162.426 723.416C162.426 724.632 162.138 725.696 161.562 726.608C161.002 727.504 160.194 728.208 159.138 728.72L162.762 734H157.674L154.626 729.536ZM157.626 723.416C157.626 722.632 157.378 722.024 156.882 721.592C156.386 721.16 155.65 720.944 154.674 720.944H152.034V725.864H154.674C155.65 725.864 156.386 725.656 156.882 725.24C157.378 724.808 157.626 724.2 157.626 723.416ZM168.389 720.968H163.229V717.2H178.277V720.968H173.141V734H168.389V720.968ZM180.047 717.2H184.799V734H180.047V717.2ZM192.932 720.872V724.568H200.348V728.24H192.932V734H188.18V717.2H201.356V720.872H192.932ZM203.578 717.2H208.33V734H203.578V717.2ZM220.087 734.336C218.327 734.336 216.743 733.968 215.335 733.232C213.943 732.48 212.847 731.44 212.047 730.112C211.247 728.784 210.847 727.28 210.847 725.6C210.847 723.92 211.247 722.416 212.047 721.088C212.847 719.76 213.943 718.728 215.335 717.992C216.743 717.24 218.327 716.864 220.087 716.864C221.623 716.864 223.007 717.136 224.239 717.68C225.471 718.224 226.495 719.008 227.311 720.032L224.287 722.768C223.199 721.456 221.879 720.8 220.327 720.8C219.415 720.8 218.599 721 217.879 721.4C217.175 721.8 216.623 722.368 216.223 723.104C215.839 723.824 215.647 724.656 215.647 725.6C215.647 726.544 215.839 727.384 216.223 728.12C216.623 728.84 217.175 729.4 217.879 729.8C218.599 730.2 219.415 730.4 220.327 730.4C221.879 730.4 223.199 729.744 224.287 728.432L227.311 731.168C226.495 732.192 225.471 732.976 224.239 733.52C223.007 734.064 221.623 734.336 220.087 734.336ZM240.405 730.736H233.301L231.981 734H227.133L234.549 717.2H239.229L246.669 734H241.725L240.405 730.736ZM239.013 727.232L236.853 721.856L234.693 727.232H239.013ZM248.016 717.2H255.96C257.8 717.2 259.432 717.544 260.856 718.232C262.28 718.92 263.384 719.896 264.168 721.16C264.952 722.424 265.344 723.904 265.344 725.6C265.344 727.296 264.952 728.776 264.168 730.04C263.384 731.304 262.28 732.28 260.856 732.968C259.432 733.656 257.8 734 255.96 734H248.016V717.2ZM255.768 730.208C257.208 730.208 258.36 729.8 259.224 728.984C260.104 728.168 260.544 727.04 260.544 725.6C260.544 724.16 260.104 723.032 259.224 722.216C258.36 721.4 257.208 720.992 255.768 720.992H252.768V730.208H255.768ZM276.316 734.336C274.54 734.336 272.94 733.96 271.516 733.208C270.108 732.456 268.996 731.416 268.18 730.088C267.38 728.76 266.98 727.264 266.98 725.6C266.98 723.936 267.38 722.44 268.18 721.112C268.996 719.784 270.108 718.744 271.516 717.992C272.94 717.24 274.54 716.864 276.316 716.864C278.092 716.864 279.684 717.24 281.092 717.992C282.516 718.744 283.628 719.784 284.428 721.112C285.244 722.44 285.652 723.936 285.652 725.6C285.652 727.264 285.244 728.76 284.428 730.088C283.628 731.416 282.516 732.456 281.092 733.208C279.684 733.96 278.092 734.336 276.316 734.336ZM276.316 730.4C277.164 730.4 277.932 730.2 278.62 729.8C279.308 729.4 279.852 728.84 280.252 728.12C280.652 727.384 280.852 726.544 280.852 725.6C280.852 724.656 280.652 723.824 280.252 723.104C279.852 722.368 279.308 721.8 278.62 721.4C277.932 721 277.164 720.8 276.316 720.8C275.468 720.8 274.7 721 274.012 721.4C273.324 721.8 272.78 722.368 272.38 723.104C271.98 723.824 271.78 724.656 271.78 725.6C271.78 726.544 271.98 727.384 272.38 728.12C272.78 728.84 273.324 729.4 274.012 729.8C274.7 730.2 275.468 730.4 276.316 730.4ZM294.045 734.336C292.685 734.336 291.365 734.168 290.085 733.832C288.805 733.496 287.765 733.048 286.965 732.488L288.525 728.984C289.277 729.48 290.149 729.88 291.141 730.184C292.133 730.488 293.109 730.64 294.069 730.64C295.893 730.64 296.805 730.184 296.805 729.272C296.805 728.792 296.541 728.44 296.013 728.216C295.501 727.976 294.669 727.728 293.517 727.472C292.253 727.2 291.197 726.912 290.349 726.608C289.501 726.288 288.773 725.784 288.165 725.096C287.557 724.408 287.253 723.48 287.253 722.312C287.253 721.288 287.533 720.368 288.093 719.552C288.653 718.72 289.485 718.064 290.589 717.584C291.709 717.104 293.077 716.864 294.693 716.864C295.797 716.864 296.885 716.992 297.957 717.248C299.029 717.488 299.973 717.848 300.789 718.328L299.325 721.856C297.725 720.992 296.173 720.56 294.669 720.56C293.725 720.56 293.037 720.704 292.605 720.992C292.173 721.264 291.957 721.624 291.957 722.072C291.957 722.52 292.213 722.856 292.725 723.08C293.237 723.304 294.061 723.536 295.197 723.776C296.477 724.048 297.533 724.344 298.365 724.664C299.213 724.968 299.941 725.464 300.549 726.152C301.173 726.824 301.485 727.744 301.485 728.912C301.485 729.92 301.205 730.832 300.645 731.648C300.085 732.464 299.245 733.12 298.125 733.616C297.005 734.096 295.645 734.336 294.045 734.336Z" fill="#2D5B64"/>
</g>
<defs>
<filter id="filter0_d" x="112" y="67" width="152" height="229" filterUnits="userSpaceOnUse" color-interpolation-filters="sRGB">
<feFlood flood-opacity="0" result="BackgroundImageFix"/>
<feColorMatrix in="SourceAlpha" type="matrix" values="0 0 0 0 0 0 0 0 0 0 0 0 0 0 0 0 0 0 127 0"/>
<feOffset dy="2"/>
<feGaussianBlur stdDeviation="0.5"/>
<feColorMatrix type="matrix" values="0 0 0 0 0 0 0 0 0 0 0 0 0 0 0 0 0 0 0.25 0"/>
<feBlend mode="normal" in2="BackgroundImageFix" result="effect1_dropShadow"/>
<feBlend mode="normal" in="SourceGraphic" in2="effect1_dropShadow" result="shape"/>
</filter>
<filter id="filter1_d" x="46" y="448" width="321" height="59" filterUnits="userSpaceOnUse" color-interpolation-filters="sRGB">
<feFlood flood-opacity="0" result="BackgroundImageFix"/>
<feColorMatrix in="SourceAlpha" type="matrix" values="0 0 0 0 0 0 0 0 0 0 0 0 0 0 0 0 0 0 127 0"/>
<feOffset dy="2"/>
<feGaussianBlur stdDeviation="0.5"/>
<feColorMatrix type="matrix" values="0 0 0 0 0.544685 0 0 0 0 0.455972 0 0 0 0 0.558333 0 0 0 1 0"/>
<feBlend mode="normal" in2="BackgroundImageFix" result="effect1_dropShadow"/>
<feBlend mode="normal" in="SourceGraphic" in2="effect1_dropShadow" result="shape"/>
</filter>
<filter id="filter2_d" x="46" y="531" width="321" height="60" filterUnits="userSpaceOnUse" color-interpolation-filters="sRGB">
<feFlood flood-opacity="0" result="BackgroundImageFix"/>
<feColorMatrix in="SourceAlpha" type="matrix" values="0 0 0 0 0 0 0 0 0 0 0 0 0 0 0 0 0 0 127 0"/>
<feOffset dy="2"/>
<feGaussianBlur stdDeviation="0.5"/>
<feColorMatrix type="matrix" values="0 0 0 0 0.0938889 0 0 0 0 0.552848 0 0 0 0 0.866667 0 0 0 1 0"/>
<feBlend mode="normal" in2="BackgroundImageFix" result="effect1_dropShadow"/>
<feBlend mode="normal" in="SourceGraphic" in2="effect1_dropShadow" result="shape"/>
</filter>
<filter id="filter3_d" x="46" y="614" width="321" height="60" filterUnits="userSpaceOnUse" color-interpolation-filters="sRGB">
<feFlood flood-opacity="0" result="BackgroundImageFix"/>
<feColorMatrix in="SourceAlpha" type="matrix" values="0 0 0 0 0 0 0 0 0 0 0 0 0 0 0 0 0 0 127 0"/>
<feOffset dy="2"/>
<feGaussianBlur stdDeviation="0.5"/>
<feColorMatrix type="matrix" values="0 0 0 0 0.8625 0 0 0 0 0.702223 0 0 0 0 0.176094 0 0 0 1 0"/>
<feBlend mode="normal" in2="BackgroundImageFix" result="effect1_dropShadow"/>
<feBlend mode="normal" in="SourceGraphic" in2="effect1_dropShadow" result="shape"/>
</filter>
<filter id="filter4_d" x="46" y="697" width="321" height="60" filterUnits="userSpaceOnUse" color-interpolation-filters="sRGB">
<feFlood flood-opacity="0" result="BackgroundImageFix"/>
<feColorMatrix in="SourceAlpha" type="matrix" values="0 0 0 0 0 0 0 0 0 0 0 0 0 0 0 0 0 0 127 0"/>
<feOffset dy="2"/>
<feGaussianBlur stdDeviation="0.5"/>
<feColorMatrix type="matrix" values="0 0 0 0 0.379774 0 0 0 0 0.729167 0 0 0 0 0.390362 0 0 0 1 0"/>
<feBlend mode="normal" in2="BackgroundImageFix" result="effect1_dropShadow"/>
<feBlend mode="normal" in="SourceGraphic" in2="effect1_dropShadow" result="shape"/>
</filter>
<clipPath id="clip0">
<rect width="414" height="896" fill="white"/>
</clipPath>
<clipPath id="clip1">
<rect width="414" height="896.58" fill="white" transform="translate(414 896.58) rotate(-180)"/>
</clipPath>
</defs>
</svg>
